<?xml version="1.0" encoding="UTF-8" standalone="no"?><!-- Generator: Gravit.io --><svg xmlns="http://www.w3.org/2000/svg" xmlns:xlink="http://www.w3.org/1999/xlink" style="isolation:isolate" viewBox="0 0 512 512" width="512pt" height="512pt"><defs><clipPath id="_clipPath_c6kh7QaYbSG2TShmwh0kzuqCQf8Ya7G5"><rect width="512" height="512"/></clipPath></defs><g clip-path="url(#_clipPath_c6kh7QaYbSG2TShmwh0kzuqCQf8Ya7G5)"><path d=" M 405.333 448 L 416 448 C 427.994 448 439.079 444.016 448 437.301 L 448 469.333 C 448 481.088 438.421 490.667 426.667 490.667 C 414.912 490.667 405.333 481.088 405.333 469.333 L 405.333 448 L 405.333 448 L 405.333 448 L 405.333 448 L 405.333 448 L 405.333 448 Z  M 64 448 L 53.333 448 C 41.339 448 30.254 444.016 21.333 437.301 L 21.333 469.333 C 21.333 481.088 30.912 490.667 42.667 490.667 C 54.421 490.667 64 481.088 64 469.333 L 64 448 L 64 448 L 64 448 L 64 448 L 64 448 L 64 448 L 64 448 Z  M 138.667 384 L 74.667 384 C 68.779 384 64 379.221 64 373.333 C 64 367.445 68.779 362.667 74.667 362.667 L 138.667 362.667 C 144.555 362.667 149.333 367.445 149.333 373.333 C 149.333 379.221 144.555 384 138.667 384 L 138.667 384 L 138.667 384 L 138.667 384 Z  M 394.667 384 L 330.667 384 C 324.779 384 320 379.221 320 373.333 C 320 367.445 324.779 362.667 330.667 362.667 L 394.667 362.667 C 400.555 362.667 405.333 367.445 405.333 373.333 C 405.333 379.221 400.555 384 394.667 384 L 394.667 384 L 394.667 384 Z  M 277.333 57.941 L 277.333 139.435 C 277.333 220.181 363.84 266.539 384 276.267 C 404.139 266.517 490.667 219.989 490.667 139.435 L 490.667 57.941 L 384 21.931 L 277.333 57.941 L 277.333 57.941 L 277.333 57.941 Z  M 384 298.667 C 382.592 298.667 381.184 298.389 379.861 297.813 C 374.784 295.701 256 244.352 256 139.435 L 256 50.283 C 256 45.717 258.923 41.643 263.253 40.171 L 380.587 0.555 C 382.805 -0.192 385.195 -0.192 387.413 0.555 L 504.747 40.171 C 509.077 41.643 512 45.717 512 50.283 L 512 139.435 C 512 244.352 393.216 295.701 388.139 297.835 C 386.816 298.389 385.408 298.667 384 298.667 L 384 298.667 L 384 298.667 Z  M 43.365 305.554 C 17.783 317.409 0 343.332 0 373.333 L 0 394.667 L 0 394.667 L 0 469.333 C 0 492.864 19.136 512 42.667 512 C 66.197 512 85.333 492.864 85.333 469.333 L 85.333 448 L 85.333 448 L 384 448 L 384 448 L 384 469.333 C 384 492.864 403.136 512 426.667 512 C 450.197 512 469.333 492.864 469.333 469.333 L 469.333 394.667 L 469.333 394.667 L 469.333 373.333 C 469.333 354.603 462.336 336.725 449.664 322.987 C 445.653 318.635 438.869 318.379 434.581 322.389 C 430.251 326.4 429.973 333.141 433.984 337.472 C 443.029 347.243 448 359.979 448 373.333 L 448 394.667 C 448 412.309 433.643 426.667 416 426.667 L 394.667 426.667 L 74.667 426.667 L 53.333 426.667 C 35.691 426.667 21.333 412.309 21.333 394.667 L 21.333 394.667 L 21.333 373.333 C 21.333 343.936 45.269 320 74.667 320 L 295.467 320 C 301.355 320 306.133 315.221 306.133 309.333 C 306.133 303.445 301.355 298.667 295.467 298.667 L 74.667 298.667 C 72.854 298.667 71.057 298.732 69.277 298.859 L 105.643 211.691 C 110.571 199.915 122.368 192 135.04 192 L 207.36 192 C 213.269 192 218.027 187.221 218.027 181.333 C 218.027 175.445 213.248 170.667 207.36 170.667 L 135.04 170.667 C 113.557 170.667 94.293 183.552 85.952 203.456 L 43.499 305.216 C 43.452 305.328 43.407 305.441 43.365 305.554 L 43.365 305.554 L 43.365 305.554 L 43.365 305.554 L 43.365 305.554 Z  M 373.333 192 C 373.141 192 372.928 192 372.736 191.979 C 369.707 191.808 366.891 190.357 364.992 187.989 L 322.325 134.656 C 318.656 130.048 319.403 123.349 323.989 119.659 C 328.597 115.968 335.296 116.736 338.987 121.323 L 374.208 165.355 L 440.448 99.115 C 444.608 94.955 451.371 94.955 455.531 99.115 C 459.691 103.275 459.691 110.037 455.531 114.197 L 380.864 188.864 C 378.88 190.891 376.149 192 373.333 192 Z " fill-rule="evenodd" fill="rgb(255,255,255)"/></g></svg>