<?xml version="1.0" encoding="UTF-8" standalone="no"?><!-- Generator: Gravit.io --><svg xmlns="http://www.w3.org/2000/svg" xmlns:xlink="http://www.w3.org/1999/xlink" style="isolation:isolate" viewBox="0 0 512 319.992" width="512pt" height="319.992pt"><defs><clipPath id="_clipPath_qnJnaDjBrzNT98dCPR3qisr2bZ6BDOmN"><rect width="512" height="319.992"/></clipPath></defs><g clip-path="url(#_clipPath_qnJnaDjBrzNT98dCPR3qisr2bZ6BDOmN)"><path d=" M 364.108 57.942 C 348.293 51.977 325.644 43.038 303.019 32.91 C 264.527 15.703 239.706 20.952 212.197 42.66 L 126.866 42.66 L 126.866 42.66 C 127.32 39.252 127.688 35.993 127.957 32.911 C 128.235 29.668 127.04 26.468 124.672 24.25 L 124.672 24.25 C 106.389 6.927 33.28 1.316 11.307 0.015 C 8.278 -0.134 5.483 0.868 3.35 2.895 C 1.216 4.9 0 7.716 0 10.66 L 0 202.66 C 0 208.548 4.779 213.327 10.667 213.327 L 74.667 213.327 C 79.275 213.327 83.371 210.362 84.8 205.967 C 85.024 205.278 85.979 202.349 87.294 198.192 C 89.642 200.595 92.363 203.445 95.189 206.392 C 104.704 216.333 114.538 226.616 121.152 232.163 C 160.875 265.422 208.619 301.326 218.133 307.576 C 225.984 312.739 242.901 319.992 256 319.992 C 266.517 319.992 274.603 317.581 280.213 312.867 C 287.722 315.79 296.256 315.811 304.469 312.611 C 314.176 308.856 322.154 301.283 326.677 292.11 C 335.082 293.902 344.704 292.643 353.45 288.249 C 362.005 283.94 368.191 277.348 371.263 269.646 C 379.754 270.094 388.5 267.086 395.732 260.878 C 405.487 252.535 409.61 240.498 407.305 228.517 L 424.186 217.178 C 425.375 221.013 426.344 224.274 427.05 226.831 C 428.33 231.46 432.533 234.66 437.333 234.66 L 501.333 234.66 C 507.221 234.66 512 229.881 512 223.993 L 512 31.993 C 512 26.084 507.221 21.327 501.333 21.327 L 501.333 21.327 C 417.578 21.327 371.114 42.767 369.173 43.663 C 366.4 44.964 364.33 47.375 363.477 50.298 C 362.732 52.85 362.963 55.565 364.108 57.942 Z  M 376.955 85.453 C 366.259 81.635 330.246 68.487 294.294 52.409 C 256.534 35.534 238.657 44.217 203.99 78.905 C 189.42 93.476 178.177 115.279 180.417 124.644 C 180.737 126.009 181.334 127.439 184.662 128.548 C 195.094 132.046 210.71 133.966 225.793 111.417 C 227.564 108.772 230.422 107.065 233.601 106.745 C 240.791 106.02 242.583 105.209 247.916 102.82 C 251.414 101.263 255.852 99.258 263.041 96.655 C 266.902 95.268 271.275 96.207 274.198 99.151 C 285.867 110.82 304.171 125.625 323.542 141.284 C 352.91 165.042 383.149 189.503 397.862 209.157 L 417.351 196.066 C 406.4 163.224 389.479 115.904 376.955 85.453 Z  M 123.316 63.994 L 188.736 63.994 C 174.163 78.652 154.539 108.013 159.637 129.572 C 161.834 138.788 168.32 145.615 177.962 148.793 C 202.133 156.772 224.191 149.134 240.618 127.332 C 247.402 126.287 251.093 124.751 256.639 122.255 C 258.644 121.359 260.991 120.314 264.106 119.055 C 276.309 130.511 292.778 143.844 310.122 157.86 C 341.482 183.225 377.045 211.983 385.045 228.623 C 388.992 236.836 384.746 242.191 381.866 244.644 C 377.831 248.108 372.375 249.314 369.164 247.496 C 361.307 241.228 327.399 206.513 306.389 184.613 C 302.314 180.346 295.552 180.197 291.306 184.293 C 287.039 188.368 286.911 195.13 290.986 199.376 C 295.933 204.534 335.792 246.082 351.794 260.672 C 350.571 265.304 346.074 268.065 343.893 269.156 C 337.164 272.562 330.145 272.031 327.393 269.644 C 327.17 269.42 326.93 269.208 326.677 269.007 C 313.898 258.788 281.792 224.676 274.538 216.783 C 270.527 212.431 263.807 212.175 259.455 216.143 C 255.124 220.132 254.826 226.895 258.815 231.226 C 259.162 231.591 290.448 265.368 308.171 281.249 C 306.172 286.314 301.938 290.687 296.788 292.686 C 293.575 293.903 288.936 294.646 284.744 290.96 C 284.578 290.798 284.404 290.642 284.224 290.49 C 269.013 277.669 237.888 244.538 231.808 238.031 C 227.776 233.722 221.013 233.487 216.725 237.519 C 212.416 241.551 212.202 248.292 216.213 252.602 C 223.428 260.326 244.955 283.163 261.091 298.363 C 259.741 298.549 258.064 298.659 255.999 298.659 C 248.895 298.659 236.116 293.859 229.866 289.72 C 222.378 284.792 175.423 249.763 134.869 215.8 C 129.173 211 119.317 200.717 110.613 191.629 C 104.238 184.972 98.315 178.825 94.439 175.2 C 103.399 145.583 116.24 100.617 123.316 63.994 L 123.316 63.994 Z  M 66.88 191.994 L 21.333 191.994 L 21.333 22.095 C 55.616 24.804 92.608 30.692 106.048 37.22 C 100.395 83.94 74.816 166.948 66.88 191.994 L 66.88 191.994 L 66.88 191.994 Z  M 490.667 213.327 L 445.312 213.327 C 435.2 180.388 405.333 94.5 388.672 59.002 C 404.949 53.477 439.915 43.983 490.667 42.789 L 490.667 213.327 L 490.667 213.327 L 490.667 213.327 Z " fill-rule="evenodd" fill="rgb(255,255,255)"/></g></svg>