
<svg xmlns="http://www.w3.org/2000/svg" xmlns:xlink="http://www.w3.org/1999/xlink" style="isolation:isolate" viewBox="0 0 512 512" width="512pt" height="512pt"><defs><clipPath id="_clipPath_0ON1lheTgLD06ZWJkJea4K62Yjrg3R85"><rect width="512" height="512"/></clipPath></defs><g clip-path="url(#_clipPath_0ON1lheTgLD06ZWJkJea4K62Yjrg3R85)"><path d=" M 437.333 512 L 181.333 512 C 151.936 512 128 488.085 128 458.667 L 128 138.667 C 128 109.248 151.936 85.333 181.333 85.333 L 437.333 85.333 C 466.731 85.333 490.667 109.248 490.667 138.667 L 490.667 458.667 C 490.667 488.085 466.731 512 437.333 512 Z  M 181.333 106.667 C 163.691 106.667 149.333 121.024 149.333 138.667 L 149.333 458.667 C 149.333 476.309 163.691 490.667 181.333 490.667 L 437.333 490.667 C 454.976 490.667 469.333 476.309 469.333 458.667 L 469.333 138.667 C 469.333 121.024 454.976 106.667 437.333 106.667 L 181.333 106.667 Z  M 96 448 L 74.667 448 C 45.269 448 21.333 424.085 21.333 394.667 L 21.333 53.333 C 21.333 23.915 45.269 0 74.667 0 L 330.667 0 C 360.064 0 384 23.915 384 53.333 C 384 59.221 379.221 64 373.333 64 C 367.445 64 362.667 59.221 362.667 53.333 C 362.667 35.691 348.309 21.333 330.667 21.333 L 74.667 21.333 C 57.024 21.333 42.667 35.691 42.667 53.333 L 42.667 394.667 C 42.667 412.309 57.024 426.667 74.667 426.667 L 96 426.667 C 101.888 426.667 106.667 431.445 106.667 437.333 C 106.667 443.221 101.888 448 96 448 Z  M 394.667 362.667 L 224 362.667 C 218.112 362.667 213.333 357.888 213.333 352 C 213.333 346.112 218.112 341.333 224 341.333 L 394.667 341.333 C 400.555 341.333 405.333 346.112 405.333 352 C 405.333 357.888 400.555 362.667 394.667 362.667 Z  M 394.667 448 L 224 448 C 218.112 448 213.333 443.221 213.333 437.333 C 213.333 431.445 218.112 426.667 224 426.667 L 394.667 426.667 C 400.555 426.667 405.333 431.445 405.333 437.333 C 405.333 443.221 400.555 448 394.667 448 Z  M 394.667 277.333 L 224 277.333 C 218.112 277.333 213.333 272.555 213.333 266.667 C 213.333 260.779 218.112 256 224 256 L 394.667 256 C 400.555 256 405.333 260.779 405.333 266.667 C 405.333 272.555 400.555 277.333 394.667 277.333 Z  M 394.667 192 L 224 192 C 218.112 192 213.333 187.221 213.333 181.333 C 213.333 175.445 218.112 170.667 224 170.667 L 394.667 170.667 C 400.555 170.667 405.333 175.445 405.333 181.333 C 405.333 187.221 400.555 192 394.667 192 Z " fill-rule="evenodd" fill="rgb(255,255,255)"/></g></svg>