<?xml version="1.0" encoding="UTF-8" standalone="no"?><!-- Generator: Gravit.io --><svg xmlns="http://www.w3.org/2000/svg" xmlns:xlink="http://www.w3.org/1999/xlink" style="isolation:isolate" viewBox="0 0 512 512" width="512pt" height="512pt"><defs><clipPath id="_clipPath_6WTqMf6BE22JpKwU2xHf9x7s1D97PwgO"><rect width="512" height="512"/></clipPath></defs><g clip-path="url(#_clipPath_6WTqMf6BE22JpKwU2xHf9x7s1D97PwgO)"><path d=" M 266.667 382.651 L 266.667 382.651 C 285.051 377.904 298.667 361.182 298.667 341.333 C 298.667 317.803 279.531 298.667 256 298.667 C 232.469 298.667 213.333 317.803 213.333 341.333 C 213.333 361.182 226.949 377.904 245.333 382.651 L 245.333 437.333 C 245.333 443.221 250.112 448 256 448 C 261.888 448 266.667 443.221 266.667 437.333 L 266.667 382.651 Z  M 373.333 64 C 370.603 64 367.872 62.955 365.781 60.885 C 361.621 56.725 361.621 49.963 365.781 45.803 L 387.115 24.469 C 391.275 20.309 398.037 20.309 402.197 24.469 C 406.357 28.629 406.357 35.392 402.197 39.552 L 380.864 60.885 C 378.795 62.955 376.064 64 373.333 64 L 373.333 64 L 373.333 64 L 373.333 64 L 373.333 64 Z  M 416 106.667 L 394.667 106.667 C 388.779 106.667 384 101.888 384 96 C 384 90.112 388.779 85.333 394.667 85.333 L 416 85.333 C 421.888 85.333 426.667 90.112 426.667 96 C 426.667 101.888 421.888 106.667 416 106.667 L 416 106.667 L 416 106.667 L 416 106.667 Z  M 330.667 42.667 C 324.779 42.667 320 37.888 320 32 L 320 10.667 C 320 4.779 324.779 0 330.667 0 C 336.555 0 341.333 4.779 341.333 10.667 L 341.333 32 C 341.333 37.888 336.555 42.667 330.667 42.667 L 330.667 42.667 L 330.667 42.667 Z  M 256 320 C 244.224 320 234.667 329.579 234.667 341.333 C 234.667 353.088 244.224 362.667 256 362.667 L 256 362.667 C 267.776 362.667 277.333 353.088 277.333 341.333 C 277.333 329.579 267.776 320 256 320 L 256 320 L 256 320 Z  M 128 256 C 116.224 256 106.667 265.579 106.667 277.333 L 106.667 469.333 C 106.667 481.088 116.224 490.667 128 490.667 L 384 490.667 C 395.776 490.667 405.333 481.088 405.333 469.333 L 405.333 277.333 C 405.333 265.579 395.776 256 384 256 L 373.333 256 L 138.667 256 L 128 256 L 128 256 L 128 256 L 128 256 L 128 256 L 128 256 L 128 256 L 128 256 Z  M 149.333 234.667 L 362.667 234.667 L 362.667 234.667 L 362.667 192 C 362.667 175.573 358.784 159.253 351.445 144.768 C 348.779 139.52 350.891 133.099 356.139 130.432 C 361.429 127.787 367.808 129.856 370.496 135.125 C 379.307 152.576 384 172.245 384 192 L 384 234.667 L 384 234.667 C 407.531 234.667 426.667 253.803 426.667 277.333 L 426.667 469.333 C 426.667 492.864 407.531 512 384 512 L 384 512 L 128 512 C 104.469 512 85.333 492.864 85.333 469.333 L 85.333 277.333 C 85.333 253.803 104.469 234.667 128 234.667 L 128 192 C 128 121.408 185.408 64 256 64 C 271.701 64 286.827 66.752 300.971 72.171 C 306.475 74.283 309.227 80.448 307.115 85.952 C 305.003 91.435 298.837 94.187 293.333 92.096 C 281.643 87.595 269.077 85.333 256 85.333 C 197.184 85.333 149.333 133.184 149.333 192 L 149.333 234.667 L 149.333 234.667 L 149.333 234.667 L 149.333 234.667 L 149.333 234.667 L 149.333 234.667 Z " fill-rule="evenodd" fill="rgb(255,255,255)"/></g></svg>