<svg width="29" height="29" viewBox="0 0 29 29" fill="none" xmlns="http://www.w3.org/2000/svg">
<path d="M28.4 14.5C28.4 22.1768 22.1768 28.4 14.5 28.4C6.82324 28.4 0.6 22.1768 0.6 14.5C0.6 6.82324 6.82324 0.6 14.5 0.6C22.1768 0.6 28.4 6.82324 28.4 14.5Z" stroke="white" stroke-width="1.2"/>
<g clip-path="url(#clip0_543_31)">
<path d="M9.36458 23H19.6354C21.4905 23 23 21.4905 23 19.6354V9.36458C23 7.50946 21.4905 6 19.6354 6H9.36458C7.50946 6 6 7.50946 6 9.36458V19.6354C6 21.4905 7.50946 23 9.36458 23ZM7.0625 9.36458C7.0625 8.09525 8.09525 7.0625 9.36458 7.0625H19.6354C20.9047 7.0625 21.9375 8.09525 21.9375 9.36458V19.6354C21.9375 20.9047 20.9047 21.9375 19.6354 21.9375H9.36458C8.09525 21.9375 7.0625 20.9047 7.0625 19.6354V9.36458Z" fill="white"/>
<path d="M14.5003 18.8424C16.8945 18.8424 18.8424 16.8945 18.8424 14.5003C18.8424 12.1061 16.8945 10.1582 14.5003 10.1582C12.1061 10.1582 10.1582 12.1061 10.1582 14.5003C10.1582 16.8945 12.1061 18.8424 14.5003 18.8424ZM14.5003 11.2207C16.3087 11.2207 17.7799 12.6919 17.7799 14.5003C17.7799 16.3087 16.3087 17.7799 14.5003 17.7799C12.6919 17.7799 11.2207 16.3087 11.2207 14.5003C11.2207 12.6919 12.6919 11.2207 14.5003 11.2207Z" fill="white"/>
<path d="M19.0033 11.2149C19.7017 11.2149 20.228 10.6908 20.228 9.9959C20.228 9.27127 19.6741 8.77686 19.004 8.77686C18.3056 8.77686 17.7793 9.30102 17.7793 9.9959C17.7793 10.7191 18.3304 11.2149 19.0033 11.2149ZM19.1287 9.87902C19.3525 10.0766 18.8418 10.3168 18.8418 9.99661C18.8418 9.80536 19.1018 9.85494 19.1287 9.87902Z" fill="white"/>
</g>
<defs>
<clipPath id="clip0_543_31">
<rect width="17" height="17" fill="white" transform="translate(6 6)"/>
</clipPath>
</defs>
</svg>
