<svg width="16" height="19" viewBox="0 0 16 19" fill="none" xmlns="http://www.w3.org/2000/svg">
<path d="M7.52357 0.0825195C3.37527 0.0825195 0 3.17899 0 6.98502C0 7.97778 0.22149 8.92564 0.657988 9.80251C2.53909 13.5788 6.14568 17.5658 7.20649 18.6976C7.28597 18.7822 7.40184 18.831 7.52378 18.831C7.64571 18.831 7.76158 18.7822 7.84106 18.6976C8.90145 17.566 12.508 13.5792 14.3898 9.80251C14.8265 8.92564 15.0478 7.97778 15.0478 6.98502C15.0473 3.17899 11.6721 0.0825195 7.52357 0.0825195ZM7.52357 10.5702C5.36869 10.5702 3.61538 8.96171 3.61538 6.98483C3.61538 5.00775 5.36869 3.39927 7.52357 3.39927C9.67844 3.39927 11.4318 5.00775 11.4318 6.98483C11.432 8.96171 9.67865 10.5702 7.52357 10.5702Z" fill="white"/>
</svg>
