<svg width="314" height="60" viewBox="0 0 314 60" fill="none" xmlns="http://www.w3.org/2000/svg">
<g clip-path="url(#clip0_535_113)">
<path d="M27.2392 32.8033L26.986 32.731L26.9878 32.7244L26.406 32.5267C26.1898 32.4474 25.974 32.3625 25.7609 32.2704L22.9139 35.3151L19.9089 33.3326L21.5858 29.5142L21.4753 29.4081C21.2344 29.1654 21.0177 28.9342 20.8024 28.6912C20.595 28.4582 20.3902 28.2143 20.1718 27.9395L20.0767 27.8153L16.0865 29.0302L14.4756 25.8077L17.8365 23.3403L17.7938 23.1902C17.7057 22.8502 17.6313 22.5407 17.5688 22.232C17.5058 21.9241 17.4499 21.6093 17.3992 21.2649L17.3803 21.113L13.3184 20.1693L13.5311 16.5738L17.6753 16.118L17.7123 15.97C17.8092 15.6221 17.9008 15.3143 17.9964 15.0281C18.0968 14.7234 18.2055 14.4279 18.3324 14.1047L18.3936 13.9598L15.3484 11.112L17.3305 8.10695L21.1476 9.78473C21.3779 9.54341 21.6087 9.32103 21.8447 9.10745C22.1266 8.85468 22.4181 8.61293 22.7255 8.36721L22.8479 8.27561L21.6351 4.28462L24.8551 2.67334L27.3233 6.0355L27.4717 5.99234C27.8143 5.90383 28.1257 5.82985 28.4308 5.76688C28.7466 5.70214 29.0588 5.64666 29.3979 5.59646L29.5511 5.57708L30.4944 1.51519L34.09 1.72921L34.5449 5.8752L34.6915 5.90999C35.0403 6.00731 35.3459 6.09935 35.6348 6.19579C35.9364 6.29575 36.2354 6.40496 36.56 6.5309L36.7031 6.59299L39.551 3.5479L42.5573 5.52864L40.8791 9.34657L40.9879 9.45093C41.2301 9.69621 41.4485 9.9274 41.663 10.1709C41.884 10.4188 42.0879 10.6619 42.2966 10.9253L42.3874 11.0468L46.3784 9.83317L47.991 13.0535L44.6288 15.5204L44.6707 15.6688C44.7596 16.0101 44.8323 16.3192 44.8957 16.6279C44.96 16.9397 45.015 17.2524 45.0665 17.5958L45.0842 17.7478L49.1483 18.6923L48.9343 22.2883L44.7878 22.7428L44.7526 22.8903C44.6552 23.2417 44.5628 23.5456 44.4685 23.8336C44.3686 24.1343 44.2585 24.4333 44.1316 24.7592L44.0709 24.901L47.116 27.7501L45.1348 30.7551L41.3168 29.0774L41.2103 29.1879C40.9654 29.4279 40.7329 29.6463 40.492 29.8616C40.2586 30.0704 40.012 30.2747 39.7364 30.4944L39.6157 30.5852L40.8307 34.5757L37.6107 36.1874L35.1433 32.8262L34.9958 32.8684C34.6519 32.9587 34.3463 33.0314 34.0371 33.0943C33.7302 33.1577 33.4197 33.2119 33.0666 33.2652L32.9146 33.2837L31.9709 37.3451L28.3749 37.132L27.9205 32.9869L27.4937 32.8733L27.4929 32.8799L27.2392 32.8033ZM37.8018 17.8006C37.7384 17.5404 37.6574 17.2832 37.564 17.037C37.4698 16.7909 37.3593 16.5443 37.2342 16.3038C37.1118 16.0682 36.9766 15.8362 36.8299 15.6239L36.6261 15.3421C36.464 15.1272 36.2887 14.9246 36.1086 14.7357C35.9223 14.5415 35.7233 14.3601 35.5177 14.1914C35.3076 14.0206 35.0874 13.8616 34.8686 13.7216C34.6501 13.5815 34.4145 13.4494 34.1662 13.331L33.8601 13.194C33.6126 13.0883 33.3572 13.0002 33.1071 12.9267C32.849 12.8518 32.5848 12.7946 32.3228 12.7519C32.0617 12.7061 31.7922 12.6814 31.5231 12.6691C31.2575 12.6563 30.9902 12.6598 30.7221 12.6814L30.3817 12.7118C30.113 12.7514 29.8501 12.7999 29.6 12.862C29.3433 12.9249 29.0843 13.0051 28.8391 13.1006C28.5929 13.1949 28.3445 13.3041 28.1072 13.4296C27.8707 13.5511 27.6391 13.6863 27.4259 13.8316L27.1432 14.0382C26.9305 14.1958 26.7284 14.3728 26.5399 14.5543C26.3395 14.7511 26.1546 14.9484 25.9912 15.1474C25.8239 15.3566 25.6649 15.5719 25.524 15.7943C25.3831 16.0145 25.254 16.2492 25.1343 16.4936L24.9894 16.8133C24.8938 17.0445 24.8062 17.2938 24.7326 17.5522C24.6538 17.8191 24.5966 18.082 24.5552 18.3392C24.5107 18.6007 24.4821 18.8711 24.4719 19.1402C24.4605 19.4075 24.4645 19.6726 24.4821 19.9381L24.5182 20.282C24.5517 20.5485 24.5997 20.8105 24.6635 21.0624C24.7256 21.3182 24.8071 21.5785 24.9035 21.8237C24.9947 22.0699 25.1056 22.3147 25.2298 22.5525C25.3496 22.7895 25.4866 23.0206 25.6341 23.2364L25.8468 23.5284C26.0079 23.742 26.181 23.9454 26.362 24.1312C26.5452 24.3197 26.742 24.502 26.949 24.6724C27.1564 24.8402 27.3779 24.9974 27.5985 25.1397C27.8174 25.2793 28.0543 25.41 28.3014 25.532L28.6189 25.6747C28.8567 25.7742 29.1037 25.8623 29.3644 25.9341C29.6203 26.0089 29.8836 26.0662 30.1461 26.1107C30.4059 26.1538 30.6714 26.1794 30.9409 26.1912C31.2078 26.2045 31.4742 26.1996 31.7384 26.1816L32.0454 26.1498L32.0678 26.1459C32.3431 26.1107 32.6086 26.0613 32.8622 25.9992C33.1221 25.9336 33.3797 25.8539 33.6267 25.7606C33.872 25.6668 34.1186 25.558 34.3582 25.4321C34.5946 25.3096 34.8285 25.1714 35.0443 25.0247L35.319 24.8257C35.5357 24.6619 35.7396 24.4879 35.9298 24.3083C36.1201 24.1207 36.3028 23.9203 36.4728 23.7151C36.6423 23.5072 36.8009 23.2879 36.9405 23.0647C37.0801 22.8489 37.2122 22.6124 37.3324 22.3663L37.4694 22.0633C37.5728 21.8105 37.664 21.5538 37.7367 21.2988C37.8102 21.0447 37.8688 20.7823 37.911 20.519C37.9533 20.2565 37.9819 19.9879 37.9947 19.7228C38.0048 19.4559 38.0031 19.1838 37.9837 18.9244L37.9502 18.5884C37.9154 18.3224 37.8644 18.0582 37.8018 17.8006Z" fill="#D42035"/>
<path d="M51.2637 2.5466V9.33118H59.0876V30.4355H66.7168V9.33118H74.5601V2.5466H51.2637ZM85.3414 24.0558V19.2889H96.1833V13.301H85.3414V8.92627H99.4019V2.5466H77.7123V30.4355H99.7903V24.0558H85.3414ZM114.808 21.0817L120.436 30.4355H128.862L119.633 15.8902L128.059 2.5466H119.633L114.808 10.7122L109.983 2.5466H101.55L109.983 15.8902L100.748 30.4355H109.18L114.808 21.0817ZM137.649 16.488C137.649 14.2109 138.399 12.3122 139.905 10.798C141.41 9.29155 143.271 8.53444 145.493 8.53444C147.715 8.53444 149.575 9.29155 151.074 10.798C152.567 12.3122 153.316 14.2109 153.316 16.488C153.316 18.7712 152.567 20.6699 151.074 22.1906C149.575 23.7041 147.715 24.4669 145.493 24.4669C143.271 24.4669 141.41 23.7041 139.905 22.1906C138.399 20.6699 137.649 18.7712 137.649 16.488ZM161.139 16.488C161.139 12.4581 159.621 8.99287 156.582 6.09191C153.544 3.19707 149.843 1.75026 145.486 1.75026C141.123 1.75026 137.422 3.19707 134.384 6.09191C131.345 8.99287 129.826 12.4581 129.826 16.488C129.826 20.524 131.345 23.9892 134.384 26.8841C137.422 29.7851 141.123 31.2319 145.486 31.2319C149.843 31.2319 153.544 29.7851 156.582 26.8841C159.621 23.9892 161.139 20.524 161.139 16.488ZM171.138 16.488C171.138 14.2109 171.901 12.3122 173.434 10.798C174.959 9.29155 176.873 8.53444 179.176 8.53444C180.025 8.53444 180.862 8.66069 181.699 8.91279C182.529 9.1653 183.198 9.45049 183.706 9.76919C184.215 10.0879 184.703 10.4528 185.179 10.8581C185.647 11.2699 185.948 11.5551 186.076 11.7145C186.209 11.8804 186.309 12.0132 186.39 12.1128L191.021 7.33279L190.566 6.76893C190.278 6.3771 189.803 5.91254 189.147 5.3683C188.485 4.82365 187.715 4.27941 186.832 3.73477C185.948 3.19053 184.831 2.71902 183.472 2.33413C182.113 1.9427 180.681 1.75026 179.176 1.75026C174.812 1.75026 171.104 3.19707 168.067 6.09191C165.028 8.99287 163.509 12.4581 163.509 16.488C163.509 20.524 165.028 23.9892 168.067 26.8841C171.104 29.7851 174.812 31.2319 179.176 31.2319C180.694 31.2319 182.154 31.0333 183.559 30.6415C184.965 30.2427 186.095 29.7981 186.952 29.307C187.809 28.8155 188.605 28.2447 189.341 27.6073C190.078 26.9634 190.553 26.5188 190.754 26.2663C190.954 26.0077 191.108 25.8083 191.215 25.6493L186.805 20.8689L185.962 21.7588C185.399 22.3696 184.483 22.9735 183.218 23.5713C181.946 24.1686 180.601 24.4669 179.176 24.4669C176.873 24.4669 174.959 23.7041 173.434 22.1906C171.901 20.6699 171.138 18.7712 171.138 16.488ZM209.841 23.664L217.684 13.9049V30.4355H225.313V2.5466H218.487L209.841 13.5139L201.214 2.5466H194.388V30.4355H202.017V13.9049L209.841 23.664ZM237.092 16.488C237.092 14.2109 237.842 12.3122 239.347 10.798C240.853 9.29155 242.714 8.53444 244.935 8.53444C247.157 8.53444 249.018 9.29155 250.517 10.798C252.01 12.3122 252.758 14.2109 252.758 16.488C252.758 18.7712 252.01 20.6699 250.517 22.1906C249.018 23.7041 247.157 24.4669 244.935 24.4669C242.714 24.4669 240.853 23.7041 239.347 22.1906C237.842 20.6699 237.092 18.7712 237.092 16.488ZM260.582 16.488C260.582 12.4581 259.063 8.99287 256.025 6.09191C252.986 3.19707 249.285 1.75026 244.929 1.75026C240.565 1.75026 236.864 3.19707 233.826 6.09191C230.788 8.99287 229.268 12.4581 229.268 16.488C229.268 20.524 230.788 23.9892 233.826 26.8841C236.864 29.7851 240.565 31.2319 244.929 31.2319C249.285 31.2319 252.986 29.7851 256.025 26.8841C259.063 23.9892 260.582 20.524 260.582 16.488ZM262.148 2.5466V9.33118H269.972V30.4355H277.601V9.33118H285.444V2.5466H262.148ZM288.597 2.5466V30.4355H296.226V22.0705H301.245C304.317 22.0705 306.826 21.1483 308.767 19.3023C310.708 17.4502 311.678 15.12 311.678 12.3122C311.678 9.49707 310.708 7.1669 308.774 5.31477C306.839 3.46959 304.33 2.5466 301.245 2.5466H288.597ZM300.836 9.33118C301.72 9.33118 302.483 9.62986 303.105 10.2276C303.735 10.825 304.049 11.522 304.049 12.3188C304.049 13.1151 303.735 13.8122 303.105 14.4099C302.483 15.0073 301.72 15.306 300.836 15.306H296.226V9.33118H300.836Z" fill="#244082"/>
<path d="M16.0394 35.1586C16.194 35.3094 16.3372 35.459 16.4723 35.6133C16.607 35.7676 16.7367 35.9267 16.8651 36.0963L17.0614 36.3756C17.1961 36.5892 17.3249 36.7958 17.444 37.0176L20.4635 37.3833L20.8613 41.0657L17.9787 41.9827C17.9069 42.2414 17.8224 42.483 17.7253 42.7174C17.6172 42.9841 17.4858 43.2511 17.3325 43.5335C17.2008 43.762 17.0614 43.9804 16.9047 44.196L18.0758 46.8118L14.8464 48.9721L12.5508 47.1087C12.0862 47.23 11.6969 47.2799 11.2171 47.3353C10.7501 47.3631 10.4148 47.3777 9.95444 47.3502L8.10136 49.6028L4.47376 48.0826L5.06161 45.301C4.90113 45.1518 4.75037 45.0002 4.60636 44.8431C4.43237 44.6523 4.27147 44.4595 4.11395 44.2517L3.91885 43.9741C3.78371 43.7601 3.65449 43.5543 3.53793 43.3308L0.515909 42.9656L0.117676 39.2824L3.00245 38.3658C3.12027 37.9515 3.24232 37.6613 3.41968 37.2584C3.63041 36.8484 3.8006 36.5287 4.07425 36.1521L2.90363 33.5359L6.133 31.3764L8.42696 33.2386C8.6947 33.1734 8.97216 33.1122 9.2437 33.0737C9.45063 33.0446 9.64447 33.0191 9.88138 33.0018L10.2357 32.9826L10.5892 32.979L11.0254 32.9971L12.8781 30.7449L16.5052 32.2655L15.9174 35.0478L16.0394 35.1586ZM15.4719 35.8784L14.8933 35.351L15.4364 32.7795L13.1733 31.8307L11.4595 33.9145C11.161 33.8866 10.878 33.8662 10.5769 33.8563L9.96669 33.8744L9.38602 33.9384L9.14235 33.98L8.79859 34.0547L8.20483 34.2212L6.07641 32.4928L4.06032 33.8422L5.14311 36.2625L4.79218 36.7314L4.48178 37.223L4.28119 37.6146L4.10086 38.0245C3.97079 38.3689 3.88633 38.6847 3.80102 39.0385L1.12825 39.8887L1.37614 42.1849L4.17814 42.5242C4.29977 42.7775 4.42181 43.0155 4.56118 43.2617L4.88086 43.7408L5.27909 44.2152C5.41128 44.3648 5.54641 44.5082 5.7014 44.6574L6.08739 44.9947L5.54304 47.5689L7.80659 48.5173L9.52031 46.4332C9.91305 46.4717 10.2623 46.4941 10.6593 46.4909L11.1263 46.4623L11.5993 46.4085L12.1711 46.2966L12.778 46.1312L14.9026 47.8552L16.9191 46.5067L15.8355 44.0864L16.1881 43.6159L16.4964 43.1301C16.6526 42.8403 16.7751 42.5788 16.8777 42.3098C16.9803 42.0439 17.0661 41.7643 17.1501 41.4352L17.1826 41.3088L19.8512 40.4597L19.6033 38.1636L16.8038 37.8243C16.6809 37.5717 16.5576 37.3322 16.4178 37.0864C16.292 36.8888 16.1704 36.696 16.0213 36.5122C15.8435 36.2927 15.6856 36.0987 15.4719 35.8784ZM10.0038 36.4329L9.98949 36.4356C9.82479 36.4549 9.66474 36.482 9.5144 36.5173C9.35814 36.5535 9.20442 36.5978 9.0562 36.6501C8.91008 36.7019 8.76185 36.7628 8.61827 36.8327C8.47679 36.9014 8.33701 36.9776 8.20821 37.0597L8.04266 37.1704C7.91386 37.2611 7.79097 37.3593 7.67821 37.4606C7.56335 37.5631 7.45439 37.6742 7.35219 37.7901C7.25126 37.9044 7.15709 38.0265 7.07263 38.1494C6.98816 38.2712 6.90962 38.4027 6.83825 38.5402L6.75632 38.7082C6.6934 38.8488 6.63892 38.9926 6.59542 39.1332C6.55192 39.2753 6.51687 39.4218 6.49153 39.5679C6.46577 39.7136 6.44888 39.8628 6.44212 40.0113C6.43495 40.1593 6.43663 40.3101 6.44846 40.4562L6.46873 40.6427C6.489 40.7912 6.51941 40.9388 6.55699 41.0806C6.59584 41.2259 6.64357 41.3692 6.69973 41.5071C6.75548 41.6434 6.82178 41.7816 6.89652 41.9147C6.96916 42.0451 7.05067 42.1743 7.13808 42.2929L7.26055 42.45C7.35768 42.5698 7.46284 42.6832 7.57179 42.7881C7.68244 42.8953 7.8011 42.9966 7.92526 43.0913C8.049 43.1863 8.18076 43.2735 8.31294 43.3524C8.44301 43.4302 8.5849 43.5036 8.73271 43.57L8.91599 43.6466C9.06507 43.7043 9.21836 43.7546 9.36786 43.7946C9.52284 43.8358 9.68079 43.8688 9.83619 43.8924C9.99329 43.9167 10.1546 43.9317 10.3147 43.9387C10.4743 43.9454 10.6356 43.9431 10.7953 43.9317L10.9992 43.9136C11.161 43.8932 11.3185 43.8653 11.468 43.8307C11.6213 43.795 11.775 43.7506 11.9241 43.698C12.0706 43.6462 12.2184 43.5849 12.362 43.5154C12.5022 43.4478 12.6411 43.3721 12.7687 43.2908L12.9368 43.1773C13.0656 43.0877 13.1872 42.9896 13.2991 42.8894C13.4195 42.7802 13.5297 42.6691 13.6272 42.5588C13.729 42.4429 13.8228 42.3212 13.9076 42.1986C13.9921 42.0761 14.0702 41.945 14.1408 41.8095L14.2273 41.6308C14.286 41.5016 14.338 41.3637 14.3819 41.2192C14.4275 41.0708 14.463 40.9251 14.4883 40.7817C14.5132 40.6364 14.5301 40.486 14.5377 40.3368C14.5445 40.1876 14.5428 40.0387 14.5305 39.8919L14.5107 39.6998C14.4896 39.5518 14.4604 39.4057 14.422 39.2651C14.384 39.1226 14.3359 38.9796 14.2793 38.841C14.2239 38.7051 14.1585 38.5681 14.0842 38.4353C14.0111 38.3042 13.9292 38.1749 13.8409 38.0552L13.7147 37.8926C13.6184 37.7744 13.5136 37.6613 13.4055 37.5576C13.2957 37.452 13.1775 37.351 13.0537 37.2568C12.9296 37.1622 12.7982 37.0742 12.6661 36.9953C12.5351 36.9175 12.3924 36.8441 12.245 36.7773L12.0537 36.698C11.9127 36.6426 11.7628 36.5935 11.6086 36.5531C11.4549 36.5118 11.297 36.4796 11.1411 36.4553C10.9861 36.4317 10.8252 36.416 10.6648 36.4101C10.5051 36.403 10.3442 36.405 10.1871 36.416L10.0038 36.4329ZM9.86871 35.5654L10.1158 35.5422C10.3121 35.5285 10.5119 35.5257 10.707 35.5336C10.8979 35.5411 11.0955 35.5603 11.294 35.5909C11.4861 35.6204 11.6808 35.6608 11.8717 35.7115C12.0613 35.7618 12.2484 35.8222 12.427 35.8925L12.6488 35.986C12.8287 36.0665 13.0031 36.1572 13.1728 36.2577C13.3405 36.3575 13.5027 36.4655 13.6513 36.5798C13.8025 36.6948 13.949 36.8201 14.0863 36.9521C14.218 37.0785 14.3456 37.2152 14.4651 37.3609L14.6129 37.5498C14.7269 37.7061 14.8278 37.8655 14.9182 38.0269C15.0086 38.1883 15.0897 38.358 15.1598 38.5307C15.229 38.6996 15.289 38.8771 15.3367 39.0562C15.3844 39.2337 15.4208 39.4143 15.4457 39.593L15.4714 39.8263C15.4862 40.0109 15.4888 40.1962 15.4799 40.3757C15.4702 40.5567 15.4495 40.7417 15.4178 40.9235C15.3861 41.1026 15.3431 41.2825 15.289 41.4584C15.2354 41.6292 15.1699 41.8036 15.0918 41.9764L14.9921 42.1876C14.9034 42.3561 14.8059 42.5195 14.7012 42.6711C14.5947 42.8238 14.4782 42.9742 14.3553 43.1144C14.2307 43.2554 14.0956 43.3921 13.9533 43.5197C13.816 43.6438 13.6669 43.764 13.5073 43.8755L13.3135 44.0063C13.1441 44.1135 12.9731 44.207 12.8008 44.2914C12.6259 44.3762 12.4439 44.4512 12.2607 44.5164C12.0761 44.5812 11.8852 44.6366 11.6918 44.681C11.5018 44.7257 11.3071 44.7595 11.1145 44.7827L10.87 44.805C10.6664 44.8196 10.4671 44.8219 10.2724 44.8141C10.0778 44.8058 9.87885 44.787 9.68459 44.7575C9.49075 44.7281 9.29607 44.6872 9.10645 44.637C8.92064 44.5871 8.73229 44.5254 8.5507 44.4548L8.33025 44.3629C8.14993 44.282 7.97594 44.1916 7.80702 44.0915C7.64147 43.9933 7.48015 43.8849 7.32854 43.7683C7.17778 43.6536 7.03209 43.5295 6.89526 43.3976C6.76139 43.2703 6.63258 43.1313 6.51223 42.9837L6.36864 42.7995C6.25335 42.642 6.15158 42.4822 6.06121 42.322C5.97083 42.1602 5.89017 41.9909 5.82007 41.8181C5.75081 41.6492 5.69084 41.4721 5.64354 41.2934C5.59582 41.1159 5.55993 40.9345 5.53501 40.7554L5.50883 40.5178C5.49447 40.3352 5.49194 40.1518 5.50038 39.9716C5.50841 39.7909 5.52994 39.6068 5.56162 39.4269C5.59287 39.2478 5.63552 39.068 5.68958 38.8928C5.74321 38.7204 5.80909 38.5457 5.88553 38.3756L5.98941 38.1581C6.07387 37.9974 6.17058 37.8349 6.27869 37.6782C6.38131 37.5278 6.49702 37.3778 6.62456 37.234C6.74745 37.0938 6.88217 36.9576 7.02406 36.8303C7.16173 36.7058 7.31165 36.5853 7.47128 36.4729L7.67146 36.3398C7.83827 36.2334 8.00888 36.1395 8.18076 36.0559C8.35475 35.9715 8.53592 35.8972 8.72173 35.8317C8.90121 35.7676 9.09125 35.7131 9.28551 35.6679C9.47935 35.6231 9.67403 35.5886 9.86871 35.5654Z" fill="#244082"/>
</g>
<path d="M55.6455 55.2499H53.6474V47.4895H51.0885V45.8265H58.2044V47.4895H55.6455V55.2499ZM62.8674 47.9084C63.5334 47.9084 64.1071 48.0374 64.5883 48.2952C65.0696 48.5487 65.4413 48.9182 65.7034 49.4038C65.9655 49.8894 66.0966 50.4824 66.0966 51.1828V52.1367H61.4493C61.4708 52.6911 61.6363 53.1272 61.9456 53.4452C62.2593 53.7589 62.6933 53.9157 63.2477 53.9157C63.7074 53.9157 64.1285 53.8684 64.511 53.7739C64.8934 53.6794 65.2866 53.5376 65.6905 53.3485V54.8697C65.3339 55.0458 64.96 55.1747 64.569 55.2564C64.1823 55.338 63.7117 55.3789 63.1574 55.3789C62.4355 55.3789 61.7953 55.2456 61.2366 54.9792C60.6823 54.7128 60.2462 54.3067 59.9282 53.761C59.6145 53.2153 59.4577 52.5278 59.4577 51.6984C59.4577 50.8562 59.5995 50.1558 59.8831 49.5972C60.171 49.0343 60.5706 48.6132 61.0819 48.3339C61.5933 48.0502 62.1884 47.9084 62.8674 47.9084ZM62.8803 49.3071C62.4978 49.3071 62.1798 49.4296 61.9263 49.6745C61.6771 49.9195 61.5331 50.304 61.4945 50.8283H64.2532C64.2489 50.5361 64.1951 50.2761 64.092 50.0484C63.9932 49.8206 63.8428 49.6402 63.6408 49.5069C63.4432 49.3737 63.1896 49.3071 62.8803 49.3071ZM69.5671 51.5695L67.2467 48.0438H69.4769L70.8756 50.3384L72.2872 48.0438H74.5173L72.1711 51.5695L74.6269 55.2499H72.3903L70.8756 52.7813L69.3544 55.2499H67.1243L69.5671 51.5695ZM78.0846 48.0438V50.8154H80.8304V48.0438H82.7963V55.2499H80.8304V52.2785H78.0846V55.2499H76.1187V48.0438H78.0846ZM87.1563 48.0438V50.8927C87.1563 51.0388 87.1499 51.2236 87.137 51.4471C87.1284 51.6662 87.1155 51.8897 87.0983 52.1174C87.0811 52.3451 87.0639 52.5492 87.0467 52.7297C87.0295 52.9102 87.0166 53.0327 87.0081 53.0971L90.334 48.0438H92.6995V55.2499H90.798V52.3752C90.798 52.1389 90.8066 51.8789 90.8238 51.5953C90.841 51.3074 90.8603 51.0367 90.8818 50.7832C90.9033 50.5296 90.9184 50.3384 90.927 50.2095L87.6139 55.2499H85.2549V48.0438H87.1563ZM96.8919 48.0438V50.68C96.8919 50.9937 96.9671 51.2301 97.1175 51.389C97.2722 51.5437 97.4871 51.6211 97.7621 51.6211C98.1402 51.6211 98.4904 51.5781 98.8127 51.4922C99.1393 51.4062 99.468 51.2945 99.7989 51.157V48.0438H101.765V55.2499H99.7989V52.3881C99.4852 52.5514 99.1307 52.7018 98.7354 52.8393C98.3443 52.9768 97.8974 53.0456 97.3947 53.0456C96.6427 53.0456 96.0433 52.8543 95.5964 52.4719C95.1495 52.0852 94.926 51.5029 94.926 50.7252V48.0438H96.8919ZM107.195 47.9084C107.861 47.9084 108.434 48.0374 108.916 48.2952C109.397 48.5487 109.769 48.9182 110.031 49.4038C110.293 49.8894 110.424 50.4824 110.424 51.1828V52.1367H105.777C105.798 52.6911 105.964 53.1272 106.273 53.4452C106.587 53.7589 107.021 53.9157 107.575 53.9157C108.035 53.9157 108.456 53.8684 108.838 53.7739C109.221 53.6794 109.614 53.5376 110.018 53.3485V54.8697C109.661 55.0458 109.287 55.1747 108.896 55.2564C108.51 55.338 108.039 55.3789 107.485 55.3789C106.763 55.3789 106.123 55.2456 105.564 54.9792C105.01 54.7128 104.574 54.3067 104.256 53.761C103.942 53.2153 103.785 52.5278 103.785 51.6984C103.785 50.8562 103.927 50.1558 104.21 49.5972C104.498 49.0343 104.898 48.6132 105.409 48.3339C105.921 48.0502 106.516 47.9084 107.195 47.9084ZM107.208 49.3071C106.825 49.3071 106.507 49.4296 106.254 49.6745C106.004 49.9195 105.861 50.304 105.822 50.8283H108.581C108.576 50.5361 108.523 50.2761 108.419 50.0484C108.321 49.8206 108.17 49.6402 107.968 49.5069C107.771 49.3737 107.517 49.3071 107.208 49.3071ZM115.345 55.3789C114.631 55.3789 114.023 55.2499 113.521 54.9921C113.018 54.73 112.636 54.3261 112.373 53.7804C112.111 53.2346 111.98 52.5364 111.98 51.6855C111.98 50.8047 112.128 50.087 112.425 49.5327C112.726 48.9741 113.14 48.5637 113.669 48.3016C114.202 48.0395 114.818 47.9084 115.519 47.9084C116.017 47.9084 116.447 47.9579 116.808 48.0567C117.173 48.1512 117.491 48.2651 117.762 48.3983L117.182 49.9195C116.872 49.7948 116.584 49.6939 116.318 49.6165C116.052 49.5349 115.785 49.4941 115.519 49.4941C115.175 49.4941 114.889 49.5757 114.662 49.739C114.434 49.898 114.264 50.1386 114.152 50.4609C114.041 50.7832 113.985 51.1871 113.985 51.6727C113.985 52.1496 114.045 52.545 114.165 52.8586C114.286 53.1723 114.46 53.4065 114.687 53.5612C114.915 53.7116 115.192 53.7868 115.519 53.7868C115.927 53.7868 116.29 53.7331 116.608 53.6257C116.926 53.5139 117.235 53.3592 117.536 53.1616V54.8439C117.235 55.0329 116.92 55.1683 116.589 55.2499C116.262 55.3359 115.848 55.3789 115.345 55.3789ZM124.333 48.0438H126.498L123.643 51.4986L126.75 55.2499H124.52L121.574 51.5953V55.2499H119.608V48.0438H121.574V51.5437L124.333 48.0438ZM130.079 48.0438V50.8927C130.079 51.0388 130.072 51.2236 130.059 51.4471C130.051 51.6662 130.038 51.8897 130.021 52.1174C130.003 52.3451 129.986 52.5492 129.969 52.7297C129.952 52.9102 129.939 53.0327 129.93 53.0971L133.256 48.0438H135.622V55.2499H133.72V52.3752C133.72 52.1389 133.729 51.8789 133.746 51.5953C133.763 51.3074 133.783 51.0367 133.804 50.7832C133.826 50.5296 133.841 50.3384 133.849 50.2095L130.536 55.2499H128.177V48.0438H130.079ZM139.988 48.0438V50.8927C139.988 51.0388 139.982 51.2236 139.969 51.4471C139.96 51.6662 139.947 51.8897 139.93 52.1174C139.913 52.3451 139.896 52.5492 139.879 52.7297C139.861 52.9102 139.849 53.0327 139.84 53.0971L143.166 48.0438H145.531V55.2499H143.63V52.3752C143.63 52.1389 143.639 51.8789 143.656 51.5953C143.673 51.3074 143.692 51.0367 143.714 50.7832C143.735 50.5296 143.75 50.3384 143.759 50.2095L140.446 55.2499H138.087V48.0438H139.988ZM144.99 44.9435C144.943 45.399 144.814 45.8007 144.603 46.1488C144.393 46.4969 144.064 46.7676 143.617 46.9609C143.17 47.1543 142.569 47.251 141.812 47.251C141.035 47.251 140.429 47.1586 139.995 46.9738C139.561 46.7848 139.251 46.5184 139.067 46.1746C138.882 45.8265 138.77 45.4162 138.731 44.9435H140.491C140.53 45.4291 140.652 45.7513 140.858 45.9103C141.065 46.065 141.396 46.1424 141.851 46.1424C142.229 46.1424 142.539 46.0564 142.779 45.8845C143.02 45.7127 143.164 45.399 143.211 44.9435H144.99ZM158.37 51.634C158.37 52.2356 158.289 52.7684 158.125 53.2325C157.966 53.6966 157.732 54.0897 157.423 54.412C157.118 54.73 156.748 54.9706 156.314 55.1339C155.884 55.2972 155.399 55.3789 154.857 55.3789C154.35 55.3789 153.884 55.2972 153.459 55.1339C153.038 54.9706 152.67 54.73 152.356 54.412C152.047 54.0897 151.806 53.6966 151.635 53.2325C151.467 52.7684 151.383 52.2356 151.383 51.634C151.383 50.8347 151.525 50.1579 151.809 49.6036C152.092 49.0493 152.496 48.6282 153.02 48.3403C153.545 48.0524 154.17 47.9084 154.896 47.9084C155.571 47.9084 156.168 48.0524 156.688 48.3403C157.212 48.6282 157.623 49.0493 157.919 49.6036C158.22 50.1579 158.37 50.8347 158.37 51.634ZM153.388 51.634C153.388 52.1067 153.439 52.5041 153.542 52.8264C153.646 53.1487 153.807 53.3915 154.026 53.5548C154.245 53.718 154.531 53.7997 154.883 53.7997C155.231 53.7997 155.513 53.718 155.728 53.5548C155.947 53.3915 156.106 53.1487 156.204 52.8264C156.308 52.5041 156.359 52.1067 156.359 51.634C156.359 51.157 156.308 50.7617 156.204 50.448C156.106 50.13 155.947 49.8915 155.728 49.7325C155.508 49.5735 155.223 49.4941 154.87 49.4941C154.35 49.4941 153.972 49.6724 153.736 50.029C153.504 50.3857 153.388 50.9207 153.388 51.634ZM163.317 55.3789C162.603 55.3789 161.995 55.2499 161.493 54.9921C160.99 54.73 160.607 54.3261 160.345 53.7804C160.083 53.2346 159.952 52.5364 159.952 51.6855C159.952 50.8047 160.1 50.087 160.397 49.5327C160.698 48.9741 161.112 48.5637 161.641 48.3016C162.174 48.0395 162.79 47.9084 163.491 47.9084C163.989 47.9084 164.419 47.9579 164.78 48.0567C165.145 48.1512 165.463 48.2651 165.734 48.3983L165.154 49.9195C164.844 49.7948 164.556 49.6939 164.29 49.6165C164.024 49.5349 163.757 49.4941 163.491 49.4941C163.147 49.4941 162.861 49.5757 162.634 49.739C162.406 49.898 162.236 50.1386 162.124 50.4609C162.013 50.7832 161.957 51.1871 161.957 51.6727C161.957 52.1496 162.017 52.545 162.137 52.8586C162.258 53.1723 162.432 53.4065 162.659 53.5612C162.887 53.7116 163.164 53.7868 163.491 53.7868C163.899 53.7868 164.262 53.7331 164.58 53.6257C164.898 53.5139 165.207 53.3592 165.508 53.1616V54.8439C165.207 55.0329 164.892 55.1683 164.561 55.2499C164.234 55.3359 163.82 55.3789 163.317 55.3789ZM176.662 48.0438V55.2499H174.825V51.7113C174.825 51.3633 174.831 51.0217 174.844 50.6865C174.857 50.3513 174.877 50.0419 174.902 49.7583H174.864L172.872 55.2499H171.396L169.372 49.7454H169.32C169.355 50.0333 169.378 50.3427 169.391 50.6736C169.404 51.0045 169.411 51.3676 169.411 51.7629V55.2499H167.58V48.0438H170.365L172.156 52.9295L173.981 48.0438H176.662ZM185.676 51.634C185.676 52.2356 185.594 52.7684 185.431 53.2325C185.272 53.6966 185.038 54.0897 184.728 54.412C184.423 54.73 184.054 54.9706 183.62 55.1339C183.19 55.2972 182.704 55.3789 182.163 55.3789C181.656 55.3789 181.19 55.2972 180.764 55.1339C180.343 54.9706 179.976 54.73 179.662 54.412C179.353 54.0897 179.112 53.6966 178.94 53.2325C178.772 52.7684 178.689 52.2356 178.689 51.634C178.689 50.8347 178.83 50.1579 179.114 49.6036C179.398 49.0493 179.802 48.6282 180.326 48.3403C180.85 48.0524 181.475 47.9084 182.202 47.9084C182.876 47.9084 183.473 48.0524 183.993 48.3403C184.518 48.6282 184.928 49.0493 185.224 49.6036C185.525 50.1579 185.676 50.8347 185.676 51.634ZM180.693 51.634C180.693 52.1067 180.745 52.5041 180.848 52.8264C180.951 53.1487 181.112 53.3915 181.331 53.5548C181.551 53.718 181.836 53.7997 182.189 53.7997C182.537 53.7997 182.818 53.718 183.033 53.5548C183.252 53.3915 183.411 53.1487 183.51 52.8264C183.613 52.5041 183.665 52.1067 183.665 51.634C183.665 51.157 183.613 50.7617 183.51 50.448C183.411 50.13 183.252 49.8915 183.033 49.7325C182.814 49.5735 182.528 49.4941 182.176 49.4941C181.656 49.4941 181.278 49.6724 181.041 50.029C180.809 50.3857 180.693 50.9207 180.693 51.634ZM193.658 49.5198H191.299V55.2499H189.333V49.5198H186.968V48.0438H193.658V49.5198ZM199.41 47.9084C200.223 47.9084 200.878 48.2243 201.376 48.8559C201.879 49.4876 202.13 50.4136 202.13 51.634C202.13 52.4504 202.012 53.1379 201.776 53.6966C201.54 54.2509 201.213 54.6698 200.796 54.9534C200.379 55.237 199.9 55.3789 199.359 55.3789C199.011 55.3789 198.712 55.3359 198.463 55.2499C198.214 55.1597 198.001 55.0458 197.825 54.9083C197.649 54.7665 197.496 54.6161 197.367 54.4571H197.264C197.298 54.629 197.324 54.8052 197.341 54.9857C197.359 55.1661 197.367 55.3423 197.367 55.5142V58.4212H195.401V48.0438H197L197.277 48.9784H197.367C197.496 48.785 197.653 48.6067 197.838 48.4434C198.022 48.2801 198.244 48.1512 198.502 48.0567C198.764 47.9579 199.067 47.9084 199.41 47.9084ZM198.779 49.4812C198.435 49.4812 198.162 49.5521 197.96 49.6939C197.758 49.8357 197.61 50.0484 197.515 50.332C197.425 50.6156 197.376 50.9744 197.367 51.4084V51.6211C197.367 52.0852 197.41 52.4783 197.496 52.8006C197.586 53.1229 197.735 53.3678 197.941 53.5354C198.151 53.703 198.439 53.7868 198.804 53.7868C199.105 53.7868 199.352 53.703 199.546 53.5354C199.739 53.3678 199.883 53.1229 199.978 52.8006C200.076 52.4741 200.126 52.0766 200.126 51.6082C200.126 50.9035 200.016 50.3728 199.797 50.0161C199.578 49.6595 199.238 49.4812 198.779 49.4812ZM209.877 48.0438V50.8927C209.877 51.0388 209.871 51.2236 209.858 51.4471C209.849 51.6662 209.836 51.8897 209.819 52.1174C209.802 52.3451 209.785 52.5492 209.768 52.7297C209.75 52.9102 209.738 53.0327 209.729 53.0971L213.055 48.0438H215.42V55.2499H213.519V52.3752C213.519 52.1389 213.528 51.8789 213.545 51.5953C213.562 51.3074 213.581 51.0367 213.603 50.7832C213.624 50.5296 213.639 50.3384 213.648 50.2095L210.335 55.2499H207.976V48.0438H209.877ZM224.637 55.3789C223.923 55.3789 223.315 55.2499 222.813 54.9921C222.31 54.73 221.927 54.3261 221.665 53.7804C221.403 53.2346 221.272 52.5364 221.272 51.6855C221.272 50.8047 221.42 50.087 221.717 49.5327C222.018 48.9741 222.432 48.5637 222.961 48.3016C223.494 48.0395 224.11 47.9084 224.811 47.9084C225.309 47.9084 225.739 47.9579 226.1 48.0567C226.465 48.1512 226.783 48.2651 227.054 48.3983L226.474 49.9195C226.164 49.7948 225.876 49.6939 225.61 49.6165C225.344 49.5349 225.077 49.4941 224.811 49.4941C224.467 49.4941 224.181 49.5757 223.954 49.739C223.726 49.898 223.556 50.1386 223.444 50.4609C223.333 50.7832 223.277 51.1871 223.277 51.6727C223.277 52.1496 223.337 52.545 223.457 52.8586C223.578 53.1723 223.752 53.4065 223.979 53.5612C224.207 53.7116 224.484 53.7868 224.811 53.7868C225.219 53.7868 225.582 53.7331 225.9 53.6257C226.218 53.5139 226.527 53.3592 226.828 53.1616V54.8439C226.527 55.0329 226.212 55.1683 225.881 55.2499C225.554 55.3359 225.14 55.3789 224.637 55.3789ZM234.862 49.5198H232.503V55.2499H230.537V49.5198H228.172V48.0438H234.862V49.5198ZM240.615 47.9084C241.427 47.9084 242.082 48.2243 242.58 48.8559C243.083 49.4876 243.335 50.4136 243.335 51.634C243.335 52.4504 243.216 53.1379 242.98 53.6966C242.744 54.2509 242.417 54.6698 242 54.9534C241.584 55.237 241.104 55.3789 240.563 55.3789C240.215 55.3789 239.916 55.3359 239.667 55.2499C239.418 55.1597 239.205 55.0458 239.029 54.9083C238.853 54.7665 238.7 54.6161 238.571 54.4571H238.468C238.503 54.629 238.528 54.8052 238.546 54.9857C238.563 55.1661 238.571 55.3423 238.571 55.5142V58.4212H236.605V48.0438H238.204L238.481 48.9784H238.571C238.7 48.785 238.857 48.6067 239.042 48.4434C239.227 48.2801 239.448 48.1512 239.706 48.0567C239.968 47.9579 240.271 47.9084 240.615 47.9084ZM239.983 49.4812C239.639 49.4812 239.366 49.5521 239.164 49.6939C238.962 49.8357 238.814 50.0484 238.72 50.332C238.629 50.6156 238.58 50.9744 238.571 51.4084V51.6211C238.571 52.0852 238.614 52.4783 238.7 52.8006C238.79 53.1229 238.939 53.3678 239.145 53.5354C239.355 53.703 239.643 53.7868 240.009 53.7868C240.309 53.7868 240.557 53.703 240.75 53.5354C240.943 53.3678 241.087 53.1229 241.182 52.8006C241.281 52.4741 241.33 52.0766 241.33 51.6082C241.33 50.9035 241.22 50.3728 241.001 50.0161C240.782 49.6595 240.443 49.4812 239.983 49.4812ZM248.307 47.8956C249.274 47.8956 250.015 48.1061 250.531 48.5272C251.046 48.9483 251.304 49.5886 251.304 50.448V55.2499H249.931L249.551 54.2702H249.499C249.293 54.528 249.083 54.7386 248.868 54.9019C248.653 55.0652 248.406 55.1855 248.126 55.2628C247.847 55.3402 247.508 55.3789 247.108 55.3789C246.683 55.3789 246.3 55.2972 245.961 55.1339C245.626 54.9706 245.361 54.7214 245.168 54.3862C244.975 54.0468 244.878 53.6171 244.878 53.0971C244.878 52.3322 245.146 51.7693 245.684 51.4084C246.221 51.0431 247.026 50.8412 248.101 50.8025L249.351 50.7638V50.448C249.351 50.0699 249.252 49.7927 249.055 49.6165C248.857 49.4403 248.582 49.3523 248.23 49.3523C247.882 49.3523 247.54 49.4017 247.205 49.5005C246.87 49.5993 246.534 49.7239 246.199 49.8743L245.548 48.5466C245.931 48.3446 246.358 48.1856 246.831 48.0696C247.308 47.9536 247.8 47.8956 248.307 47.8956ZM249.351 51.9111L248.591 51.9369C247.955 51.9541 247.512 52.068 247.263 52.2785C247.018 52.4891 246.895 52.7662 246.895 53.11C246.895 53.4108 246.983 53.6257 247.16 53.7546C247.336 53.8792 247.566 53.9415 247.849 53.9415C248.27 53.9415 248.625 53.8169 248.913 53.5676C249.205 53.3184 249.351 52.9639 249.351 52.5041V51.9111ZM255.206 51.5695L252.886 48.0438H255.116L256.515 50.3384L257.927 48.0438H260.157L257.811 51.5695L260.266 55.2499H258.03L256.515 52.7813L254.994 55.2499H252.764L255.206 51.5695ZM268.307 51.634C268.307 52.2356 268.225 52.7684 268.062 53.2325C267.903 53.6966 267.669 54.0897 267.359 54.412C267.054 54.73 266.685 54.9706 266.251 55.1339C265.821 55.2972 265.335 55.3789 264.794 55.3789C264.287 55.3789 263.821 55.2972 263.395 55.1339C262.974 54.9706 262.607 54.73 262.293 54.412C261.984 54.0897 261.743 53.6966 261.571 53.2325C261.404 52.7684 261.32 52.2356 261.32 51.634C261.32 50.8347 261.462 50.1579 261.745 49.6036C262.029 49.0493 262.433 48.6282 262.957 48.3403C263.481 48.0524 264.106 47.9084 264.833 47.9084C265.507 47.9084 266.104 48.0524 266.624 48.3403C267.149 48.6282 267.559 49.0493 267.856 49.6036C268.156 50.1579 268.307 50.8347 268.307 51.634ZM263.324 51.634C263.324 52.1067 263.376 52.5041 263.479 52.8264C263.582 53.1487 263.743 53.3915 263.962 53.5548C264.182 53.718 264.467 53.7997 264.82 53.7997C265.168 53.7997 265.449 53.718 265.664 53.5548C265.883 53.3915 266.042 53.1487 266.141 52.8264C266.244 52.5041 266.296 52.1067 266.296 51.634C266.296 51.157 266.244 50.7617 266.141 50.448C266.042 50.13 265.883 49.8915 265.664 49.7325C265.445 49.5735 265.159 49.4941 264.807 49.4941C264.287 49.4941 263.909 49.6724 263.672 50.029C263.44 50.3857 263.324 50.9207 263.324 51.634ZM276.715 49.9324C276.715 50.3191 276.592 50.65 276.347 50.925C276.107 51.1957 275.75 51.3697 275.277 51.4471V51.4986C275.776 51.5588 276.177 51.7328 276.483 52.0207C276.788 52.3043 276.94 52.6631 276.94 53.0971C276.94 53.5096 276.833 53.8792 276.618 54.2058C276.403 54.528 276.061 54.7837 275.593 54.9728C275.125 55.1576 274.512 55.2499 273.756 55.2499H270.327V48.0438H273.756C274.319 48.0438 274.824 48.104 275.271 48.2243C275.718 48.3403 276.07 48.5358 276.328 48.8108C276.586 49.0858 276.715 49.4597 276.715 49.9324ZM274.903 52.994C274.903 52.7104 274.792 52.5063 274.568 52.3817C274.349 52.2528 274.022 52.1883 273.588 52.1883H272.293V53.8899H273.627C273.997 53.8899 274.302 53.8212 274.542 53.6837C274.783 53.5462 274.903 53.3163 274.903 52.994ZM274.723 50.087C274.723 49.8636 274.635 49.6982 274.459 49.5907C274.282 49.4833 274.022 49.4296 273.679 49.4296H272.293V50.8541H273.453C273.87 50.8541 274.186 50.7939 274.401 50.6736C274.615 50.5533 274.723 50.3578 274.723 50.087ZM281.977 47.8956C282.944 47.8956 283.685 48.1061 284.201 48.5272C284.716 48.9483 284.974 49.5886 284.974 50.448V55.2499H283.601L283.221 54.2702H283.169C282.963 54.528 282.753 54.7386 282.538 54.9019C282.323 55.0652 282.076 55.1855 281.797 55.2628C281.517 55.3402 281.178 55.3789 280.778 55.3789C280.353 55.3789 279.97 55.2972 279.631 55.1339C279.296 54.9706 279.031 54.7214 278.838 54.3862C278.645 54.0468 278.548 53.6171 278.548 53.0971C278.548 52.3322 278.817 51.7693 279.354 51.4084C279.891 51.0431 280.696 50.8412 281.771 50.8025L283.021 50.7638V50.448C283.021 50.0699 282.922 49.7927 282.725 49.6165C282.527 49.4403 282.252 49.3523 281.9 49.3523C281.552 49.3523 281.21 49.4017 280.875 49.5005C280.54 49.5993 280.204 49.7239 279.869 49.8743L279.218 48.5466C279.601 48.3446 280.028 48.1856 280.501 48.0696C280.978 47.9536 281.47 47.8956 281.977 47.8956ZM283.021 51.9111L282.261 51.9369C281.625 51.9541 281.182 52.068 280.933 52.2785C280.688 52.4891 280.565 52.7662 280.565 53.11C280.565 53.4108 280.653 53.6257 280.83 53.7546C281.006 53.8792 281.236 53.9415 281.519 53.9415C281.94 53.9415 282.295 53.8169 282.583 53.5676C282.875 53.3184 283.021 52.9639 283.021 52.5041V51.9111ZM289.366 48.0438V50.8154H292.112V48.0438H294.078V55.2499H292.112V52.2785H289.366V55.2499H287.401V48.0438H289.366ZM298.438 48.0438V50.8927C298.438 51.0388 298.432 51.2236 298.419 51.4471C298.41 51.6662 298.397 51.8897 298.38 52.1174C298.363 52.3451 298.346 52.5492 298.329 52.7297C298.311 52.9102 298.299 53.0327 298.29 53.0971L301.616 48.0438H303.981V55.2499H302.08V52.3752C302.08 52.1389 302.088 51.8789 302.106 51.5953C302.123 51.3074 302.142 51.0367 302.164 50.7832C302.185 50.5296 302.2 50.3384 302.209 50.2095L298.896 55.2499H296.537V48.0438H298.438ZM309.418 47.9084C310.084 47.9084 310.657 48.0374 311.139 48.2952C311.62 48.5487 311.992 48.9182 312.254 49.4038C312.516 49.8894 312.647 50.4824 312.647 51.1828V52.1367H308C308.021 52.6911 308.187 53.1272 308.496 53.4452C308.81 53.7589 309.244 53.9157 309.798 53.9157C310.258 53.9157 310.679 53.8684 311.061 53.7739C311.444 53.6794 311.837 53.5376 312.241 53.3485V54.8697C311.884 55.0458 311.51 55.1747 311.119 55.2564C310.733 55.338 310.262 55.3789 309.708 55.3789C308.986 55.3789 308.346 55.2456 307.787 54.9792C307.233 54.7128 306.797 54.3067 306.479 53.761C306.165 53.2153 306.008 52.5278 306.008 51.6984C306.008 50.8562 306.15 50.1558 306.433 49.5972C306.721 49.0343 307.121 48.6132 307.632 48.3339C308.144 48.0502 308.739 47.9084 309.418 47.9084ZM309.431 49.3071C309.048 49.3071 308.73 49.4296 308.477 49.6745C308.228 49.9195 308.084 50.304 308.045 50.8283H310.804C310.799 50.5361 310.746 50.2761 310.642 50.0484C310.544 49.8206 310.393 49.6402 310.191 49.5069C309.994 49.3737 309.74 49.3071 309.431 49.3071Z" fill="#244082"/>
<defs>
<clipPath id="clip0_535_113">
<rect width="313.041" height="49.0304" fill="white" transform="translate(0.117188 0.572319)"/>
</clipPath>
</defs>
</svg>
