<svg width="186" height="28" viewBox="0 0 186 28" fill="none" xmlns="http://www.w3.org/2000/svg">
<path d="M7.67549 20.1064C7.75 20.1784 7.81901 20.2498 7.88416 20.3235C7.9491 20.3971 8.0116 20.473 8.07349 20.554L8.16816 20.6873C8.2331 20.7892 8.2952 20.8878 8.35261 20.9937L9.80822 21.1682L10 22.9256L8.61034 23.3633C8.57573 23.4868 8.53502 23.602 8.48819 23.7139C8.43608 23.8412 8.37276 23.9686 8.29886 24.1034C8.23534 24.2125 8.16816 24.3167 8.09263 24.4196L8.65717 25.668L7.10037 26.699L5.99369 25.8097C5.76975 25.8676 5.58204 25.8914 5.35077 25.9178C5.12561 25.9311 4.96397 25.9381 4.74206 25.9249L3.84874 27L2.09996 26.2745L2.38335 24.947C2.30598 24.8758 2.23331 24.8034 2.16388 24.7284C2.08001 24.6374 2.00244 24.5453 1.92651 24.4462L1.83245 24.3137C1.7673 24.2115 1.70501 24.1133 1.64882 24.0067L0.191979 23.8324L1.58946e-07 22.0746L1.39068 21.6371C1.44748 21.4394 1.50631 21.3009 1.59182 21.1086C1.6934 20.9129 1.77545 20.7604 1.90737 20.5806L1.34304 19.332L2.89984 18.3014L4.0057 19.1901C4.13477 19.159 4.26853 19.1298 4.39943 19.1114C4.49919 19.0975 4.59263 19.0854 4.70684 19.0771L4.87765 19.0679L5.04805 19.0662L5.25835 19.0749L6.15147 18L7.90004 18.7257L7.61665 20.0536L7.67549 20.1064ZM7.40187 20.45L7.12296 20.1983L7.38477 18.971L6.29377 18.5182L5.46763 19.5127C5.3237 19.4994 5.1873 19.4896 5.04214 19.4849L4.74796 19.4936L4.46804 19.5241L4.35057 19.544L4.18485 19.5796L3.89862 19.6591L2.87256 18.8342L1.90065 19.4782L2.42264 20.6333L2.25346 20.8571L2.10383 21.0917L2.00713 21.2786L1.9202 21.4742C1.85749 21.6386 1.81677 21.7893 1.77565 21.9582L0.487174 22.3639L0.606677 23.4598L1.95745 23.6217C2.01608 23.7426 2.07492 23.8562 2.1421 23.9737L2.29621 24.2024L2.48819 24.4288C2.55191 24.5002 2.61706 24.5686 2.69178 24.6398L2.87785 24.8008L2.61543 26.0293L3.70664 26.482L4.53278 25.4873C4.72211 25.5057 4.89047 25.5164 5.08184 25.5149L5.307 25.5012L5.53502 25.4755L5.81067 25.4221L6.10322 25.3432L7.12744 26.166L8.09955 25.5224L7.57716 24.3673L7.74715 24.1428L7.89577 23.9109C7.97109 23.7726 8.03013 23.6478 8.0796 23.5194C8.12907 23.3925 8.1704 23.2591 8.21091 23.102L8.22659 23.0416L9.51303 22.6364L9.39353 21.5406L8.04397 21.3787C7.98473 21.2581 7.92528 21.1438 7.8579 21.0265C7.79723 20.9322 7.7386 20.8402 7.66673 20.7525C7.58103 20.6477 7.50489 20.5551 7.40187 20.45ZM4.76588 20.7146L4.75896 20.7159C4.67956 20.7251 4.6024 20.738 4.52993 20.7549C4.4546 20.7722 4.3805 20.7933 4.30904 20.8183C4.2386 20.843 4.16714 20.8721 4.09792 20.9054C4.02972 20.9382 3.96234 20.9746 3.90024 21.0137L3.82044 21.0666C3.75835 21.1099 3.6991 21.1567 3.64475 21.2051C3.58937 21.254 3.53685 21.3071 3.48758 21.3623C3.43893 21.4169 3.39353 21.4752 3.35281 21.5338C3.31209 21.5919 3.27423 21.6547 3.23982 21.7203L3.20033 21.8005C3.16999 21.8676 3.14373 21.9362 3.12276 22.0033C3.10179 22.0712 3.08489 22.1411 3.07268 22.2108C3.06026 22.2803 3.05212 22.3516 3.04886 22.4224C3.0454 22.4931 3.04621 22.565 3.05191 22.6348L3.06169 22.7238C3.07146 22.7946 3.08612 22.8651 3.10423 22.9328C3.12296 23.0021 3.14597 23.0705 3.17305 23.1363C3.19992 23.2013 3.23188 23.2673 3.26792 23.3308C3.30293 23.3931 3.34222 23.4547 3.38436 23.5113L3.4434 23.5863C3.49023 23.6435 3.54092 23.6976 3.59344 23.7477C3.64678 23.7988 3.70399 23.8472 3.76384 23.8924C3.82349 23.9377 3.88701 23.9793 3.95073 24.017C4.01344 24.0541 4.08184 24.0891 4.15309 24.1208L4.24145 24.1574C4.31331 24.1849 4.38721 24.2089 4.45928 24.228C4.534 24.2477 4.61014 24.2635 4.68506 24.2747C4.76079 24.2863 4.83856 24.2934 4.91572 24.2968C4.99267 24.3 5.07044 24.2989 5.14739 24.2934L5.24572 24.2848C5.3237 24.2751 5.39963 24.2618 5.4717 24.2453C5.5456 24.2282 5.61971 24.207 5.69157 24.1819C5.76222 24.1572 5.83347 24.1279 5.90269 24.0948C5.97028 24.0625 6.03726 24.0264 6.09874 23.9876L6.17976 23.9334C6.24186 23.8907 6.30049 23.8438 6.35444 23.796C6.41246 23.7439 6.46559 23.6909 6.51262 23.6382C6.56169 23.5829 6.60688 23.5248 6.6478 23.4663C6.68852 23.4079 6.72618 23.3453 6.76018 23.2806L6.80191 23.1953C6.83021 23.1337 6.85525 23.0679 6.87643 22.9989C6.89841 22.9281 6.91551 22.8585 6.92773 22.7901C6.93974 22.7208 6.94788 22.649 6.95155 22.5778C6.9548 22.5066 6.95399 22.4355 6.94809 22.3654L6.93852 22.2738C6.92834 22.2031 6.91429 22.1334 6.89577 22.0663C6.87744 21.9983 6.85423 21.9301 6.82695 21.8639C6.80028 21.799 6.76873 21.7336 6.7329 21.6703C6.69768 21.6077 6.65818 21.546 6.61564 21.4889L6.55476 21.4113C6.50835 21.3549 6.45786 21.3009 6.40574 21.2514C6.35281 21.201 6.29581 21.1528 6.23616 21.1078C6.1763 21.0627 6.11299 21.0207 6.04927 20.983C5.98616 20.9459 5.91735 20.9109 5.84629 20.879L5.75407 20.8411C5.68608 20.8147 5.6138 20.7913 5.5395 20.772C5.46539 20.7523 5.38925 20.7369 5.31413 20.7253C5.23941 20.7141 5.16185 20.7066 5.08449 20.7037C5.00753 20.7004 4.92997 20.7013 4.85423 20.7066L4.76588 20.7146ZM4.70073 20.3006L4.81983 20.2895C4.9145 20.283 5.01079 20.2817 5.10485 20.2854C5.19687 20.289 5.29214 20.2982 5.38783 20.3128C5.48046 20.3268 5.57431 20.3461 5.66633 20.3703C5.75774 20.3943 5.84792 20.4232 5.93404 20.4567L6.04092 20.5013C6.12765 20.5398 6.21173 20.583 6.29357 20.631C6.37439 20.6786 6.45257 20.7302 6.52423 20.7847C6.59711 20.8396 6.66775 20.8994 6.73392 20.9624C6.79743 21.0227 6.85892 21.088 6.91653 21.1575L6.98779 21.2476C7.04275 21.3222 7.09141 21.3983 7.13498 21.4754C7.17854 21.5524 7.21763 21.6334 7.25143 21.7158C7.28481 21.7964 7.31372 21.8811 7.33673 21.9666C7.35973 22.0513 7.37724 22.1375 7.38925 22.2228L7.40167 22.3341C7.40879 22.4222 7.41002 22.5107 7.40574 22.5963C7.40106 22.6827 7.39108 22.771 7.37581 22.8578C7.36055 22.9433 7.33978 23.0291 7.31372 23.1131C7.28787 23.1946 7.25631 23.2778 7.21865 23.3603L7.1706 23.4611C7.12785 23.5415 7.08082 23.6195 7.03033 23.6918C6.97903 23.7647 6.92284 23.8365 6.8636 23.9034C6.80354 23.9707 6.7384 24.0359 6.66979 24.0968C6.60362 24.1561 6.53176 24.2134 6.4548 24.2666L6.36136 24.3291C6.27972 24.3802 6.19727 24.4248 6.11421 24.4651C6.02993 24.5056 5.94218 24.5414 5.85383 24.5725C5.76486 24.6034 5.67284 24.6299 5.5796 24.651C5.48799 24.6724 5.39414 24.6885 5.3013 24.6996L5.18343 24.7103C5.0853 24.7172 4.98921 24.7183 4.89536 24.7146C4.80151 24.7106 4.70562 24.7016 4.61197 24.6876C4.51853 24.6735 4.42467 24.654 4.33327 24.6301C4.24369 24.6062 4.15289 24.5768 4.06535 24.5431L3.95908 24.4992C3.87215 24.4606 3.78827 24.4175 3.70684 24.3697C3.62704 24.3229 3.54927 24.2711 3.47618 24.2155C3.4035 24.1607 3.33327 24.1015 3.2673 24.0385C3.20277 23.9778 3.14068 23.9115 3.08265 23.841L3.01344 23.7531C2.95786 23.6779 2.9088 23.6017 2.86523 23.5252C2.82166 23.448 2.78278 23.3672 2.74898 23.2847C2.71559 23.2041 2.68669 23.1196 2.66388 23.0343C2.64088 22.9496 2.62357 22.863 2.61156 22.7776L2.59894 22.6642C2.59202 22.577 2.5908 22.4895 2.59487 22.4035C2.59874 22.3173 2.60912 22.2294 2.62439 22.1435C2.63945 22.0581 2.66002 21.9722 2.68607 21.8886C2.71193 21.8064 2.74369 21.7229 2.78054 21.6418L2.83062 21.538C2.87134 21.4613 2.91796 21.3837 2.97007 21.3089C3.01954 21.2372 3.07533 21.1656 3.13681 21.097C3.19605 21.0301 3.26099 20.965 3.3294 20.9043C3.39577 20.8449 3.46804 20.7873 3.54499 20.7337L3.64149 20.6702C3.72191 20.6194 3.80415 20.5746 3.88701 20.5347C3.97089 20.4944 4.05823 20.459 4.1478 20.4277C4.23432 20.3971 4.32594 20.3711 4.41958 20.3495C4.51303 20.3282 4.60688 20.3117 4.70073 20.3006Z" fill="white"/>
<path d="M14.3518 18.7711L14.1998 18.7278L14.2009 18.7238L13.8519 18.6052C13.7222 18.5577 13.5927 18.5067 13.4648 18.4515L11.7568 20.2781L9.95395 19.0887L10.96 16.7979L10.8937 16.7342C10.7492 16.5886 10.6192 16.4499 10.49 16.3041C10.3656 16.1643 10.2427 16.018 10.1117 15.8531L10.0546 15.7786L7.66073 16.5075L6.69431 14.5742L8.71065 13.0939L8.68502 13.0038C8.63218 12.7999 8.58753 12.6141 8.55002 12.4289C8.51224 12.2443 8.47868 12.0554 8.4483 11.8488L8.43694 11.7576L6 11.1915L6.12761 9.03432L8.61395 8.76089L8.63614 8.67212C8.69427 8.4634 8.74922 8.27873 8.80655 8.10701C8.86679 7.92419 8.93204 7.74691 9.00813 7.553L9.04485 7.46608L7.21794 5.75755L8.40709 3.9547L10.6971 4.96127C10.8353 4.81649 10.9737 4.68307 11.1154 4.55494C11.2844 4.40329 11.4593 4.25825 11.6437 4.11083L11.7172 4.05588L10.9896 1.66151L12.9214 0.694826L14.4022 2.71194L14.4912 2.68604C14.6968 2.63294 14.8836 2.58856 15.0667 2.55078C15.2561 2.51194 15.4434 2.47865 15.6468 2.44854L15.7388 2.43691L16.3047 0L18.4618 0.128398L18.7348 2.61577L18.8227 2.63664C19.032 2.69503 19.2153 2.75024 19.3886 2.8081C19.5696 2.86807 19.749 2.93359 19.9437 3.00915L20.0296 3.0464L21.7381 1.21951L23.5418 2.40785L22.5349 4.6984L22.6002 4.76101C22.7455 4.90817 22.8766 5.04687 23.0052 5.19297C23.1378 5.34171 23.2602 5.48754 23.3854 5.64553L23.4398 5.71845L25.8342 4.99033L26.8017 6.92237L24.7846 8.40238L24.8097 8.49141C24.863 8.69616 24.9066 8.88162 24.9447 9.06682C24.9832 9.25387 25.0163 9.44145 25.0472 9.64752L25.0578 9.73866L27.496 10.3054L27.3676 12.4627L24.8799 12.7354L24.8588 12.8239C24.8004 13.0347 24.7449 13.217 24.6884 13.3898C24.6284 13.5702 24.5624 13.7496 24.4863 13.9451L24.4498 14.0302L26.2768 15.7395L25.0881 17.5424L22.7976 16.5358L22.7336 16.6021C22.5867 16.7461 22.4472 16.8771 22.3027 17.0063C22.1627 17.1316 22.0147 17.2541 21.8494 17.386L21.777 17.4404L22.5059 19.8345L20.5741 20.8015L19.0938 18.7849L19.0053 18.8102C18.799 18.8644 18.6156 18.908 18.4301 18.9458C18.246 18.9838 18.0597 19.0163 17.8479 19.0483L17.7567 19.0594L17.1905 21.496L15.0331 21.3681L14.7605 18.8813L14.5045 18.8131L14.5039 18.8171L14.3518 18.7711V18.7711ZM20.6887 9.77036C20.6507 9.61423 20.6021 9.45994 20.5461 9.31226C20.4895 9.16457 20.4232 9.01662 20.3482 8.87237C20.2748 8.73103 20.1936 8.5918 20.1057 8.46446L19.9833 8.29538C19.8861 8.16645 19.781 8.04492 19.6729 7.93159C19.5612 7.81508 19.4417 7.70623 19.3184 7.60504C19.1923 7.50254 19.0602 7.40716 18.9289 7.32315C18.7979 7.23914 18.6566 7.15988 18.5076 7.08881L18.3239 7.00665C18.1755 6.94324 18.0222 6.8904 17.8722 6.84628C17.7173 6.80137 17.5588 6.76702 17.4016 6.7414C17.245 6.71392 17.0833 6.69913 16.9218 6.69173C16.7625 6.68407 16.6022 6.68618 16.4413 6.69913L16.2371 6.71736C16.0759 6.74113 15.9182 6.7702 15.7681 6.80745C15.6141 6.84523 15.4587 6.89331 15.3116 6.95064C15.1639 7.00718 15.0149 7.0727 14.8725 7.14799C14.7306 7.22091 14.5916 7.30201 14.4638 7.3892L14.2942 7.5131C14.1666 7.60769 14.0453 7.71389 13.9322 7.82274C13.812 7.94083 13.701 8.05919 13.603 8.17861C13.5026 8.3041 13.4073 8.43329 13.3227 8.5667C13.2382 8.6988 13.1608 8.83961 13.0889 8.98624L13.002 9.17805C12.9446 9.31675 12.8921 9.46628 12.848 9.62136C12.8007 9.78146 12.7663 9.93918 12.7415 10.0935C12.7148 10.2504 12.6976 10.4126 12.6915 10.574C12.6847 10.7344 12.6871 10.8934 12.6976 11.0528L12.7193 11.2591C12.7394 11.4189 12.7682 11.5761 12.8065 11.7272C12.8437 11.8807 12.8926 12.0369 12.9505 12.184C13.0051 12.3317 13.0717 12.4786 13.1462 12.6213C13.2181 12.7634 13.3003 12.9021 13.3888 13.0316L13.5164 13.2067C13.6131 13.3348 13.7169 13.4569 13.8255 13.5684C13.9354 13.6815 14.0535 13.7908 14.1776 13.8931C14.3021 13.9937 14.435 14.0881 14.5673 14.1734C14.6986 14.2571 14.8408 14.3356 14.989 14.4088L15.1795 14.4944C15.3221 14.5541 15.4704 14.6069 15.6268 14.65C15.7803 14.6949 15.9382 14.7293 16.0957 14.7559C16.2516 14.7818 16.4109 14.7972 16.5726 14.8043C16.7327 14.8122 16.8925 14.8093 17.051 14.7985L17.2352 14.7795L17.2487 14.7771C17.4138 14.7559 17.5731 14.7264 17.7253 14.6891C17.8811 14.6497 18.0357 14.6019 18.1839 14.5459C18.3311 14.4896 18.479 14.4244 18.6227 14.3488C18.7646 14.2754 18.9049 14.1924 19.0344 14.1044L19.1992 13.985C19.3292 13.8867 19.4515 13.7824 19.5657 13.6746C19.6798 13.5621 19.7894 13.4418 19.8914 13.3187C19.9931 13.194 20.0882 13.0625 20.172 12.9285C20.2557 12.7991 20.335 12.6572 20.4071 12.5095L20.4893 12.3277C20.5514 12.1761 20.6061 12.0221 20.6496 11.8691C20.6938 11.7167 20.7289 11.5592 20.7543 11.4012C20.7796 11.2438 20.7968 11.0826 20.8045 10.9236C20.8105 10.7635 20.8095 10.6002 20.7979 10.4446L20.7778 10.243C20.7569 10.0834 20.7263 9.92492 20.6887 9.77036V9.77036Z" fill="white"/>
<path d="M28.7656 0.618872V4.68926H33.4596V17.3507H38.0366V4.68926H42.7422V0.618872H28.7656V0.618872ZM49.2104 13.5233V10.6633H55.715V7.07094H49.2104V4.44633H57.6459V0.618872H44.6334V17.3507H57.879V13.5233H49.2104V13.5233ZM66.8888 11.7389L70.2654 17.3507H75.3206L69.7837 8.62433L74.8385 0.618872H69.7837L66.8888 5.51779L63.9938 0.618872H58.9349L63.9938 8.62433L58.4533 17.3507H63.5122L66.8888 11.7389V11.7389ZM80.5923 8.98295C80.5923 7.61684 81.0423 6.47772 81.9455 5.56927C82.8487 4.66548 83.9652 4.21125 85.2981 4.21125C86.631 4.21125 87.7473 4.66548 88.6465 5.56927C89.542 6.47772 89.9916 7.61684 89.9916 8.98295C89.9916 10.3527 89.542 11.4919 88.6465 12.4042C87.7473 13.3122 86.631 13.7699 85.2981 13.7699C83.9652 13.7699 82.8487 13.3122 81.9455 12.4042C81.0423 11.4919 80.5923 10.3527 80.5923 8.98295V8.98295ZM94.685 8.98295C94.685 6.56524 93.7739 4.48629 91.9512 2.74586C90.1282 1.00912 87.9079 0.141113 85.2939 0.141113C82.6762 0.141113 80.4559 1.00912 78.6332 2.74586C76.8102 4.48629 75.8988 6.56524 75.8988 8.98295C75.8988 11.4043 76.8102 13.4833 78.6332 15.22C80.4559 16.9605 82.6762 17.8285 85.2939 17.8285C87.9079 17.8285 90.1282 16.9605 91.9512 15.22C93.7739 13.4833 94.685 11.4043 94.685 8.98295V8.98295ZM100.684 8.98295C100.684 7.61684 101.142 6.47772 102.061 5.56927C102.976 4.66548 104.125 4.21125 105.506 4.21125C106.016 4.21125 106.518 4.287 107.02 4.43824C107.517 4.58973 107.919 4.76083 108.224 4.95203C108.529 5.14324 108.822 5.36214 109.107 5.60531C109.388 5.8524 109.569 6.0235 109.646 6.1191C109.726 6.21862 109.786 6.29829 109.834 6.3581L112.612 3.49032L112.34 3.15205C112.167 2.91697 111.882 2.63825 111.488 2.31174C111.091 1.98498 110.629 1.65847 110.099 1.33171C109.569 1.0052 108.899 0.722317 108.083 0.491404C107.268 0.256569 106.409 0.141113 105.506 0.141113C102.888 0.141113 100.663 1.00912 98.841 2.74586C97.018 4.48629 96.1067 6.56524 96.1067 8.98295C96.1067 11.4043 97.018 13.4833 98.841 15.22C100.663 16.9605 102.888 17.8285 105.506 17.8285C106.417 17.8285 107.293 17.7093 108.136 17.4743C108.979 17.235 109.657 16.9683 110.171 16.6737C110.685 16.3788 111.163 16.0363 111.605 15.6539C112.047 15.2676 112.331 15.0009 112.452 14.8494C112.572 14.6942 112.665 14.5746 112.729 14.4793L110.083 11.6112L109.577 12.1451C109.24 12.5116 108.69 12.8739 107.931 13.2325C107.168 13.5909 106.361 13.7699 105.506 13.7699C104.125 13.7699 102.976 13.3122 102.061 12.4042C101.142 11.4919 100.684 10.3527 100.684 8.98295V8.98295ZM123.903 13.2882L128.609 7.43324V17.3507H133.186V0.618872H129.091L123.903 7.19865L118.728 0.618872H114.632V17.3507H119.209V7.43324L123.903 13.2882V13.2882ZM140.252 8.98295C140.252 7.61684 140.702 6.47772 141.605 5.56927C142.509 4.66548 143.625 4.21125 144.958 4.21125C146.291 4.21125 147.407 4.66548 148.307 5.56927C149.202 6.47772 149.651 7.61684 149.651 8.98295C149.651 10.3527 149.202 11.4919 148.307 12.4042C147.407 13.3122 146.291 13.7699 144.958 13.7699C143.625 13.7699 142.509 13.3122 141.605 12.4042C140.702 11.4919 140.252 10.3527 140.252 8.98295V8.98295ZM154.345 8.98295C154.345 6.56524 153.434 4.48629 151.611 2.74586C149.788 1.00912 147.568 0.141113 144.954 0.141113C142.336 0.141113 140.116 1.00912 138.293 2.74586C136.47 4.48629 135.559 6.56524 135.559 8.98295C135.559 11.4043 136.47 13.4833 138.293 15.22C140.116 16.9605 142.336 17.8285 144.954 17.8285C147.568 17.8285 149.788 16.9605 151.611 15.22C153.434 13.4833 154.345 11.4043 154.345 8.98295V8.98295ZM155.285 0.618872V4.68926H159.978V17.3507H164.555V4.68926H169.261V0.618872H155.285ZM171.152 0.618872V17.3507H175.73V12.3322H178.741C180.584 12.3322 182.089 11.7789 183.254 10.6714C184.418 9.56023 185 8.16226 185 6.47772C185 4.78878 184.418 3.3908 183.258 2.27963C182.097 1.17262 180.592 0.618872 178.741 0.618872H171.152V0.618872ZM178.495 4.68926C179.026 4.68926 179.483 4.86845 179.857 5.22707C180.234 5.58545 180.423 6.00364 180.423 6.48165C180.423 6.9594 180.234 7.3776 179.857 7.73622C179.483 8.0946 179.026 8.27379 178.495 8.27379H175.73V4.68926H178.495V4.68926Z" fill="white"/>
<path d="M28.9219 26H27.7109V21.2969H26.1602V20.2891H30.4727V21.2969H28.9219V26ZM33.2986 21.5508C33.7022 21.5508 34.0499 21.6289 34.3416 21.7852C34.6332 21.9388 34.8585 22.1628 35.0173 22.457C35.1762 22.7513 35.2556 23.1107 35.2556 23.5352V24.1133H32.4392C32.4522 24.4492 32.5525 24.7135 32.74 24.9062C32.9301 25.0964 33.1931 25.1914 33.5291 25.1914C33.8077 25.1914 34.0629 25.1628 34.2947 25.1055C34.5265 25.0482 34.7647 24.9622 35.0095 24.8477V25.7695C34.7934 25.8763 34.5668 25.9544 34.3298 26.0039C34.0955 26.0534 33.8103 26.0781 33.4744 26.0781C33.0369 26.0781 32.6489 25.9974 32.3103 25.8359C31.9744 25.6745 31.7101 25.4284 31.5173 25.0977C31.3272 24.7669 31.2322 24.3503 31.2322 23.8477C31.2322 23.3372 31.3181 22.9128 31.49 22.5742C31.6645 22.2331 31.9067 21.9779 32.2166 21.8086C32.5265 21.6367 32.8871 21.5508 33.2986 21.5508ZM33.3064 22.3984C33.0746 22.3984 32.8819 22.4727 32.7283 22.6211C32.5772 22.7695 32.49 23.0026 32.4666 23.3203H34.1384C34.1358 23.1432 34.1033 22.9857 34.0408 22.8477C33.9809 22.7096 33.8897 22.6003 33.7673 22.5195C33.6476 22.4388 33.4939 22.3984 33.3064 22.3984ZM37.3589 23.7695L35.9527 21.6328H37.3042L38.1519 23.0234L39.0073 21.6328H40.3589L38.937 23.7695L40.4253 26H39.0698L38.1519 24.5039L37.23 26H35.8784L37.3589 23.7695ZM42.5208 21.6328V23.3125H44.1848V21.6328H45.3763V26H44.1848V24.1992H42.5208V26H41.3294V21.6328H42.5208ZM48.0186 21.6328V23.3594C48.0186 23.4479 48.0147 23.5599 48.0069 23.6953C48.0017 23.8281 47.9939 23.9635 47.9834 24.1016C47.973 24.2396 47.9626 24.3633 47.9522 24.4727C47.9418 24.582 47.934 24.6562 47.9287 24.6953L49.9444 21.6328H51.378V26H50.2256V24.2578C50.2256 24.1146 50.2308 23.957 50.2412 23.7852C50.2517 23.6107 50.2634 23.4466 50.2764 23.293C50.2894 23.1393 50.2985 23.0234 50.3037 22.9453L48.2959 26H46.8662V21.6328H48.0186ZM53.9188 21.6328V23.2305C53.9188 23.4206 53.9643 23.5638 54.0555 23.6602C54.1492 23.7539 54.2794 23.8008 54.4461 23.8008C54.6753 23.8008 54.8875 23.7747 55.0828 23.7227C55.2807 23.6706 55.4799 23.6029 55.6805 23.5195V21.6328H56.8719V26H55.6805V24.2656C55.4904 24.3646 55.2755 24.4557 55.0359 24.5391C54.799 24.6224 54.5281 24.6641 54.2234 24.6641C53.7677 24.6641 53.4044 24.5482 53.1336 24.3164C52.8628 24.082 52.7273 23.7292 52.7273 23.2578V21.6328H53.9188ZM60.1627 21.5508C60.5663 21.5508 60.914 21.6289 61.2056 21.7852C61.4973 21.9388 61.7226 22.1628 61.8814 22.457C62.0403 22.7513 62.1197 23.1107 62.1197 23.5352V24.1133H59.3033C59.3163 24.4492 59.4166 24.7135 59.6041 24.9062C59.7942 25.0964 60.0572 25.1914 60.3931 25.1914C60.6718 25.1914 60.927 25.1628 61.1588 25.1055C61.3905 25.0482 61.6288 24.9622 61.8736 24.8477V25.7695C61.6574 25.8763 61.4309 25.9544 61.1939 26.0039C60.9595 26.0534 60.6744 26.0781 60.3384 26.0781C59.9009 26.0781 59.5129 25.9974 59.1744 25.8359C58.8384 25.6745 58.5741 25.4284 58.3814 25.0977C58.1913 24.7669 58.0963 24.3503 58.0963 23.8477C58.0963 23.3372 58.1822 22.9128 58.3541 22.5742C58.5285 22.2331 58.7707 21.9779 59.0806 21.8086C59.3905 21.6367 59.7512 21.5508 60.1627 21.5508ZM60.1705 22.3984C59.9387 22.3984 59.746 22.4727 59.5923 22.6211C59.4413 22.7695 59.3541 23.0026 59.3306 23.3203H61.0025C60.9999 23.1432 60.9673 22.9857 60.9048 22.8477C60.8449 22.7096 60.7538 22.6003 60.6314 22.5195C60.5116 22.4388 60.358 22.3984 60.1705 22.3984ZM65.1019 26.0781C64.6696 26.0781 64.3011 26 63.9964 25.8438C63.6917 25.6849 63.4599 25.4401 63.3011 25.1094C63.1422 24.7786 63.0628 24.3555 63.0628 23.8398C63.0628 23.306 63.1527 22.8711 63.3323 22.5352C63.5146 22.1966 63.7659 21.9479 64.0863 21.7891C64.4092 21.6302 64.7829 21.5508 65.2073 21.5508C65.5094 21.5508 65.7698 21.5807 65.9886 21.6406C66.2099 21.6979 66.4027 21.7669 66.5667 21.8477L66.2152 22.7695C66.0277 22.694 65.8532 22.6328 65.6917 22.5859C65.5303 22.5365 65.3688 22.5117 65.2073 22.5117C64.999 22.5117 64.8258 22.5612 64.6878 22.6602C64.5498 22.7565 64.4469 22.9023 64.3792 23.0977C64.3115 23.293 64.2777 23.5378 64.2777 23.832C64.2777 24.1211 64.3141 24.3607 64.387 24.5508C64.4599 24.7409 64.5654 24.8828 64.7034 24.9766C64.8415 25.0677 65.0094 25.1133 65.2073 25.1133C65.4547 25.1133 65.6748 25.0807 65.8675 25.0156C66.0602 24.9479 66.2477 24.8542 66.43 24.7344V25.7539C66.2477 25.8685 66.0563 25.9505 65.8558 26C65.6579 26.0521 65.4066 26.0781 65.1019 26.0781ZM70.5489 21.6328H71.8614L70.1309 23.7266L72.0137 26H70.6622L68.877 23.7852V26H67.6856V21.6328H68.877V23.7539L70.5489 21.6328ZM74.0311 21.6328V23.3594C74.0311 23.4479 74.0272 23.5599 74.0194 23.6953C74.0142 23.8281 74.0064 23.9635 73.9959 24.1016C73.9855 24.2396 73.9751 24.3633 73.9647 24.4727C73.9543 24.582 73.9465 24.6562 73.9412 24.6953L75.9569 21.6328H77.3905V26H76.2381V24.2578C76.2381 24.1146 76.2433 23.957 76.2537 23.7852C76.2642 23.6107 76.2759 23.4466 76.2889 23.293C76.3019 23.1393 76.311 23.0234 76.3162 22.9453L74.3084 26H72.8787V21.6328H74.0311ZM80.0367 21.6328V23.3594C80.0367 23.4479 80.0328 23.5599 80.025 23.6953C80.0198 23.8281 80.012 23.9635 80.0016 24.1016C79.9911 24.2396 79.9807 24.3633 79.9703 24.4727C79.9599 24.582 79.9521 24.6562 79.9469 24.6953L81.9625 21.6328H83.3961V26H82.2438V24.2578C82.2438 24.1146 82.249 23.957 82.2594 23.7852C82.2698 23.6107 82.2815 23.4466 82.2945 23.293C82.3076 23.1393 82.3167 23.0234 82.3219 22.9453L80.3141 26H78.8844V21.6328H80.0367ZM83.068 19.7539C83.0393 20.0299 82.9612 20.2734 82.8336 20.4844C82.706 20.6953 82.5068 20.8594 82.2359 20.9766C81.9651 21.0938 81.6005 21.1523 81.1422 21.1523C80.6708 21.1523 80.3036 21.0964 80.0406 20.9844C79.7776 20.8698 79.5901 20.7083 79.4781 20.5C79.3661 20.2891 79.2984 20.0404 79.275 19.7539H80.3414C80.3648 20.0482 80.4391 20.2435 80.5641 20.3398C80.6891 20.4336 80.8896 20.4805 81.1656 20.4805C81.3948 20.4805 81.5823 20.4284 81.7281 20.3242C81.874 20.2201 81.9612 20.0299 81.9898 19.7539H83.068ZM91.1769 23.8086C91.1769 24.1732 91.1274 24.4961 91.0284 24.7773C90.9321 25.0586 90.7902 25.2969 90.6027 25.4922C90.4178 25.6849 90.1938 25.8307 89.9308 25.9297C89.6704 26.0286 89.3761 26.0781 89.048 26.0781C88.7407 26.0781 88.4581 26.0286 88.2003 25.9297C87.9451 25.8307 87.7224 25.6849 87.5323 25.4922C87.3448 25.2969 87.199 25.0586 87.0948 24.7773C86.9933 24.4961 86.9425 24.1732 86.9425 23.8086C86.9425 23.3242 87.0284 22.9141 87.2003 22.5781C87.3722 22.2422 87.617 21.987 87.9347 21.8125C88.2524 21.638 88.6313 21.5508 89.0714 21.5508C89.4803 21.5508 89.8422 21.638 90.1573 21.8125C90.4751 21.987 90.7238 22.2422 90.9034 22.5781C91.0857 22.9141 91.1769 23.3242 91.1769 23.8086ZM88.1573 23.8086C88.1573 24.0951 88.1886 24.3359 88.2511 24.5312C88.3136 24.7266 88.4113 24.8737 88.5441 24.9727C88.6769 25.0716 88.8501 25.1211 89.0636 25.1211C89.2745 25.1211 89.4451 25.0716 89.5753 24.9727C89.7081 24.8737 89.8045 24.7266 89.8644 24.5312C89.9269 24.3359 89.9581 24.0951 89.9581 23.8086C89.9581 23.5195 89.9269 23.2799 89.8644 23.0898C89.8045 22.8971 89.7081 22.7526 89.5753 22.6562C89.4425 22.5599 89.2693 22.5117 89.0558 22.5117C88.7407 22.5117 88.5115 22.6198 88.3683 22.8359C88.2277 23.0521 88.1573 23.3763 88.1573 23.8086ZM94.1747 26.0781C93.7424 26.0781 93.3739 26 93.0692 25.8438C92.7645 25.6849 92.5328 25.4401 92.3739 25.1094C92.2151 24.7786 92.1356 24.3555 92.1356 23.8398C92.1356 23.306 92.2255 22.8711 92.4052 22.5352C92.5875 22.1966 92.8388 21.9479 93.1591 21.7891C93.482 21.6302 93.8557 21.5508 94.2802 21.5508C94.5822 21.5508 94.8427 21.5807 95.0614 21.6406C95.2828 21.6979 95.4755 21.7669 95.6395 21.8477L95.288 22.7695C95.1005 22.694 94.926 22.6328 94.7645 22.5859C94.6031 22.5365 94.4416 22.5117 94.2802 22.5117C94.0718 22.5117 93.8986 22.5612 93.7606 22.6602C93.6226 22.7565 93.5197 22.9023 93.452 23.0977C93.3843 23.293 93.3505 23.5378 93.3505 23.832C93.3505 24.1211 93.3869 24.3607 93.4598 24.5508C93.5328 24.7409 93.6382 24.8828 93.7763 24.9766C93.9143 25.0677 94.0822 25.1133 94.2802 25.1133C94.5276 25.1133 94.7476 25.0807 94.9403 25.0156C95.133 24.9479 95.3205 24.8542 95.5028 24.7344V25.7539C95.3205 25.8685 95.1291 25.9505 94.9286 26C94.7307 26.0521 94.4794 26.0781 94.1747 26.0781ZM102.262 21.6328V26H101.149V23.8555C101.149 23.6445 101.153 23.4375 101.161 23.2344C101.169 23.0312 101.18 22.8438 101.196 22.6719H101.173L99.9655 26H99.0709L97.8444 22.6641H97.8131C97.834 22.8385 97.8483 23.026 97.8561 23.2266C97.8639 23.4271 97.8678 23.6471 97.8678 23.8867V26H96.7584V21.6328H98.4459L99.5319 24.5938L100.637 21.6328H102.262ZM107.725 23.8086C107.725 24.1732 107.676 24.4961 107.577 24.7773C107.48 25.0586 107.338 25.2969 107.151 25.4922C106.966 25.6849 106.742 25.8307 106.479 25.9297C106.218 26.0286 105.924 26.0781 105.596 26.0781C105.289 26.0781 105.006 26.0286 104.748 25.9297C104.493 25.8307 104.271 25.6849 104.08 25.4922C103.893 25.2969 103.747 25.0586 103.643 24.7773C103.541 24.4961 103.491 24.1732 103.491 23.8086C103.491 23.3242 103.577 22.9141 103.748 22.5781C103.92 22.2422 104.165 21.987 104.483 21.8125C104.801 21.638 105.179 21.5508 105.62 21.5508C106.028 21.5508 106.39 21.638 106.705 21.8125C107.023 21.987 107.272 22.2422 107.452 22.5781C107.634 22.9141 107.725 23.3242 107.725 23.8086ZM104.705 23.8086C104.705 24.0951 104.737 24.3359 104.799 24.5312C104.862 24.7266 104.959 24.8737 105.092 24.9727C105.225 25.0716 105.398 25.1211 105.612 25.1211C105.823 25.1211 105.993 25.0716 106.123 24.9727C106.256 24.8737 106.353 24.7266 106.412 24.5312C106.475 24.3359 106.506 24.0951 106.506 23.8086C106.506 23.5195 106.475 23.2799 106.412 23.0898C106.353 22.8971 106.256 22.7526 106.123 22.6562C105.991 22.5599 105.817 22.5117 105.604 22.5117C105.289 22.5117 105.06 22.6198 104.916 22.8359C104.776 23.0521 104.705 23.3763 104.705 23.8086ZM112.563 22.5273H111.133V26H109.942V22.5273H108.508V21.6328H112.563V22.5273ZM116.049 21.5508C116.541 21.5508 116.938 21.7422 117.24 22.125C117.545 22.5078 117.697 23.069 117.697 23.8086C117.697 24.3034 117.626 24.7201 117.482 25.0586C117.339 25.3945 117.141 25.6484 116.889 25.8203C116.636 25.9922 116.346 26.0781 116.018 26.0781C115.807 26.0781 115.626 26.0521 115.475 26C115.323 25.9453 115.195 25.8763 115.088 25.793C114.981 25.707 114.889 25.6159 114.81 25.5195H114.748C114.769 25.6237 114.784 25.7305 114.795 25.8398C114.805 25.9492 114.81 26.056 114.81 26.1602V27.9219H113.619V21.6328H114.588L114.756 22.1992H114.81C114.889 22.082 114.984 21.974 115.096 21.875C115.208 21.776 115.342 21.6979 115.498 21.6406C115.657 21.5807 115.84 21.5508 116.049 21.5508ZM115.666 22.5039C115.458 22.5039 115.292 22.5469 115.17 22.6328C115.047 22.7188 114.958 22.8477 114.9 23.0195C114.846 23.1914 114.816 23.4089 114.81 23.6719V23.8008C114.81 24.082 114.837 24.3203 114.889 24.5156C114.943 24.7109 115.033 24.8594 115.158 24.9609C115.286 25.0625 115.46 25.1133 115.682 25.1133C115.864 25.1133 116.014 25.0625 116.131 24.9609C116.248 24.8594 116.335 24.7109 116.393 24.5156C116.452 24.3177 116.482 24.0768 116.482 23.793C116.482 23.3659 116.416 23.0443 116.283 22.8281C116.15 22.612 115.945 22.5039 115.666 22.5039ZM122.392 21.6328V23.3594C122.392 23.4479 122.388 23.5599 122.38 23.6953C122.375 23.8281 122.367 23.9635 122.357 24.1016C122.346 24.2396 122.336 24.3633 122.326 24.4727C122.315 24.582 122.307 24.6562 122.302 24.6953L124.318 21.6328H125.751V26H124.599V24.2578C124.599 24.1146 124.604 23.957 124.615 23.7852C124.625 23.6107 124.637 23.4466 124.65 23.293C124.663 23.1393 124.672 23.0234 124.677 22.9453L122.669 26H121.24V21.6328H122.392ZM131.337 26.0781C130.905 26.0781 130.536 26 130.231 25.8438C129.927 25.6849 129.695 25.4401 129.536 25.1094C129.377 24.7786 129.298 24.3555 129.298 23.8398C129.298 23.306 129.388 22.8711 129.567 22.5352C129.75 22.1966 130.001 21.9479 130.321 21.7891C130.644 21.6302 131.018 21.5508 131.442 21.5508C131.744 21.5508 132.005 21.5807 132.224 21.6406C132.445 21.6979 132.638 21.7669 132.802 21.8477L132.45 22.7695C132.263 22.694 132.088 22.6328 131.927 22.5859C131.765 22.5365 131.604 22.5117 131.442 22.5117C131.234 22.5117 131.061 22.5612 130.923 22.6602C130.785 22.7565 130.682 22.9023 130.614 23.0977C130.547 23.293 130.513 23.5378 130.513 23.832C130.513 24.1211 130.549 24.3607 130.622 24.5508C130.695 24.7409 130.8 24.8828 130.938 24.9766C131.076 25.0677 131.244 25.1133 131.442 25.1133C131.69 25.1133 131.91 25.0807 132.103 25.0156C132.295 24.9479 132.483 24.8542 132.665 24.7344V25.7539C132.483 25.8685 132.291 25.9505 132.091 26C131.893 26.0521 131.642 26.0781 131.337 26.0781ZM137.534 22.5273H136.104V26H134.913V22.5273H133.479V21.6328H137.534V22.5273ZM141.02 21.5508C141.512 21.5508 141.909 21.7422 142.211 22.125C142.516 22.5078 142.668 23.069 142.668 23.8086C142.668 24.3034 142.597 24.7201 142.454 25.0586C142.31 25.3945 142.112 25.6484 141.86 25.8203C141.607 25.9922 141.317 26.0781 140.989 26.0781C140.778 26.0781 140.597 26.0521 140.446 26C140.295 25.9453 140.166 25.8763 140.059 25.793C139.952 25.707 139.86 25.6159 139.782 25.5195H139.719C139.74 25.6237 139.756 25.7305 139.766 25.8398C139.777 25.9492 139.782 26.056 139.782 26.1602V27.9219H138.59V21.6328H139.559L139.727 22.1992H139.782C139.86 22.082 139.955 21.974 140.067 21.875C140.179 21.776 140.313 21.6979 140.469 21.6406C140.628 21.5807 140.812 21.5508 141.02 21.5508ZM140.637 22.5039C140.429 22.5039 140.263 22.5469 140.141 22.6328C140.019 22.7188 139.929 22.8477 139.872 23.0195C139.817 23.1914 139.787 23.4089 139.782 23.6719V23.8008C139.782 24.082 139.808 24.3203 139.86 24.5156C139.915 24.7109 140.004 24.8594 140.129 24.9609C140.257 25.0625 140.431 25.1133 140.653 25.1133C140.835 25.1133 140.985 25.0625 141.102 24.9609C141.219 24.8594 141.306 24.7109 141.364 24.5156C141.424 24.3177 141.454 24.0768 141.454 23.793C141.454 23.3659 141.387 23.0443 141.254 22.8281C141.122 22.612 140.916 22.5039 140.637 22.5039ZM145.682 21.543C146.268 21.543 146.717 21.6706 147.03 21.9258C147.342 22.181 147.498 22.569 147.498 23.0898V26H146.666L146.436 25.4062H146.405C146.28 25.5625 146.152 25.6901 146.022 25.7891C145.892 25.888 145.742 25.9609 145.573 26.0078C145.403 26.0547 145.198 26.0781 144.955 26.0781C144.698 26.0781 144.466 26.0286 144.26 25.9297C144.057 25.8307 143.897 25.6797 143.78 25.4766C143.662 25.2708 143.604 25.0104 143.604 24.6953C143.604 24.2318 143.767 23.8906 144.092 23.6719C144.418 23.4505 144.906 23.3281 145.557 23.3047L146.315 23.2812V23.0898C146.315 22.8607 146.255 22.6927 146.135 22.5859C146.015 22.4792 145.849 22.4258 145.635 22.4258C145.424 22.4258 145.217 22.4557 145.014 22.5156C144.811 22.5755 144.608 22.651 144.405 22.7422L144.01 21.9375C144.242 21.8151 144.501 21.7188 144.787 21.6484C145.076 21.5781 145.375 21.543 145.682 21.543ZM146.315 23.9766L145.854 23.9922C145.468 24.0026 145.2 24.0716 145.049 24.1992C144.901 24.3268 144.826 24.4948 144.826 24.7031C144.826 24.8854 144.88 25.0156 144.987 25.0938C145.093 25.1693 145.233 25.207 145.405 25.207C145.66 25.207 145.875 25.1315 146.049 24.9805C146.226 24.8294 146.315 24.6146 146.315 24.3359V23.9766ZM149.863 23.7695L148.457 21.6328H149.809L150.656 23.0234L151.512 21.6328H152.863L151.441 23.7695L152.93 26H151.574L150.656 24.5039L149.734 26H148.383L149.863 23.7695ZM157.802 23.8086C157.802 24.1732 157.753 24.4961 157.654 24.7773C157.558 25.0586 157.416 25.2969 157.228 25.4922C157.043 25.6849 156.819 25.8307 156.556 25.9297C156.296 26.0286 156.002 26.0781 155.674 26.0781C155.366 26.0781 155.084 26.0286 154.826 25.9297C154.571 25.8307 154.348 25.6849 154.158 25.4922C153.97 25.2969 153.825 25.0586 153.72 24.7773C153.619 24.4961 153.568 24.1732 153.568 23.8086C153.568 23.3242 153.654 22.9141 153.826 22.5781C153.998 22.2422 154.243 21.987 154.56 21.8125C154.878 21.638 155.257 21.5508 155.697 21.5508C156.106 21.5508 156.468 21.638 156.783 21.8125C157.101 21.987 157.349 22.2422 157.529 22.5781C157.711 22.9141 157.802 23.3242 157.802 23.8086ZM154.783 23.8086C154.783 24.0951 154.814 24.3359 154.877 24.5312C154.939 24.7266 155.037 24.8737 155.17 24.9727C155.302 25.0716 155.476 25.1211 155.689 25.1211C155.9 25.1211 156.071 25.0716 156.201 24.9727C156.334 24.8737 156.43 24.7266 156.49 24.5312C156.552 24.3359 156.584 24.0951 156.584 23.8086C156.584 23.5195 156.552 23.2799 156.49 23.0898C156.43 22.8971 156.334 22.7526 156.201 22.6562C156.068 22.5599 155.895 22.5117 155.681 22.5117C155.366 22.5117 155.137 22.6198 154.994 22.8359C154.853 23.0521 154.783 23.3763 154.783 23.8086ZM162.898 22.7773C162.898 23.0117 162.824 23.2122 162.675 23.3789C162.529 23.543 162.313 23.6484 162.027 23.6953V23.7266C162.329 23.763 162.572 23.8685 162.757 24.043C162.942 24.2148 163.035 24.4323 163.035 24.6953C163.035 24.9453 162.97 25.1693 162.839 25.3672C162.709 25.5625 162.502 25.7174 162.218 25.832C161.934 25.944 161.563 26 161.105 26H159.027V21.6328H161.105C161.446 21.6328 161.752 21.6693 162.023 21.7422C162.294 21.8125 162.507 21.931 162.664 22.0977C162.82 22.2643 162.898 22.4909 162.898 22.7773ZM161.8 24.6328C161.8 24.4609 161.733 24.3372 161.597 24.2617C161.464 24.1836 161.266 24.1445 161.003 24.1445H160.218V25.1758H161.027C161.251 25.1758 161.436 25.1341 161.582 25.0508C161.727 24.9674 161.8 24.8281 161.8 24.6328ZM161.691 22.8711C161.691 22.7357 161.638 22.6354 161.531 22.5703C161.424 22.5052 161.266 22.4727 161.058 22.4727H160.218V23.3359H160.921C161.174 23.3359 161.365 23.2995 161.496 23.2266C161.626 23.1536 161.691 23.0352 161.691 22.8711ZM166.087 21.543C166.673 21.543 167.122 21.6706 167.435 21.9258C167.747 22.181 167.904 22.569 167.904 23.0898V26H167.072L166.841 25.4062H166.81C166.685 25.5625 166.557 25.6901 166.427 25.7891C166.297 25.888 166.147 25.9609 165.978 26.0078C165.809 26.0547 165.603 26.0781 165.361 26.0781C165.103 26.0781 164.871 26.0286 164.665 25.9297C164.462 25.8307 164.302 25.6797 164.185 25.4766C164.068 25.2708 164.009 25.0104 164.009 24.6953C164.009 24.2318 164.172 23.8906 164.497 23.6719C164.823 23.4505 165.311 23.3281 165.962 23.3047L166.72 23.2812V23.0898C166.72 22.8607 166.66 22.6927 166.54 22.5859C166.421 22.4792 166.254 22.4258 166.04 22.4258C165.829 22.4258 165.622 22.4557 165.419 22.5156C165.216 22.5755 165.013 22.651 164.81 22.7422L164.415 21.9375C164.647 21.8151 164.906 21.7188 165.193 21.6484C165.482 21.5781 165.78 21.543 166.087 21.543ZM166.72 23.9766L166.259 23.9922C165.874 24.0026 165.605 24.0716 165.454 24.1992C165.306 24.3268 165.232 24.4948 165.232 24.7031C165.232 24.8854 165.285 25.0156 165.392 25.0938C165.499 25.1693 165.638 25.207 165.81 25.207C166.065 25.207 166.28 25.1315 166.454 24.9805C166.631 24.8294 166.72 24.6146 166.72 24.3359V23.9766ZM170.565 21.6328V23.3125H172.23V21.6328H173.421V26H172.23V24.1992H170.565V26H169.374V21.6328H170.565ZM176.063 21.6328V23.3594C176.063 23.4479 176.059 23.5599 176.052 23.6953C176.046 23.8281 176.039 23.9635 176.028 24.1016C176.018 24.2396 176.007 24.3633 175.997 24.4727C175.986 24.582 175.979 24.6562 175.973 24.6953L177.989 21.6328H179.423V26H178.27V24.2578C178.27 24.1146 178.276 23.957 178.286 23.7852C178.296 23.6107 178.308 23.4466 178.321 23.293C178.334 23.1393 178.343 23.0234 178.348 22.9453L176.341 26H174.911V21.6328H176.063ZM182.717 21.5508C183.121 21.5508 183.469 21.6289 183.76 21.7852C184.052 21.9388 184.277 22.1628 184.436 22.457C184.595 22.7513 184.674 23.1107 184.674 23.5352V24.1133H181.858C181.871 24.4492 181.971 24.7135 182.159 24.9062C182.349 25.0964 182.612 25.1914 182.948 25.1914C183.226 25.1914 183.482 25.1628 183.713 25.1055C183.945 25.0482 184.183 24.9622 184.428 24.8477V25.7695C184.212 25.8763 183.986 25.9544 183.749 26.0039C183.514 26.0534 183.229 26.0781 182.893 26.0781C182.456 26.0781 182.068 25.9974 181.729 25.8359C181.393 25.6745 181.129 25.4284 180.936 25.0977C180.746 24.7669 180.651 24.3503 180.651 23.8477C180.651 23.3372 180.737 22.9128 180.909 22.5742C181.083 22.2331 181.325 21.9779 181.635 21.8086C181.945 21.6367 182.306 21.5508 182.717 21.5508ZM182.725 22.3984C182.493 22.3984 182.301 22.4727 182.147 22.6211C181.996 22.7695 181.909 23.0026 181.885 23.3203H183.557C183.555 23.1432 183.522 22.9857 183.46 22.8477C183.4 22.7096 183.308 22.6003 183.186 22.5195C183.066 22.4388 182.913 22.3984 182.725 22.3984Z" fill="white"/>
</svg>
