<svg width="255" height="40" viewBox="0 0 255 40" fill="none" xmlns="http://www.w3.org/2000/svg">
<path d="M15.6755 23.1064C15.75 23.1784 15.819 23.2498 15.8842 23.3235C15.9491 23.3971 16.0116 23.473 16.0735 23.554L16.1682 23.6873C16.2331 23.7892 16.2952 23.8878 16.3526 23.9937L17.8082 24.1682L18 25.9256L16.6103 26.3633C16.5757 26.4868 16.535 26.602 16.4882 26.7139C16.4361 26.8412 16.3728 26.9686 16.2989 27.1034C16.2353 27.2125 16.1682 27.3167 16.0926 27.4196L16.6572 28.668L15.1004 29.699L13.9937 28.8097C13.7697 28.8676 13.582 28.8914 13.3508 28.9178C13.1256 28.9311 12.964 28.9381 12.7421 28.9249L11.8487 30L10.1 29.2745L10.3833 27.947C10.306 27.8758 10.2333 27.8034 10.1639 27.7284C10.08 27.6374 10.0024 27.5453 9.92651 27.4462L9.83245 27.3137C9.7673 27.2115 9.70501 27.1133 9.64882 27.0067L8.19198 26.8324L8 25.0746L9.39068 24.6371C9.44748 24.4394 9.50631 24.3009 9.59182 24.1086C9.6934 23.9129 9.77545 23.7604 9.90737 23.5806L9.34304 22.332L10.8998 21.3014L12.0057 22.1901C12.1348 22.159 12.2685 22.1298 12.3994 22.1114C12.4992 22.0975 12.5926 22.0854 12.7068 22.0771L12.8776 22.0679L13.048 22.0662L13.2583 22.0749L14.1515 21L15.9 21.7257L15.6167 23.0536L15.6755 23.1064ZM15.4019 23.45L15.123 23.1983L15.3848 21.971L14.2938 21.5182L13.4676 22.5127C13.3237 22.4994 13.1873 22.4896 13.0421 22.4849L12.748 22.4936L12.468 22.5241L12.3506 22.544L12.1849 22.5796L11.8986 22.6591L10.8726 21.8342L9.90065 22.4782L10.4226 23.6333L10.2535 23.8571L10.1038 24.0917L10.0071 24.2786L9.9202 24.4742C9.85749 24.6386 9.81677 24.7893 9.77565 24.9582L8.48717 25.3639L8.60668 26.4598L9.95745 26.6217C10.0161 26.7426 10.0749 26.8562 10.1421 26.9737L10.2962 27.2024L10.4882 27.4288C10.5519 27.5002 10.6171 27.5686 10.6918 27.6398L10.8779 27.8008L10.6154 29.0293L11.7066 29.482L12.5328 28.4873C12.7221 28.5057 12.8905 28.5164 13.0818 28.5149L13.307 28.5012L13.535 28.4755L13.8107 28.4221L14.1032 28.3432L15.1274 29.166L16.0996 28.5224L15.5772 27.3673L15.7471 27.1428L15.8958 26.9109C15.9711 26.7726 16.0301 26.6478 16.0796 26.5194C16.1291 26.3925 16.1704 26.2591 16.2109 26.102L16.2266 26.0416L17.513 25.6364L17.3935 24.5406L16.044 24.3787C15.9847 24.2581 15.9253 24.1438 15.8579 24.0265C15.7972 23.9322 15.7386 23.8402 15.6667 23.7525C15.581 23.6477 15.5049 23.5551 15.4019 23.45ZM12.7659 23.7146L12.759 23.7159C12.6796 23.7251 12.6024 23.738 12.5299 23.7549C12.4546 23.7722 12.3805 23.7933 12.309 23.8183C12.2386 23.843 12.1671 23.8721 12.0979 23.9054C12.0297 23.9382 11.9623 23.9746 11.9002 24.0137L11.8204 24.0666C11.7583 24.1099 11.6991 24.1567 11.6447 24.2051C11.5894 24.254 11.5368 24.3071 11.4876 24.3623C11.4389 24.4169 11.3935 24.4752 11.3528 24.5338C11.3121 24.5919 11.2742 24.6547 11.2398 24.7203L11.2003 24.8005C11.17 24.8676 11.1437 24.9362 11.1228 25.0033C11.1018 25.0712 11.0849 25.1411 11.0727 25.2108C11.0603 25.2803 11.0521 25.3516 11.0489 25.4224C11.0454 25.4931 11.0462 25.565 11.0519 25.6348L11.0617 25.7238C11.0715 25.7946 11.0861 25.8651 11.1042 25.9328C11.123 26.0021 11.146 26.0705 11.173 26.1363C11.1999 26.2013 11.2319 26.2673 11.2679 26.3308C11.3029 26.3931 11.3422 26.4547 11.3844 26.5113L11.4434 26.5863C11.4902 26.6435 11.5409 26.6976 11.5934 26.7477C11.6468 26.7988 11.704 26.8472 11.7638 26.8924C11.8235 26.9377 11.887 26.9793 11.9507 27.017C12.0134 27.0541 12.0818 27.0891 12.1531 27.1208L12.2414 27.1574C12.3133 27.1849 12.3872 27.2089 12.4593 27.228C12.534 27.2477 12.6101 27.2635 12.6851 27.2747C12.7608 27.2863 12.8386 27.2934 12.9157 27.2968C12.9927 27.3 13.0704 27.2989 13.1474 27.2934L13.2457 27.2848C13.3237 27.2751 13.3996 27.2618 13.4717 27.2453C13.5456 27.2282 13.6197 27.207 13.6916 27.1819C13.7622 27.1572 13.8335 27.1279 13.9027 27.0948C13.9703 27.0625 14.0373 27.0264 14.0987 26.9876L14.1798 26.9334C14.2419 26.8907 14.3005 26.8438 14.3544 26.796C14.4125 26.7439 14.4656 26.6909 14.5126 26.6382C14.5617 26.5829 14.6069 26.5248 14.6478 26.4663C14.6885 26.4079 14.7262 26.3453 14.7602 26.2806L14.8019 26.1953C14.8302 26.1337 14.8553 26.0679 14.8764 25.9989C14.8984 25.9281 14.9155 25.8585 14.9277 25.7901C14.9397 25.7208 14.9479 25.649 14.9515 25.5778C14.9548 25.5066 14.954 25.4355 14.9481 25.3654L14.9385 25.2738C14.9283 25.2031 14.9143 25.1334 14.8958 25.0663C14.8774 24.9983 14.8542 24.9301 14.827 24.8639C14.8003 24.799 14.7687 24.7336 14.7329 24.6703C14.6977 24.6077 14.6582 24.546 14.6156 24.4889L14.5548 24.4113C14.5083 24.3549 14.4579 24.3009 14.4057 24.2514C14.3528 24.201 14.2958 24.1528 14.2362 24.1078C14.1763 24.0627 14.113 24.0207 14.0493 23.983C13.9862 23.9459 13.9173 23.9109 13.8463 23.879L13.7541 23.8411C13.6861 23.8147 13.6138 23.7913 13.5395 23.772C13.4654 23.7523 13.3893 23.7369 13.3141 23.7253C13.2394 23.7141 13.1618 23.7066 13.0845 23.7037C13.0075 23.7004 12.93 23.7013 12.8542 23.7066L12.7659 23.7146ZM12.7007 23.3006L12.8198 23.2895C12.9145 23.283 13.0108 23.2817 13.1048 23.2854C13.1969 23.289 13.2921 23.2982 13.3878 23.3128C13.4805 23.3268 13.5743 23.3461 13.6663 23.3703C13.7577 23.3943 13.8479 23.4232 13.934 23.4567L14.0409 23.5013C14.1276 23.5398 14.2117 23.583 14.2936 23.631C14.3744 23.6786 14.4526 23.7302 14.5242 23.7847C14.5971 23.8396 14.6678 23.8994 14.7339 23.9624C14.7974 24.0227 14.8589 24.088 14.9165 24.1575L14.9878 24.2476C15.0428 24.3222 15.0914 24.3983 15.135 24.4754C15.1785 24.5524 15.2176 24.6334 15.2514 24.7158C15.2848 24.7964 15.3137 24.8811 15.3367 24.9666C15.3597 25.0513 15.3772 25.1375 15.3893 25.2228L15.4017 25.3341C15.4088 25.4222 15.41 25.5107 15.4057 25.5963C15.4011 25.6827 15.3911 25.771 15.3758 25.8578C15.3605 25.9433 15.3398 26.0291 15.3137 26.1131C15.2879 26.1946 15.2563 26.2778 15.2186 26.3603L15.1706 26.4611C15.1279 26.5415 15.0808 26.6195 15.0303 26.6918C14.979 26.7647 14.9228 26.8365 14.8636 26.9034C14.8035 26.9707 14.7384 27.0359 14.6698 27.0968C14.6036 27.1561 14.5318 27.2134 14.4548 27.2666L14.3614 27.3291C14.2797 27.3802 14.1973 27.4248 14.1142 27.4651C14.0299 27.5056 13.9422 27.5414 13.8538 27.5725C13.7649 27.6034 13.6728 27.6299 13.5796 27.651C13.488 27.6724 13.3941 27.6885 13.3013 27.6996L13.1834 27.7103C13.0853 27.7172 12.9892 27.7183 12.8954 27.7146C12.8015 27.7106 12.7056 27.7016 12.612 27.6876C12.5185 27.6735 12.4247 27.654 12.3333 27.6301C12.2437 27.6062 12.1529 27.5768 12.0653 27.5431L11.9591 27.4992C11.8721 27.4606 11.7883 27.4175 11.7068 27.3697C11.627 27.3229 11.5493 27.2711 11.4762 27.2155C11.4035 27.1607 11.3333 27.1015 11.2673 27.0385C11.2028 26.9778 11.1407 26.9115 11.0827 26.841L11.0134 26.7531C10.9579 26.6779 10.9088 26.6017 10.8652 26.5252C10.8217 26.448 10.7828 26.3672 10.749 26.2847C10.7156 26.2041 10.6867 26.1196 10.6639 26.0343C10.6409 25.9496 10.6236 25.863 10.6116 25.7776L10.5989 25.6642C10.592 25.577 10.5908 25.4895 10.5949 25.4035C10.5987 25.3173 10.6091 25.2294 10.6244 25.1435C10.6395 25.0581 10.66 24.9722 10.6861 24.8886C10.7119 24.8064 10.7437 24.7229 10.7805 24.6418L10.8306 24.538C10.8713 24.4613 10.918 24.3837 10.9701 24.3089C11.0195 24.2372 11.0753 24.1656 11.1368 24.097C11.1961 24.0301 11.261 23.965 11.3294 23.9043C11.3958 23.8449 11.468 23.7873 11.545 23.7337L11.6415 23.6702C11.7219 23.6194 11.8042 23.5746 11.887 23.5347C11.9709 23.4944 12.0582 23.459 12.1478 23.4277C12.2343 23.3971 12.3259 23.3711 12.4196 23.3495C12.513 23.3282 12.6069 23.3117 12.7007 23.3006Z" fill="white"/>
<path d="M22.3518 21.7711L22.1998 21.7278L22.2009 21.7238L21.8519 21.6052C21.7222 21.5577 21.5927 21.5067 21.4648 21.4515L19.7568 23.2781L17.954 22.0887L18.96 19.7979L18.8937 19.7342C18.7492 19.5886 18.6192 19.4499 18.49 19.3041C18.3656 19.1644 18.2427 19.018 18.1117 18.8531L18.0546 18.7786L15.6607 19.5075L14.6943 17.5742L16.7106 16.0939L16.685 16.0038C16.6322 15.7999 16.5875 15.6141 16.55 15.4289C16.5122 15.2443 16.4787 15.0554 16.4483 14.8488L16.4369 14.7576L14 14.1915L14.1276 12.0343L16.614 11.7609L16.6361 11.6721C16.6943 11.4634 16.7492 11.2787 16.8066 11.107C16.8668 10.9242 16.932 10.7469 17.0081 10.553L17.0449 10.4661L15.2179 8.75755L16.4071 6.9547L18.6971 7.96127C18.8353 7.81649 18.9737 7.68307 19.1154 7.55494C19.2844 7.4033 19.4593 7.25825 19.6437 7.11083L19.7172 7.05588L18.9896 4.66151L20.9214 3.69483L22.4022 5.71194L22.4912 5.68604C22.6968 5.63294 22.8836 5.58856 23.0667 5.55078C23.2561 5.51194 23.4434 5.47865 23.6468 5.44854L23.7388 5.43691L24.3047 3L26.4618 3.1284L26.7348 5.61577L26.8227 5.63664C27.032 5.69503 27.2153 5.75024 27.3886 5.8081C27.5696 5.86807 27.749 5.93359 27.9437 6.00915L28.0296 6.0464L29.7381 4.21951L31.5418 5.40785L30.5349 7.6984L30.6002 7.76101C30.7455 7.90817 30.8766 8.04687 31.0052 8.19297C31.1378 8.34171 31.2602 8.48754 31.3854 8.64553L31.4398 8.71844L33.8342 7.99033L34.8017 9.92237L32.7846 11.4024L32.8097 11.4914C32.863 11.6962 32.9066 11.8816 32.9447 12.0668C32.9832 12.2539 33.0163 12.4414 33.0472 12.6475L33.0578 12.7387L35.496 13.3054L35.3676 15.4627L32.8799 15.7354L32.8588 15.8239C32.8004 16.0347 32.7449 16.217 32.6884 16.3898C32.6284 16.5702 32.5624 16.7496 32.4863 16.9451L32.4498 17.0302L34.2768 18.7395L33.0881 20.5424L30.7976 19.5358L30.7336 19.6021C30.5867 19.7461 30.4472 19.8771 30.3027 20.0063C30.1627 20.1316 30.0147 20.2541 29.8494 20.386L29.777 20.4404L30.5059 22.8345L28.5741 23.8015L27.0938 21.7849L27.0053 21.8102C26.799 21.8644 26.6156 21.908 26.4301 21.9458C26.246 21.9838 26.0597 22.0163 25.8479 22.0483L25.7567 22.0594L25.1905 24.496L23.0331 24.3681L22.7605 21.8813L22.5045 21.8131L22.5039 21.8171L22.3518 21.7711ZM28.6887 12.7704C28.6507 12.6142 28.6021 12.4599 28.5461 12.3123C28.4895 12.1646 28.4232 12.0166 28.3482 11.8724C28.2748 11.731 28.1936 11.5918 28.1057 11.4645L27.9833 11.2954C27.8861 11.1665 27.781 11.0449 27.6729 10.9316C27.5612 10.8151 27.4417 10.7062 27.3184 10.605C27.1923 10.5025 27.0602 10.4072 26.9289 10.3232C26.7979 10.2391 26.6566 10.1599 26.5076 10.0888L26.3239 10.0066C26.1755 9.94324 26.0222 9.8904 25.8722 9.84628C25.7173 9.80137 25.5588 9.76702 25.4016 9.7414C25.245 9.71392 25.0833 9.69913 24.9218 9.69173C24.7625 9.68407 24.6022 9.68618 24.4413 9.69913L24.2371 9.71736C24.0759 9.74113 23.9182 9.7702 23.7681 9.80745C23.6141 9.84523 23.4587 9.89331 23.3116 9.95064C23.1639 10.0072 23.0149 10.0727 22.8725 10.148C22.7306 10.2209 22.5916 10.302 22.4638 10.3892L22.2942 10.5131C22.1666 10.6077 22.0453 10.7139 21.9322 10.8227C21.812 10.9408 21.701 11.0592 21.603 11.1786C21.5026 11.3041 21.4073 11.4333 21.3227 11.5667C21.2382 11.6988 21.1608 11.8396 21.0889 11.9862L21.002 12.178C20.9446 12.3167 20.8921 12.4663 20.848 12.6214C20.8007 12.7815 20.7663 12.9392 20.7415 13.0935C20.7148 13.2504 20.6976 13.4126 20.6915 13.574C20.6847 13.7344 20.6871 13.8934 20.6976 14.0528L20.7193 14.2591C20.7394 14.4189 20.7682 14.5761 20.8065 14.7272C20.8437 14.8807 20.8926 15.0369 20.9505 15.184C21.0051 15.3317 21.0717 15.4786 21.1462 15.6213C21.2181 15.7634 21.3003 15.9021 21.3888 16.0316L21.5164 16.2067C21.6131 16.3348 21.7169 16.4569 21.8255 16.5684C21.9354 16.6815 22.0535 16.7908 22.1776 16.8931C22.3021 16.9937 22.435 17.0881 22.5673 17.1734C22.6986 17.2571 22.8408 17.3356 22.989 17.4088L23.1795 17.4944C23.3221 17.5541 23.4704 17.6069 23.6268 17.65C23.7803 17.6949 23.9382 17.7293 24.0957 17.7559C24.2516 17.7818 24.4109 17.7972 24.5726 17.8043C24.7327 17.8122 24.8925 17.8093 25.051 17.7985L25.2352 17.7795L25.2487 17.7771C25.4138 17.7559 25.5731 17.7263 25.7253 17.6891C25.8811 17.6497 26.0357 17.6019 26.1839 17.5459C26.3311 17.4896 26.479 17.4244 26.6227 17.3488C26.7646 17.2754 26.9049 17.1924 27.0344 17.1044L27.1992 16.985C27.3292 16.8867 27.4515 16.7824 27.5657 16.6746C27.6798 16.5621 27.7894 16.4418 27.8914 16.3187C27.9931 16.194 28.0882 16.0625 28.172 15.9285C28.2557 15.7991 28.335 15.6572 28.4071 15.5095L28.4893 15.3277C28.5514 15.1761 28.6061 15.0221 28.6496 14.8691C28.6938 14.7167 28.7289 14.5592 28.7543 14.4012C28.7796 14.2438 28.7968 14.0826 28.8045 13.9236C28.8105 13.7635 28.8095 13.6002 28.7979 13.4446L28.7778 13.243C28.7569 13.0834 28.7263 12.9249 28.6887 12.7704Z" fill="white"/>
<path d="M36.7656 3.61887V7.68926H41.4596V20.3507H46.0366V7.68926H50.7422V3.61887H36.7656ZM57.2104 16.5233V13.6633H63.715V10.0709H57.2104V7.44633H65.6459V3.61887H52.6334V20.3507H65.879V16.5233H57.2104ZM74.8888 14.7389L78.2654 20.3507H83.3206L77.7837 11.6243L82.8385 3.61887H77.7837L74.8888 8.51779L71.9938 3.61887H66.9349L71.9938 11.6243L66.4533 20.3507H71.5122L74.8888 14.7389ZM88.5923 11.983C88.5923 10.6168 89.0423 9.47772 89.9455 8.56927C90.8487 7.66548 91.9652 7.21125 93.2981 7.21125C94.631 7.21125 95.7472 7.66548 96.6465 8.56927C97.542 9.47772 97.9916 10.6168 97.9916 11.983C97.9916 13.3527 97.542 14.4919 96.6465 15.4042C95.7472 16.3122 94.631 16.7699 93.2981 16.7699C91.9652 16.7699 90.8487 16.3122 89.9455 15.4042C89.0423 14.4919 88.5923 13.3527 88.5923 11.983ZM102.685 11.983C102.685 9.56524 101.774 7.48629 99.9512 5.74586C98.1282 4.00912 95.9079 3.14111 93.2939 3.14111C90.6762 3.14111 88.4559 4.00912 86.6332 5.74586C84.8102 7.48629 83.8988 9.56524 83.8988 11.983C83.8988 14.4043 84.8102 16.4833 86.6332 18.22C88.4559 19.9605 90.6762 20.8285 93.2939 20.8285C95.9079 20.8285 98.1282 19.9605 99.9512 18.22C101.774 16.4833 102.685 14.4043 102.685 11.983ZM108.684 11.983C108.684 10.6168 109.142 9.47772 110.061 8.56927C110.976 7.66548 112.125 7.21125 113.506 7.21125C114.016 7.21125 114.518 7.287 115.02 7.43824C115.517 7.58973 115.919 7.76083 116.224 7.95203C116.529 8.14324 116.822 8.36214 117.107 8.60531C117.388 8.8524 117.569 9.0235 117.646 9.1191C117.726 9.21862 117.786 9.29829 117.834 9.3581L120.612 6.49032L120.34 6.15205C120.167 5.91697 119.882 5.63825 119.488 5.31174C119.091 4.98498 118.629 4.65847 118.099 4.33171C117.569 4.0052 116.899 3.72232 116.083 3.4914C115.268 3.25657 114.409 3.14111 113.506 3.14111C110.888 3.14111 108.663 4.00912 106.841 5.74586C105.018 7.48629 104.107 9.56524 104.107 11.983C104.107 14.4043 105.018 16.4833 106.841 18.22C108.663 19.9605 110.888 20.8285 113.506 20.8285C114.417 20.8285 115.293 20.7093 116.136 20.4743C116.979 20.235 117.657 19.9683 118.171 19.6737C118.685 19.3788 119.163 19.0363 119.605 18.6539C120.047 18.2676 120.331 18.0009 120.452 17.8494C120.572 17.6942 120.665 17.5746 120.729 17.4793L118.083 14.6112L117.577 15.1451C117.24 15.5116 116.69 15.8739 115.931 16.2325C115.168 16.5909 114.361 16.7699 113.506 16.7699C112.125 16.7699 110.976 16.3122 110.061 15.4042C109.142 14.4919 108.684 13.3527 108.684 11.983ZM131.903 16.2882L136.609 10.4332V20.3507H141.186V3.61887H137.091L131.903 10.1987L126.728 3.61887H122.632V20.3507H127.209V10.4332L131.903 16.2882ZM148.252 11.983C148.252 10.6168 148.702 9.47772 149.605 8.56927C150.509 7.66548 151.625 7.21125 152.958 7.21125C154.291 7.21125 155.407 7.66548 156.307 8.56927C157.202 9.47772 157.651 10.6168 157.651 11.983C157.651 13.3527 157.202 14.4919 156.307 15.4042C155.407 16.3122 154.291 16.7699 152.958 16.7699C151.625 16.7699 150.509 16.3122 149.605 15.4042C148.702 14.4919 148.252 13.3527 148.252 11.983ZM162.345 11.983C162.345 9.56524 161.434 7.48629 159.611 5.74586C157.788 4.00912 155.568 3.14111 152.954 3.14111C150.336 3.14111 148.116 4.00912 146.293 5.74586C144.47 7.48629 143.559 9.56524 143.559 11.983C143.559 14.4043 144.47 16.4833 146.293 18.22C148.116 19.9605 150.336 20.8285 152.954 20.8285C155.568 20.8285 157.788 19.9605 159.611 18.22C161.434 16.4833 162.345 14.4043 162.345 11.983ZM163.285 3.61887V7.68926H167.978V20.3507H172.555V7.68926H177.261V3.61887H163.285ZM179.152 3.61887V20.3507H183.73V15.3322H186.741C188.584 15.3322 190.089 14.7789 191.254 13.6714C192.418 12.5602 193 11.1623 193 9.47772C193 7.78878 192.418 6.3908 191.258 5.27963C190.097 4.17262 188.592 3.61887 186.741 3.61887H179.152ZM186.495 7.68926C187.026 7.68926 187.483 7.86845 187.857 8.22707C188.234 8.58545 188.423 9.00364 188.423 9.48165C188.423 9.9594 188.234 10.3776 187.857 10.7362C187.483 11.0946 187.026 11.2738 186.495 11.2738H183.73V7.68926H186.495Z" fill="white"/>
<path d="M36.9219 29H35.7109V24.2969H34.1602V23.2891H38.4727V24.2969H36.9219V29ZM41.2986 24.5508C41.7022 24.5508 42.0499 24.6289 42.3416 24.7852C42.6332 24.9388 42.8585 25.1628 43.0173 25.457C43.1762 25.7513 43.2556 26.1107 43.2556 26.5352V27.1133H40.4392C40.4522 27.4492 40.5525 27.7135 40.74 27.9062C40.9301 28.0964 41.1931 28.1914 41.5291 28.1914C41.8077 28.1914 42.0629 28.1628 42.2947 28.1055C42.5265 28.0482 42.7647 27.9622 43.0095 27.8477V28.7695C42.7934 28.8763 42.5668 28.9544 42.3298 29.0039C42.0955 29.0534 41.8103 29.0781 41.4744 29.0781C41.0369 29.0781 40.6489 28.9974 40.3103 28.8359C39.9744 28.6745 39.7101 28.4284 39.5173 28.0977C39.3272 27.7669 39.2322 27.3503 39.2322 26.8477C39.2322 26.3372 39.3181 25.9128 39.49 25.5742C39.6645 25.2331 39.9067 24.9779 40.2166 24.8086C40.5265 24.6367 40.8871 24.5508 41.2986 24.5508ZM41.3064 25.3984C41.0746 25.3984 40.8819 25.4727 40.7283 25.6211C40.5772 25.7695 40.49 26.0026 40.4666 26.3203H42.1384C42.1358 26.1432 42.1033 25.9857 42.0408 25.8477C41.9809 25.7096 41.8897 25.6003 41.7673 25.5195C41.6476 25.4388 41.4939 25.3984 41.3064 25.3984ZM45.3589 26.7695L43.9527 24.6328H45.3042L46.1519 26.0234L47.0073 24.6328H48.3589L46.937 26.7695L48.4253 29H47.0698L46.1519 27.5039L45.23 29H43.8784L45.3589 26.7695ZM50.5208 24.6328V26.3125H52.1848V24.6328H53.3763V29H52.1848V27.1992H50.5208V29H49.3294V24.6328H50.5208ZM56.0186 24.6328V26.3594C56.0186 26.4479 56.0147 26.5599 56.0069 26.6953C56.0017 26.8281 55.9939 26.9635 55.9834 27.1016C55.973 27.2396 55.9626 27.3633 55.9522 27.4727C55.9418 27.582 55.934 27.6562 55.9287 27.6953L57.9444 24.6328H59.378V29H58.2256V27.2578C58.2256 27.1146 58.2308 26.957 58.2412 26.7852C58.2517 26.6107 58.2634 26.4466 58.2764 26.293C58.2894 26.1393 58.2985 26.0234 58.3037 25.9453L56.2959 29H54.8662V24.6328H56.0186ZM61.9188 24.6328V26.2305C61.9188 26.4206 61.9643 26.5638 62.0555 26.6602C62.1492 26.7539 62.2794 26.8008 62.4461 26.8008C62.6753 26.8008 62.8875 26.7747 63.0828 26.7227C63.2807 26.6706 63.4799 26.6029 63.6805 26.5195V24.6328H64.8719V29H63.6805V27.2656C63.4904 27.3646 63.2755 27.4557 63.0359 27.5391C62.799 27.6224 62.5281 27.6641 62.2234 27.6641C61.7677 27.6641 61.4044 27.5482 61.1336 27.3164C60.8628 27.082 60.7273 26.7292 60.7273 26.2578V24.6328H61.9188ZM68.1627 24.5508C68.5663 24.5508 68.914 24.6289 69.2056 24.7852C69.4973 24.9388 69.7226 25.1628 69.8814 25.457C70.0403 25.7513 70.1197 26.1107 70.1197 26.5352V27.1133H67.3033C67.3163 27.4492 67.4166 27.7135 67.6041 27.9062C67.7942 28.0964 68.0572 28.1914 68.3931 28.1914C68.6718 28.1914 68.927 28.1628 69.1588 28.1055C69.3905 28.0482 69.6288 27.9622 69.8736 27.8477V28.7695C69.6574 28.8763 69.4309 28.9544 69.1939 29.0039C68.9595 29.0534 68.6744 29.0781 68.3384 29.0781C67.9009 29.0781 67.5129 28.9974 67.1744 28.8359C66.8384 28.6745 66.5741 28.4284 66.3814 28.0977C66.1913 27.7669 66.0963 27.3503 66.0963 26.8477C66.0963 26.3372 66.1822 25.9128 66.3541 25.5742C66.5285 25.2331 66.7707 24.9779 67.0806 24.8086C67.3905 24.6367 67.7512 24.5508 68.1627 24.5508ZM68.1705 25.3984C67.9387 25.3984 67.746 25.4727 67.5923 25.6211C67.4413 25.7695 67.3541 26.0026 67.3306 26.3203H69.0025C68.9999 26.1432 68.9673 25.9857 68.9048 25.8477C68.8449 25.7096 68.7538 25.6003 68.6314 25.5195C68.5116 25.4388 68.358 25.3984 68.1705 25.3984ZM73.1019 29.0781C72.6696 29.0781 72.3011 29 71.9964 28.8438C71.6917 28.6849 71.4599 28.4401 71.3011 28.1094C71.1422 27.7786 71.0628 27.3555 71.0628 26.8398C71.0628 26.306 71.1527 25.8711 71.3323 25.5352C71.5146 25.1966 71.7659 24.9479 72.0863 24.7891C72.4092 24.6302 72.7829 24.5508 73.2073 24.5508C73.5094 24.5508 73.7698 24.5807 73.9886 24.6406C74.2099 24.6979 74.4027 24.7669 74.5667 24.8477L74.2152 25.7695C74.0277 25.694 73.8532 25.6328 73.6917 25.5859C73.5303 25.5365 73.3688 25.5117 73.2073 25.5117C72.999 25.5117 72.8258 25.5612 72.6878 25.6602C72.5498 25.7565 72.4469 25.9023 72.3792 26.0977C72.3115 26.293 72.2777 26.5378 72.2777 26.832C72.2777 27.1211 72.3141 27.3607 72.387 27.5508C72.4599 27.7409 72.5654 27.8828 72.7034 27.9766C72.8415 28.0677 73.0094 28.1133 73.2073 28.1133C73.4547 28.1133 73.6748 28.0807 73.8675 28.0156C74.0602 27.9479 74.2477 27.8542 74.43 27.7344V28.7539C74.2477 28.8685 74.0563 28.9505 73.8558 29C73.6579 29.0521 73.4066 29.0781 73.1019 29.0781ZM78.5489 24.6328H79.8614L78.1309 26.7266L80.0137 29H78.6622L76.877 26.7852V29H75.6856V24.6328H76.877V26.7539L78.5489 24.6328ZM82.0311 24.6328V26.3594C82.0311 26.4479 82.0272 26.5599 82.0194 26.6953C82.0142 26.8281 82.0064 26.9635 81.9959 27.1016C81.9855 27.2396 81.9751 27.3633 81.9647 27.4727C81.9543 27.582 81.9465 27.6562 81.9412 27.6953L83.9569 24.6328H85.3905V29H84.2381V27.2578C84.2381 27.1146 84.2433 26.957 84.2537 26.7852C84.2642 26.6107 84.2759 26.4466 84.2889 26.293C84.3019 26.1393 84.311 26.0234 84.3162 25.9453L82.3084 29H80.8787V24.6328H82.0311ZM88.0367 24.6328V26.3594C88.0367 26.4479 88.0328 26.5599 88.025 26.6953C88.0198 26.8281 88.012 26.9635 88.0016 27.1016C87.9911 27.2396 87.9807 27.3633 87.9703 27.4727C87.9599 27.582 87.9521 27.6562 87.9469 27.6953L89.9625 24.6328H91.3961V29H90.2438V27.2578C90.2438 27.1146 90.249 26.957 90.2594 26.7852C90.2698 26.6107 90.2815 26.4466 90.2945 26.293C90.3076 26.1393 90.3167 26.0234 90.3219 25.9453L88.3141 29H86.8844V24.6328H88.0367ZM91.068 22.7539C91.0393 23.0299 90.9612 23.2734 90.8336 23.4844C90.706 23.6953 90.5068 23.8594 90.2359 23.9766C89.9651 24.0938 89.6005 24.1523 89.1422 24.1523C88.6708 24.1523 88.3036 24.0964 88.0406 23.9844C87.7776 23.8698 87.5901 23.7083 87.4781 23.5C87.3661 23.2891 87.2984 23.0404 87.275 22.7539H88.3414C88.3648 23.0482 88.4391 23.2435 88.5641 23.3398C88.6891 23.4336 88.8896 23.4805 89.1656 23.4805C89.3948 23.4805 89.5823 23.4284 89.7281 23.3242C89.874 23.2201 89.9612 23.0299 89.9898 22.7539H91.068ZM99.1769 26.8086C99.1769 27.1732 99.1274 27.4961 99.0284 27.7773C98.9321 28.0586 98.7902 28.2969 98.6027 28.4922C98.4178 28.6849 98.1938 28.8307 97.9308 28.9297C97.6704 29.0286 97.3761 29.0781 97.048 29.0781C96.7407 29.0781 96.4581 29.0286 96.2003 28.9297C95.9451 28.8307 95.7224 28.6849 95.5323 28.4922C95.3448 28.2969 95.199 28.0586 95.0948 27.7773C94.9933 27.4961 94.9425 27.1732 94.9425 26.8086C94.9425 26.3242 95.0284 25.9141 95.2003 25.5781C95.3722 25.2422 95.617 24.987 95.9347 24.8125C96.2524 24.638 96.6313 24.5508 97.0714 24.5508C97.4803 24.5508 97.8422 24.638 98.1573 24.8125C98.4751 24.987 98.7238 25.2422 98.9034 25.5781C99.0857 25.9141 99.1769 26.3242 99.1769 26.8086ZM96.1573 26.8086C96.1573 27.0951 96.1886 27.3359 96.2511 27.5312C96.3136 27.7266 96.4113 27.8737 96.5441 27.9727C96.6769 28.0716 96.8501 28.1211 97.0636 28.1211C97.2745 28.1211 97.4451 28.0716 97.5753 27.9727C97.7081 27.8737 97.8045 27.7266 97.8644 27.5312C97.9269 27.3359 97.9581 27.0951 97.9581 26.8086C97.9581 26.5195 97.9269 26.2799 97.8644 26.0898C97.8045 25.8971 97.7081 25.7526 97.5753 25.6562C97.4425 25.5599 97.2693 25.5117 97.0558 25.5117C96.7407 25.5117 96.5115 25.6198 96.3683 25.8359C96.2277 26.0521 96.1573 26.3763 96.1573 26.8086ZM102.175 29.0781C101.742 29.0781 101.374 29 101.069 28.8438C100.765 28.6849 100.533 28.4401 100.374 28.1094C100.215 27.7786 100.136 27.3555 100.136 26.8398C100.136 26.306 100.225 25.8711 100.405 25.5352C100.587 25.1966 100.839 24.9479 101.159 24.7891C101.482 24.6302 101.856 24.5508 102.28 24.5508C102.582 24.5508 102.843 24.5807 103.061 24.6406C103.283 24.6979 103.475 24.7669 103.64 24.8477L103.288 25.7695C103.1 25.694 102.926 25.6328 102.765 25.5859C102.603 25.5365 102.442 25.5117 102.28 25.5117C102.072 25.5117 101.899 25.5612 101.761 25.6602C101.623 25.7565 101.52 25.9023 101.452 26.0977C101.384 26.293 101.35 26.5378 101.35 26.832C101.35 27.1211 101.387 27.3607 101.46 27.5508C101.533 27.7409 101.638 27.8828 101.776 27.9766C101.914 28.0677 102.082 28.1133 102.28 28.1133C102.528 28.1133 102.748 28.0807 102.94 28.0156C103.133 27.9479 103.321 27.8542 103.503 27.7344V28.7539C103.321 28.8685 103.129 28.9505 102.929 29C102.731 29.0521 102.479 29.0781 102.175 29.0781ZM110.262 24.6328V29H109.149V26.8555C109.149 26.6445 109.153 26.4375 109.161 26.2344C109.169 26.0312 109.18 25.8438 109.196 25.6719H109.173L107.965 29H107.071L105.844 25.6641H105.813C105.834 25.8385 105.848 26.026 105.856 26.2266C105.864 26.4271 105.868 26.6471 105.868 26.8867V29H104.758V24.6328H106.446L107.532 27.5938L108.637 24.6328H110.262ZM115.725 26.8086C115.725 27.1732 115.676 27.4961 115.577 27.7773C115.48 28.0586 115.338 28.2969 115.151 28.4922C114.966 28.6849 114.742 28.8307 114.479 28.9297C114.218 29.0286 113.924 29.0781 113.596 29.0781C113.289 29.0781 113.006 29.0286 112.748 28.9297C112.493 28.8307 112.271 28.6849 112.08 28.4922C111.893 28.2969 111.747 28.0586 111.643 27.7773C111.541 27.4961 111.491 27.1732 111.491 26.8086C111.491 26.3242 111.577 25.9141 111.748 25.5781C111.92 25.2422 112.165 24.987 112.483 24.8125C112.801 24.638 113.179 24.5508 113.62 24.5508C114.028 24.5508 114.39 24.638 114.705 24.8125C115.023 24.987 115.272 25.2422 115.452 25.5781C115.634 25.9141 115.725 26.3242 115.725 26.8086ZM112.705 26.8086C112.705 27.0951 112.737 27.3359 112.799 27.5312C112.862 27.7266 112.959 27.8737 113.092 27.9727C113.225 28.0716 113.398 28.1211 113.612 28.1211C113.823 28.1211 113.993 28.0716 114.123 27.9727C114.256 27.8737 114.353 27.7266 114.412 27.5312C114.475 27.3359 114.506 27.0951 114.506 26.8086C114.506 26.5195 114.475 26.2799 114.412 26.0898C114.353 25.8971 114.256 25.7526 114.123 25.6562C113.991 25.5599 113.817 25.5117 113.604 25.5117C113.289 25.5117 113.06 25.6198 112.916 25.8359C112.776 26.0521 112.705 26.3763 112.705 26.8086ZM120.563 25.5273H119.133V29H117.942V25.5273H116.508V24.6328H120.563V25.5273ZM124.049 24.5508C124.541 24.5508 124.938 24.7422 125.24 25.125C125.545 25.5078 125.697 26.069 125.697 26.8086C125.697 27.3034 125.626 27.7201 125.482 28.0586C125.339 28.3945 125.141 28.6484 124.889 28.8203C124.636 28.9922 124.346 29.0781 124.018 29.0781C123.807 29.0781 123.626 29.0521 123.475 29C123.323 28.9453 123.195 28.8763 123.088 28.793C122.981 28.707 122.889 28.6159 122.81 28.5195H122.748C122.769 28.6237 122.784 28.7305 122.795 28.8398C122.805 28.9492 122.81 29.056 122.81 29.1602V30.9219H121.619V24.6328H122.588L122.756 25.1992H122.81C122.889 25.082 122.984 24.974 123.096 24.875C123.208 24.776 123.342 24.6979 123.498 24.6406C123.657 24.5807 123.84 24.5508 124.049 24.5508ZM123.666 25.5039C123.458 25.5039 123.292 25.5469 123.17 25.6328C123.047 25.7188 122.958 25.8477 122.9 26.0195C122.846 26.1914 122.816 26.4089 122.81 26.6719V26.8008C122.81 27.082 122.837 27.3203 122.889 27.5156C122.943 27.7109 123.033 27.8594 123.158 27.9609C123.286 28.0625 123.46 28.1133 123.682 28.1133C123.864 28.1133 124.014 28.0625 124.131 27.9609C124.248 27.8594 124.335 27.7109 124.393 27.5156C124.452 27.3177 124.482 27.0768 124.482 26.793C124.482 26.3659 124.416 26.0443 124.283 25.8281C124.15 25.612 123.945 25.5039 123.666 25.5039ZM130.392 24.6328V26.3594C130.392 26.4479 130.388 26.5599 130.38 26.6953C130.375 26.8281 130.367 26.9635 130.357 27.1016C130.346 27.2396 130.336 27.3633 130.326 27.4727C130.315 27.582 130.307 27.6562 130.302 27.6953L132.318 24.6328H133.751V29H132.599V27.2578C132.599 27.1146 132.604 26.957 132.615 26.7852C132.625 26.6107 132.637 26.4466 132.65 26.293C132.663 26.1393 132.672 26.0234 132.677 25.9453L130.669 29H129.24V24.6328H130.392ZM139.337 29.0781C138.905 29.0781 138.536 29 138.231 28.8438C137.927 28.6849 137.695 28.4401 137.536 28.1094C137.377 27.7786 137.298 27.3555 137.298 26.8398C137.298 26.306 137.388 25.8711 137.567 25.5352C137.75 25.1966 138.001 24.9479 138.321 24.7891C138.644 24.6302 139.018 24.5508 139.442 24.5508C139.744 24.5508 140.005 24.5807 140.224 24.6406C140.445 24.6979 140.638 24.7669 140.802 24.8477L140.45 25.7695C140.263 25.694 140.088 25.6328 139.927 25.5859C139.765 25.5365 139.604 25.5117 139.442 25.5117C139.234 25.5117 139.061 25.5612 138.923 25.6602C138.785 25.7565 138.682 25.9023 138.614 26.0977C138.547 26.293 138.513 26.5378 138.513 26.832C138.513 27.1211 138.549 27.3607 138.622 27.5508C138.695 27.7409 138.8 27.8828 138.938 27.9766C139.076 28.0677 139.244 28.1133 139.442 28.1133C139.69 28.1133 139.91 28.0807 140.103 28.0156C140.295 27.9479 140.483 27.8542 140.665 27.7344V28.7539C140.483 28.8685 140.291 28.9505 140.091 29C139.893 29.0521 139.642 29.0781 139.337 29.0781ZM145.534 25.5273H144.104V29H142.913V25.5273H141.479V24.6328H145.534V25.5273ZM149.02 24.5508C149.512 24.5508 149.909 24.7422 150.211 25.125C150.516 25.5078 150.668 26.069 150.668 26.8086C150.668 27.3034 150.597 27.7201 150.454 28.0586C150.31 28.3945 150.112 28.6484 149.86 28.8203C149.607 28.9922 149.317 29.0781 148.989 29.0781C148.778 29.0781 148.597 29.0521 148.446 29C148.295 28.9453 148.166 28.8763 148.059 28.793C147.952 28.707 147.86 28.6159 147.782 28.5195H147.719C147.74 28.6237 147.756 28.7305 147.766 28.8398C147.777 28.9492 147.782 29.056 147.782 29.1602V30.9219H146.59V24.6328H147.559L147.727 25.1992H147.782C147.86 25.082 147.955 24.974 148.067 24.875C148.179 24.776 148.313 24.6979 148.469 24.6406C148.628 24.5807 148.812 24.5508 149.02 24.5508ZM148.637 25.5039C148.429 25.5039 148.263 25.5469 148.141 25.6328C148.019 25.7188 147.929 25.8477 147.872 26.0195C147.817 26.1914 147.787 26.4089 147.782 26.6719V26.8008C147.782 27.082 147.808 27.3203 147.86 27.5156C147.915 27.7109 148.004 27.8594 148.129 27.9609C148.257 28.0625 148.431 28.1133 148.653 28.1133C148.835 28.1133 148.985 28.0625 149.102 27.9609C149.219 27.8594 149.306 27.7109 149.364 27.5156C149.424 27.3177 149.454 27.0768 149.454 26.793C149.454 26.3659 149.387 26.0443 149.254 25.8281C149.122 25.612 148.916 25.5039 148.637 25.5039ZM153.682 24.543C154.268 24.543 154.717 24.6706 155.03 24.9258C155.342 25.181 155.498 25.569 155.498 26.0898V29H154.666L154.436 28.4062H154.405C154.28 28.5625 154.152 28.6901 154.022 28.7891C153.892 28.888 153.742 28.9609 153.573 29.0078C153.403 29.0547 153.198 29.0781 152.955 29.0781C152.698 29.0781 152.466 29.0286 152.26 28.9297C152.057 28.8307 151.897 28.6797 151.78 28.4766C151.662 28.2708 151.604 28.0104 151.604 27.6953C151.604 27.2318 151.767 26.8906 152.092 26.6719C152.418 26.4505 152.906 26.3281 153.557 26.3047L154.315 26.2812V26.0898C154.315 25.8607 154.255 25.6927 154.135 25.5859C154.015 25.4792 153.849 25.4258 153.635 25.4258C153.424 25.4258 153.217 25.4557 153.014 25.5156C152.811 25.5755 152.608 25.651 152.405 25.7422L152.01 24.9375C152.242 24.8151 152.501 24.7188 152.787 24.6484C153.076 24.5781 153.375 24.543 153.682 24.543ZM154.315 26.9766L153.854 26.9922C153.468 27.0026 153.2 27.0716 153.049 27.1992C152.901 27.3268 152.826 27.4948 152.826 27.7031C152.826 27.8854 152.88 28.0156 152.987 28.0938C153.093 28.1693 153.233 28.207 153.405 28.207C153.66 28.207 153.875 28.1315 154.049 27.9805C154.226 27.8294 154.315 27.6146 154.315 27.3359V26.9766ZM157.863 26.7695L156.457 24.6328H157.809L158.656 26.0234L159.512 24.6328H160.863L159.441 26.7695L160.93 29H159.574L158.656 27.5039L157.734 29H156.383L157.863 26.7695ZM165.802 26.8086C165.802 27.1732 165.753 27.4961 165.654 27.7773C165.558 28.0586 165.416 28.2969 165.228 28.4922C165.043 28.6849 164.819 28.8307 164.556 28.9297C164.296 29.0286 164.002 29.0781 163.674 29.0781C163.366 29.0781 163.084 29.0286 162.826 28.9297C162.571 28.8307 162.348 28.6849 162.158 28.4922C161.97 28.2969 161.825 28.0586 161.72 27.7773C161.619 27.4961 161.568 27.1732 161.568 26.8086C161.568 26.3242 161.654 25.9141 161.826 25.5781C161.998 25.2422 162.243 24.987 162.56 24.8125C162.878 24.638 163.257 24.5508 163.697 24.5508C164.106 24.5508 164.468 24.638 164.783 24.8125C165.101 24.987 165.349 25.2422 165.529 25.5781C165.711 25.9141 165.802 26.3242 165.802 26.8086ZM162.783 26.8086C162.783 27.0951 162.814 27.3359 162.877 27.5312C162.939 27.7266 163.037 27.8737 163.17 27.9727C163.302 28.0716 163.476 28.1211 163.689 28.1211C163.9 28.1211 164.071 28.0716 164.201 27.9727C164.334 27.8737 164.43 27.7266 164.49 27.5312C164.552 27.3359 164.584 27.0951 164.584 26.8086C164.584 26.5195 164.552 26.2799 164.49 26.0898C164.43 25.8971 164.334 25.7526 164.201 25.6562C164.068 25.5599 163.895 25.5117 163.681 25.5117C163.366 25.5117 163.137 25.6198 162.994 25.8359C162.853 26.0521 162.783 26.3763 162.783 26.8086ZM170.898 25.7773C170.898 26.0117 170.824 26.2122 170.675 26.3789C170.529 26.543 170.313 26.6484 170.027 26.6953V26.7266C170.329 26.763 170.572 26.8685 170.757 27.043C170.942 27.2148 171.035 27.4323 171.035 27.6953C171.035 27.9453 170.97 28.1693 170.839 28.3672C170.709 28.5625 170.502 28.7174 170.218 28.832C169.934 28.944 169.563 29 169.105 29H167.027V24.6328H169.105C169.446 24.6328 169.752 24.6693 170.023 24.7422C170.294 24.8125 170.507 24.931 170.664 25.0977C170.82 25.2643 170.898 25.4909 170.898 25.7773ZM169.8 27.6328C169.8 27.4609 169.733 27.3372 169.597 27.2617C169.464 27.1836 169.266 27.1445 169.003 27.1445H168.218V28.1758H169.027C169.251 28.1758 169.436 28.1341 169.582 28.0508C169.727 27.9674 169.8 27.8281 169.8 27.6328ZM169.691 25.8711C169.691 25.7357 169.638 25.6354 169.531 25.5703C169.424 25.5052 169.266 25.4727 169.058 25.4727H168.218V26.3359H168.921C169.174 26.3359 169.365 26.2995 169.496 26.2266C169.626 26.1536 169.691 26.0352 169.691 25.8711ZM174.087 24.543C174.673 24.543 175.122 24.6706 175.435 24.9258C175.747 25.181 175.904 25.569 175.904 26.0898V29H175.072L174.841 28.4062H174.81C174.685 28.5625 174.557 28.6901 174.427 28.7891C174.297 28.888 174.147 28.9609 173.978 29.0078C173.809 29.0547 173.603 29.0781 173.361 29.0781C173.103 29.0781 172.871 29.0286 172.665 28.9297C172.462 28.8307 172.302 28.6797 172.185 28.4766C172.068 28.2708 172.009 28.0104 172.009 27.6953C172.009 27.2318 172.172 26.8906 172.497 26.6719C172.823 26.4505 173.311 26.3281 173.962 26.3047L174.72 26.2812V26.0898C174.72 25.8607 174.66 25.6927 174.54 25.5859C174.421 25.4792 174.254 25.4258 174.04 25.4258C173.829 25.4258 173.622 25.4557 173.419 25.5156C173.216 25.5755 173.013 25.651 172.81 25.7422L172.415 24.9375C172.647 24.8151 172.906 24.7188 173.193 24.6484C173.482 24.5781 173.78 24.543 174.087 24.543ZM174.72 26.9766L174.259 26.9922C173.874 27.0026 173.605 27.0716 173.454 27.1992C173.306 27.3268 173.232 27.4948 173.232 27.7031C173.232 27.8854 173.285 28.0156 173.392 28.0938C173.499 28.1693 173.638 28.207 173.81 28.207C174.065 28.207 174.28 28.1315 174.454 27.9805C174.631 27.8294 174.72 27.6146 174.72 27.3359V26.9766ZM178.565 24.6328V26.3125H180.23V24.6328H181.421V29H180.23V27.1992H178.565V29H177.374V24.6328H178.565ZM184.063 24.6328V26.3594C184.063 26.4479 184.059 26.5599 184.052 26.6953C184.046 26.8281 184.039 26.9635 184.028 27.1016C184.018 27.2396 184.007 27.3633 183.997 27.4727C183.986 27.582 183.979 27.6562 183.973 27.6953L185.989 24.6328H187.423V29H186.27V27.2578C186.27 27.1146 186.276 26.957 186.286 26.7852C186.296 26.6107 186.308 26.4466 186.321 26.293C186.334 26.1393 186.343 26.0234 186.348 25.9453L184.341 29H182.911V24.6328H184.063ZM190.717 24.5508C191.121 24.5508 191.469 24.6289 191.76 24.7852C192.052 24.9388 192.277 25.1628 192.436 25.457C192.595 25.7513 192.674 26.1107 192.674 26.5352V27.1133H189.858C189.871 27.4492 189.971 27.7135 190.159 27.9062C190.349 28.0964 190.612 28.1914 190.948 28.1914C191.226 28.1914 191.482 28.1628 191.713 28.1055C191.945 28.0482 192.183 27.9622 192.428 27.8477V28.7695C192.212 28.8763 191.986 28.9544 191.749 29.0039C191.514 29.0534 191.229 29.0781 190.893 29.0781C190.456 29.0781 190.068 28.9974 189.729 28.8359C189.393 28.6745 189.129 28.4284 188.936 28.0977C188.746 27.7669 188.651 27.3503 188.651 26.8477C188.651 26.3372 188.737 25.9128 188.909 25.5742C189.083 25.2331 189.325 24.9779 189.635 24.8086C189.945 24.6367 190.306 24.5508 190.717 24.5508ZM190.725 25.3984C190.493 25.3984 190.301 25.4727 190.147 25.6211C189.996 25.7695 189.909 26.0026 189.885 26.3203H191.557C191.555 26.1432 191.522 25.9857 191.46 25.8477C191.4 25.7096 191.308 25.6003 191.186 25.5195C191.066 25.4388 190.913 25.3984 190.725 25.3984Z" fill="white"/>
</svg>
