<svg width="16" height="16" viewBox="0 0 16 16" fill="none" xmlns="http://www.w3.org/2000/svg">
<path fill-rule="evenodd" clip-rule="evenodd" d="M11.6532 0C14.1313 0 16 2.10916 16 4.90611V10.2376C16 11.6691 15.5148 12.9624 14.6329 13.8799C13.8419 14.702 12.8156 15.1375 11.6651 15.1375H4.33265C3.18437 15.1375 2.15888 14.7028 1.36707 13.8799C0.485209 12.9624 0 11.6691 0 10.2376V4.90611C0 2.10916 1.86865 0 4.34679 0H11.6532ZM11.6532 1.16442H4.34679C2.47516 1.16442 1.11628 2.73795 1.11628 4.90611V10.2376C1.11628 11.3578 1.4854 12.3584 2.15516 13.0547C2.73265 13.6564 3.48651 13.9731 4.33488 13.9731H11.6532C11.6547 13.9715 11.6607 13.9731 11.6651 13.9731C12.5142 13.9731 13.2673 13.6564 13.8448 13.0547C14.5153 12.3584 14.8837 11.3578 14.8837 10.2376V4.90611C14.8837 2.73795 13.5248 1.16442 11.6532 1.16442ZM12.826 4.75768C13.0203 5.00687 12.9838 5.37327 12.7449 5.57666L9.43777 8.38059C9.01954 8.72682 8.51944 8.89993 8.02009 8.89993C7.52223 8.89993 7.02586 8.72837 6.6106 8.38525L3.27293 5.57821C3.03256 5.37638 2.99535 5.0092 3.18809 4.75923C3.38233 4.51005 3.73358 4.47046 3.97321 4.67151L7.30791 7.47545C7.72688 7.82167 8.31702 7.82167 8.73898 7.47234L12.0402 4.67307C12.2798 4.4689 12.6311 4.50772 12.826 4.75768Z" fill="white"/>
</svg>
