<?xml version="1.0" encoding="UTF-8" standalone="no"?><!-- Generator: Gravit.io --><svg xmlns="http://www.w3.org/2000/svg" xmlns:xlink="http://www.w3.org/1999/xlink" style="isolation:isolate" viewBox="0 0 512 512" width="512pt" height="512pt"><defs><clipPath id="_clipPath_9PcChlkGEhSpU11aa9wPijV4weKr1Ssk"><rect width="512" height="512"/></clipPath></defs><g clip-path="url(#_clipPath_9PcChlkGEhSpU11aa9wPijV4weKr1Ssk)"><g><path d=" M 436.664 106.667 L 394.667 106.667 C 388.779 106.667 384 111.445 384 117.333 C 384 123.221 388.779 128 394.667 128 L 458.667 128 C 464.555 128 469.333 123.221 469.333 117.333 L 469.333 53.333 C 469.333 47.445 464.555 42.667 458.667 42.667 C 452.779 42.667 448 47.445 448 53.333 L 448 87.061 C 399.86 32.188 329.61 0 256 0 C 114.837 0 0 114.837 0 256 C 0 397.163 114.837 512 256 512 C 397.163 512 512 397.163 512 256 C 512 243.968 511.275 233.003 509.76 222.485 C 508.907 216.64 503.488 212.608 497.685 213.44 C 491.861 214.293 487.808 219.691 488.64 225.515 C 490.005 235.029 490.667 244.992 490.667 256 C 490.667 385.387 385.387 490.667 256 490.667 C 126.613 490.667 21.333 385.387 21.333 256 C 21.333 126.613 126.613 21.333 256 21.333 C 325.893 21.333 392.5 53.006 436.664 106.667 L 436.664 106.667 Z  M 149.333 185.941 L 149.333 267.435 C 149.333 348.181 235.84 394.539 256 404.267 C 276.139 394.517 362.667 347.989 362.667 267.435 L 362.667 185.941 L 256 149.931 L 149.333 185.941 L 149.333 185.941 L 149.333 185.941 Z  M 256 426.667 C 254.592 426.667 253.184 426.389 251.861 425.813 C 246.784 423.701 128 372.352 128 267.435 L 128 178.283 C 128 173.717 130.923 169.643 135.253 168.171 L 252.587 128.555 C 254.805 127.808 257.195 127.808 259.413 128.555 L 376.747 168.171 C 381.077 169.643 384 173.717 384 178.283 L 384 267.435 C 384 372.352 265.216 423.701 260.139 425.835 C 258.816 426.389 257.408 426.667 256 426.667 L 256 426.667 L 256 426.667 Z  M 245.333 320 C 245.141 320 244.928 320 244.736 319.979 C 241.707 319.808 238.891 318.357 236.992 315.989 L 194.325 262.656 C 190.656 258.048 191.403 251.349 195.989 247.659 C 200.619 243.989 207.296 244.736 210.987 249.323 L 246.208 293.355 L 312.448 227.115 C 316.608 222.955 323.371 222.955 327.531 227.115 C 331.691 231.275 331.691 238.037 327.531 242.197 L 252.864 316.864 C 250.88 318.891 248.149 320 245.333 320 Z " fill-rule="evenodd" fill="rgb(255,255,255)"/></g></g></svg>