<?xml version="1.0" encoding="UTF-8" standalone="no"?><!-- Generator: Gravit.io --><svg xmlns="http://www.w3.org/2000/svg" xmlns:xlink="http://www.w3.org/1999/xlink" style="isolation:isolate" viewBox="0 0 512 512" width="512pt" height="512pt"><defs><clipPath id="_clipPath_3jiNpDvv5y3cuunR2PdQnaXIbK5A7tTh"><rect width="512" height="512"/></clipPath></defs><g clip-path="url(#_clipPath_3jiNpDvv5y3cuunR2PdQnaXIbK5A7tTh)"><path d=" M 253.739 512 C 250.944 512 248.213 510.891 246.187 508.885 C 243.669 506.368 242.56 502.741 243.264 499.264 L 258.347 423.851 C 258.773 421.76 259.755 419.861 261.269 418.389 L 427.2 252.459 C 439.659 240 459.989 240 472.448 252.459 L 502.613 282.624 C 515.093 295.104 515.093 315.392 502.613 327.872 L 336.683 493.803 C 335.211 495.296 333.312 496.299 331.221 496.725 L 255.808 511.808 C 255.125 511.936 254.421 512 253.739 512 Z  M 278.656 431.168 L 267.349 487.723 L 323.904 476.416 L 487.552 312.768 C 491.712 308.608 491.712 301.845 487.552 297.685 L 457.387 267.52 C 453.227 263.36 446.464 263.36 442.304 267.52 L 278.656 431.168 Z  M 329.152 486.251 L 329.365 486.251 L 329.152 486.251 Z  M 202.667 448 L 53.333 448 C 23.915 448 0 424.085 0 394.667 L 0 117.333 C 0 87.915 23.915 64 53.333 64 L 96 64 C 101.888 64 106.667 68.779 106.667 74.667 C 106.667 80.555 101.888 85.333 96 85.333 L 53.333 85.333 C 35.691 85.333 21.333 99.691 21.333 117.333 L 21.333 394.667 C 21.333 412.309 35.691 426.667 53.333 426.667 L 202.667 426.667 C 208.555 426.667 213.333 431.445 213.333 437.333 C 213.333 443.221 208.555 448 202.667 448 Z  M 352 256 C 346.112 256 341.333 251.221 341.333 245.333 L 341.333 117.333 C 341.333 99.691 326.976 85.333 309.333 85.333 L 266.667 85.333 C 260.779 85.333 256 80.555 256 74.667 C 256 68.779 260.779 64 266.667 64 L 309.333 64 C 338.752 64 362.667 87.915 362.667 117.333 L 362.667 245.333 C 362.667 251.221 357.888 256 352 256 Z  M 245.333 128 L 117.333 128 C 99.691 128 85.333 113.643 85.333 96 L 85.333 53.333 C 85.333 47.445 90.112 42.667 96 42.667 L 129.067 42.667 C 134.016 18.347 155.584 0 181.333 0 C 207.083 0 228.651 18.347 233.6 42.667 L 266.667 42.667 C 272.555 42.667 277.333 47.445 277.333 53.333 L 277.333 96 C 277.333 113.643 262.976 128 245.333 128 Z  M 106.667 64 L 106.667 96 C 106.667 101.867 111.467 106.667 117.333 106.667 L 245.333 106.667 C 251.2 106.667 256 101.867 256 96 L 256 64 L 224 64 C 218.112 64 213.333 59.221 213.333 53.333 C 213.333 35.691 198.976 21.333 181.333 21.333 C 163.691 21.333 149.333 35.691 149.333 53.333 C 149.333 59.221 144.555 64 138.667 64 L 106.667 64 Z  M 288 192 L 74.667 192 C 68.779 192 64 187.221 64 181.333 C 64 175.445 68.779 170.667 74.667 170.667 L 288 170.667 C 293.888 170.667 298.667 175.445 298.667 181.333 C 298.667 187.221 293.888 192 288 192 Z  M 288 256 L 74.667 256 C 68.779 256 64 251.221 64 245.333 C 64 239.445 68.779 234.667 74.667 234.667 L 288 234.667 C 293.888 234.667 298.667 239.445 298.667 245.333 C 298.667 251.221 293.888 256 288 256 Z  M 288 320 L 74.667 320 C 68.779 320 64 315.221 64 309.333 C 64 303.445 68.779 298.667 74.667 298.667 L 288 298.667 C 293.888 298.667 298.667 303.445 298.667 309.333 C 298.667 315.221 293.888 320 288 320 Z " fill-rule="evenodd" fill="rgb(255,255,255)"/></g></svg>