<?xml version="1.0" encoding="UTF-8" standalone="no"?><!-- Generator: Gravit.io --><svg xmlns="http://www.w3.org/2000/svg" xmlns:xlink="http://www.w3.org/1999/xlink" style="isolation:isolate" viewBox="0 0 512 512" width="512pt" height="512pt"><defs><clipPath id="_clipPath_SOhUOMzwcrmoZUicS9FdKg231DbQUUKF"><rect width="512" height="512"/></clipPath></defs><g clip-path="url(#_clipPath_SOhUOMzwcrmoZUicS9FdKg231DbQUUKF)"><g><path d=" M 181.333 405.333 L 53.333 405.333 C 23.915 405.333 0 381.397 0 352 L 0 96 C 0 66.603 23.915 42.667 53.333 42.667 L 373.333 42.667 C 402.752 42.667 426.667 66.603 426.667 96 L 426.667 181.333 C 426.667 187.243 421.888 192 416 192 C 410.112 192 405.333 187.243 405.333 181.333 L 405.333 96 C 405.333 78.357 390.976 64 373.333 64 L 53.333 64 C 35.691 64 21.333 78.357 21.333 96 L 21.333 352 C 21.333 369.643 35.691 384 53.333 384 L 181.333 384 C 187.221 384 192 388.779 192 394.667 C 192 400.555 187.221 405.333 181.333 405.333 Z  M 416 149.333 L 10.667 149.333 C 4.779 149.333 0 144.555 0 138.667 C 0 132.779 4.779 128 10.667 128 L 416 128 C 421.888 128 426.667 132.779 426.667 138.667 C 426.667 144.555 421.888 149.333 416 149.333 Z  M 96 106.667 C 90.112 106.667 85.333 101.888 85.333 96 L 85.333 10.667 C 85.333 4.779 90.112 0 96 0 C 101.888 0 106.667 4.779 106.667 10.667 L 106.667 96 C 106.667 101.888 101.888 106.667 96 106.667 Z  M 330.667 106.667 C 324.779 106.667 320 101.888 320 96 L 320 10.667 C 320 4.779 324.779 0 330.667 0 C 336.555 0 341.333 4.779 341.333 10.667 L 341.333 96 C 341.333 101.888 336.555 106.667 330.667 106.667 Z  M 352 426.667 C 349.163 426.667 346.453 425.536 344.448 423.552 L 301.781 380.885 C 297.621 376.725 297.621 369.963 301.781 365.803 C 305.941 361.643 312.704 361.643 316.864 365.803 L 351.467 400.405 L 418.624 323.648 C 422.507 319.189 429.248 318.763 433.664 322.645 C 438.101 326.528 438.549 333.269 434.667 337.707 L 360 423.04 C 358.059 425.259 355.285 426.581 352.341 426.667 C 352.235 426.667 352.128 426.667 352 426.667 Z  M 373.333 512 C 296.875 512 234.667 449.792 234.667 373.333 C 234.667 296.875 296.875 234.667 373.333 234.667 C 449.792 234.667 512 296.875 512 373.333 C 512 449.792 449.792 512 373.333 512 Z  M 373.333 256 C 308.651 256 256 308.629 256 373.333 C 256 438.037 308.651 490.667 373.333 490.667 C 438.016 490.667 490.667 438.037 490.667 373.333 C 490.667 308.629 438.016 256 373.333 256 Z " fill-rule="evenodd" fill="rgb(255,255,255)"/></g></g></svg>