<?xml version="1.0" encoding="UTF-8" standalone="no"?><!-- Generator: Gravit.io --><svg xmlns="http://www.w3.org/2000/svg" xmlns:xlink="http://www.w3.org/1999/xlink" style="isolation:isolate" viewBox="0 0 512 512" width="512pt" height="512pt"><defs><clipPath id="_clipPath_k4HtMHi4c01A6Ai9YalHocoQ3f91mdyM"><rect width="512" height="512"/></clipPath></defs><g clip-path="url(#_clipPath_k4HtMHi4c01A6Ai9YalHocoQ3f91mdyM)"><g><path d=" M 134.469 192 L 202.667 192 L 202.667 192 C 208.555 192 213.333 187.221 213.333 181.333 C 213.333 175.445 208.555 170.667 202.667 170.667 L 128.357 170.667 L 115.008 124.075 C 108.651 101.269 87.573 85.333 63.787 85.333 L 10.667 85.333 C 4.779 85.333 0 90.112 0 96 C 0 101.888 4.779 106.667 10.667 106.667 L 63.787 106.667 C 78.059 106.667 90.667 116.181 94.507 129.877 L 162.325 366.592 C 168.683 389.397 189.76 405.333 213.547 405.333 L 407.467 405.333 C 429.739 405.333 449.877 391.211 457.621 370.176 L 477.013 317.056 C 479.04 311.531 476.181 305.408 470.656 303.381 C 465.109 301.376 458.987 304.213 456.96 309.739 L 437.568 362.837 C 432.917 375.488 420.821 384 407.467 384 L 213.547 384 C 199.275 384 186.667 374.485 182.827 360.789 L 134.469 192 L 134.469 192 L 134.469 192 Z  M 234.667 448 C 222.891 448 213.333 457.579 213.333 469.333 C 213.333 481.088 222.891 490.667 234.667 490.667 C 246.443 490.667 256 481.088 256 469.333 C 256 457.579 246.443 448 234.667 448 L 234.667 448 L 234.667 448 L 234.667 448 L 234.667 448 L 234.667 448 Z  M 384 448 C 372.224 448 362.667 457.579 362.667 469.333 C 362.667 481.088 372.224 490.667 384 490.667 C 395.776 490.667 405.333 481.088 405.333 469.333 C 405.333 457.579 395.776 448 384 448 L 384 448 L 384 448 L 384 448 L 384 448 L 384 448 Z  M 277.333 57.941 L 277.333 139.435 C 277.333 220.181 363.84 266.539 384 276.267 C 404.139 266.517 490.667 219.989 490.667 139.435 L 490.667 57.941 L 384 21.931 L 277.333 57.941 L 277.333 57.941 L 277.333 57.941 Z  M 234.667 512 C 211.136 512 192 492.864 192 469.333 C 192 445.803 211.136 426.667 234.667 426.667 C 258.197 426.667 277.333 445.803 277.333 469.333 C 277.333 492.864 258.197 512 234.667 512 L 234.667 512 L 234.667 512 L 234.667 512 L 234.667 512 L 234.667 512 Z  M 384 512 C 360.469 512 341.333 492.864 341.333 469.333 C 341.333 445.803 360.469 426.667 384 426.667 C 407.531 426.667 426.667 445.803 426.667 469.333 C 426.667 492.864 407.531 512 384 512 L 384 512 L 384 512 L 384 512 L 384 512 L 384 512 Z  M 384 298.667 C 382.592 298.667 381.184 298.389 379.861 297.813 C 374.784 295.701 256 244.352 256 139.435 L 256 50.283 C 256 45.717 258.923 41.643 263.253 40.171 L 380.587 0.555 C 382.805 -0.192 385.216 -0.192 387.413 0.555 L 504.747 40.171 C 509.077 41.643 512 45.717 512 50.283 L 512 139.435 C 512 244.352 393.216 295.701 388.139 297.835 C 386.816 298.389 385.408 298.667 384 298.667 L 384 298.667 L 384 298.667 Z  M 373.333 192 C 373.141 192 372.928 192 372.757 191.979 C 369.707 191.808 366.912 190.357 365.013 187.989 L 322.347 134.656 C 318.677 130.048 319.403 123.349 324.011 119.659 C 328.661 115.989 335.339 116.736 339.008 121.323 L 374.208 165.355 L 440.448 99.115 C 444.608 94.955 451.371 94.955 455.531 99.115 C 459.691 103.275 459.691 110.037 455.531 114.197 L 380.864 188.864 C 378.88 190.891 376.149 192 373.333 192 Z " fill-rule="evenodd" fill="rgb(255,255,255)"/></g></g></svg>