<svg width="18" height="18" viewBox="0 0 18 18" fill="none" xmlns="http://www.w3.org/2000/svg">
<path d="M17.4162 13.372L15.0476 11.0035C14.2018 10.1576 12.7637 10.496 12.4254 11.5957C12.1716 12.357 11.3257 12.78 10.5644 12.6107C8.87262 12.1878 6.5887 9.98846 6.16576 8.21209C5.91199 7.45075 6.41953 6.60485 7.18083 6.35112C8.28049 6.01276 8.61885 4.57474 7.77296 3.72884L5.40445 1.36034C4.72774 0.768213 3.71266 0.768213 3.12054 1.36034L1.51334 2.96754C-0.0938613 4.65933 1.68252 9.14257 5.65822 13.1183C9.63392 17.094 14.1172 18.955 15.809 17.2632L17.4162 15.656C18.0083 14.9792 18.0083 13.9642 17.4162 13.372Z" fill="#D42035"/>
</svg>
