<?xml version="1.0" encoding="UTF-8" standalone="no"?><!-- Generator: Gravit.io --><svg xmlns="http://www.w3.org/2000/svg" xmlns:xlink="http://www.w3.org/1999/xlink" style="isolation:isolate" viewBox="0 0 512 512" width="512pt" height="512pt"><defs><clipPath id="_clipPath_82cCxL8herAI2BhTGPXfybEv5zd1BLMb"><rect width="512" height="512"/></clipPath></defs><g clip-path="url(#_clipPath_82cCxL8herAI2BhTGPXfybEv5zd1BLMb)"><path d=" M 156.459 511.979 C 155.648 511.979 154.859 511.957 154.048 511.893 C 144.747 511.189 136.235 506.453 130.688 498.923 L 85.013 436.395 C 83.328 434.197 81.728 432.576 79.957 431.317 L 13.056 381.952 C 5.632 376.619 0.853 368.213 0.064 359.04 C -0.747 349.696 2.581 340.48 9.216 333.696 C 19.072 323.84 34.048 321.088 46.613 326.72 L 100.992 350.507 L 206.763 236.395 C 210.261 232.683 210.283 228.544 209.984 226.411 C 209.472 222.72 207.36 219.499 204.181 217.579 L 26.368 123.349 C 16.896 117.696 11.051 108.629 9.835 98.24 C 8.597 87.893 12.181 77.76 19.627 70.464 C 26.709 63.403 37.035 60.459 46.549 62.848 L 305.792 117.568 C 310.016 118.485 314.411 117.141 317.461 113.984 L 410.389 15.317 C 419.584 5.568 435.392 0 453.76 0 C 471.893 0 487.701 5.419 497.152 14.848 C 506.773 24.469 512.32 41.301 512 59.861 C 511.68 77.632 506.112 92.864 496.683 101.675 L 420.139 173.952 C 415.851 178.005 409.088 177.792 405.056 173.525 C 401.003 169.237 401.195 162.496 405.483 158.443 L 482.069 86.123 C 487.104 81.408 490.453 70.976 490.667 59.477 C 490.88 46.976 487.509 35.371 482.069 29.931 C 476.843 24.704 465.728 21.333 453.76 21.333 C 441.6 21.333 430.912 24.64 425.877 29.952 L 332.885 128.704 C 324.565 137.301 312.811 140.907 301.312 138.432 L 41.749 83.605 C 39.104 82.944 36.523 83.776 34.645 85.632 C 31.872 88.341 30.592 92.011 31.04 95.765 C 31.488 99.541 33.6 102.827 36.864 104.789 L 214.699 199.019 C 223.957 204.587 229.76 213.397 231.147 223.509 C 232.512 233.557 229.333 243.541 222.379 250.944 L 111.509 370.56 C 108.416 373.909 103.573 374.891 99.413 373.077 L 37.973 346.197 C 33.408 344.128 27.883 345.195 24.405 348.672 C 22.208 350.912 21.056 354.027 21.333 357.163 C 21.611 360.213 23.125 362.88 25.643 364.693 L 92.523 414.037 C 95.893 416.448 98.987 419.499 102.123 423.595 L 147.925 486.293 C 149.76 488.789 152.597 490.368 155.691 490.603 C 158.699 490.837 161.6 489.771 163.776 487.595 C 167.403 484.075 168.405 478.635 166.421 473.92 L 139.563 412.587 C 137.749 408.427 138.752 403.584 142.08 400.512 L 195.627 350.805 C 199.915 346.795 206.699 347.029 210.709 351.36 C 214.72 355.691 214.464 362.432 210.155 366.443 L 162.155 411.008 L 185.984 465.515 C 191.467 478.379 188.544 493.333 178.731 502.848 C 172.885 508.672 164.843 511.979 156.459 511.979 L 156.459 511.979 Z  M 277.333 271.275 L 277.333 352.768 C 277.333 433.515 363.84 479.872 384 489.6 C 404.139 479.851 490.667 433.323 490.667 352.768 L 490.667 271.275 L 384 235.264 L 277.333 271.275 L 277.333 271.275 L 277.333 271.275 Z  M 384 512 C 382.592 512 381.184 511.723 379.861 511.147 C 374.784 509.035 256 457.685 256 352.768 L 256 263.616 C 256 259.051 258.923 254.976 263.253 253.504 L 380.587 213.888 C 382.805 213.141 385.195 213.141 387.413 213.888 L 504.747 253.504 C 509.077 254.955 512 259.029 512 263.616 L 512 352.768 C 512 457.685 393.216 509.035 388.139 511.168 C 386.816 511.723 385.408 512 384 512 L 384 512 L 384 512 Z  M 373.333 405.333 C 373.141 405.333 372.928 405.333 372.736 405.312 C 369.707 405.141 366.891 403.691 364.992 401.323 L 322.325 347.989 C 318.656 343.381 319.403 336.683 323.989 332.992 C 328.597 329.323 335.317 330.069 338.987 334.656 L 374.208 378.688 L 440.448 312.448 C 444.608 308.288 451.371 308.288 455.531 312.448 C 459.691 316.608 459.691 323.371 455.531 327.531 L 380.864 402.197 C 378.88 404.224 376.149 405.333 373.333 405.333 Z " fill-rule="evenodd" fill="rgb(0,0,0)"/></g></svg>