<?xml version="1.0" encoding="UTF-8" standalone="no"?><!-- Generator: Gravit.io --><svg xmlns="http://www.w3.org/2000/svg" xmlns:xlink="http://www.w3.org/1999/xlink" style="isolation:isolate" viewBox="0 0 512 512" width="512pt" height="512pt"><defs><clipPath id="_clipPath_UVvj1bpKTHQV1ror1ogNzOpZvHjlXTFk"><rect width="512" height="512"/></clipPath></defs><g clip-path="url(#_clipPath_UVvj1bpKTHQV1ror1ogNzOpZvHjlXTFk)"><path d=" M 298.667 193.92 L 298.667 193.92 L 298.667 215.68 L 298.667 490.667 L 298.667 501.333 L 298.667 501.333 L 298.667 490.667 L 480 490.667 C 485.76 490.667 490.667 485.973 490.667 480 L 490.667 262.4 C 490.667 257.493 487.253 253.013 482.347 251.947 L 298.667 215.68 L 298.667 215.68 L 298.667 193.92 L 298.667 193.92 L 298.667 193.92 L 486.613 231.253 C 501.76 234.453 512 247.253 512 262.4 L 512 480 C 512 497.707 497.707 512 480 512 L 288 512 L 288 512 L 202.667 512 L 202.667 512 L 202.667 512 L 96 512 L 96 512 L 32 512 C 14.293 512 0 497.707 0 480 L 0 35.84 C 0 26.453 4.053 17.493 11.307 11.52 C 18.56 5.333 27.947 2.773 37.333 4.267 L 271.787 39.893 C 287.36 42.453 298.667 55.68 298.667 71.467 L 298.667 193.92 Z  M 277.333 202.667 C 277.333 202.667 277.333 202.667 277.333 202.667 L 277.333 490.667 L 277.333 490.667 L 277.333 490.667 L 277.333 490.667 L 277.333 490.667 L 277.333 490.667 L 277.333 490.667 L 277.333 490.667 L 277.333 490.667 L 277.333 490.667 L 277.333 490.667 L 213.333 490.667 L 213.333 490.667 L 213.333 490.667 L 213.333 394.667 C 213.333 376.96 199.04 362.667 181.333 362.667 L 117.333 362.667 C 99.627 362.667 85.333 376.96 85.333 394.667 L 85.333 490.667 L 32 490.667 C 26.24 490.667 21.333 485.973 21.333 480 L 21.333 35.84 C 21.333 32.64 22.613 29.867 25.173 27.733 C 27.093 26.027 29.44 25.173 32 25.173 C 32.64 25.173 33.28 25.173 33.92 25.387 L 268.373 60.8 C 273.493 61.653 277.333 66.133 277.333 71.467 L 277.333 202.667 Z  M 106.667 490.667 L 106.667 394.667 C 106.667 388.693 111.36 384 117.333 384 L 181.333 384 C 187.093 384 192 388.693 192 394.667 L 192 394.667 L 192 490.667 L 106.667 490.667 L 106.667 490.667 Z  M 416 298.667 C 421.973 298.667 426.667 303.36 426.667 309.333 C 426.667 315.307 421.973 320 416 320 L 373.333 320 C 367.36 320 362.667 315.307 362.667 309.333 C 362.667 303.36 367.36 298.667 373.333 298.667 L 416 298.667 L 416 298.667 L 416 298.667 L 416 298.667 L 416 298.667 L 416 298.667 L 416 298.667 L 416 298.667 L 416 298.667 L 416 298.667 L 416 298.667 L 416 298.667 L 416 298.667 L 416 298.667 L 416 298.667 L 416 298.667 Z  M 416 362.667 C 421.973 362.667 426.667 367.36 426.667 373.333 C 426.667 379.307 421.973 384 416 384 L 373.333 384 C 367.36 384 362.667 379.307 362.667 373.333 C 362.667 367.36 367.36 362.667 373.333 362.667 L 416 362.667 L 416 362.667 L 416 362.667 L 416 362.667 L 416 362.667 L 416 362.667 L 416 362.667 L 416 362.667 L 416 362.667 L 416 362.667 L 416 362.667 L 416 362.667 L 416 362.667 L 416 362.667 L 416 362.667 Z  M 416 426.667 C 421.973 426.667 426.667 431.36 426.667 437.333 C 426.667 443.307 421.973 448 416 448 L 373.333 448 C 367.36 448 362.667 443.307 362.667 437.333 C 362.667 431.36 367.36 426.667 373.333 426.667 L 416 426.667 L 416 426.667 L 416 426.667 L 416 426.667 L 416 426.667 L 416 426.667 L 416 426.667 L 416 426.667 L 416 426.667 L 416 426.667 L 416 426.667 L 416 426.667 L 416 426.667 L 416 426.667 Z  M 224 106.667 C 229.973 106.667 234.667 111.36 234.667 117.333 C 234.667 123.307 229.973 128 224 128 L 181.333 128 C 175.36 128 170.667 123.307 170.667 117.333 C 170.667 111.36 175.36 106.667 181.333 106.667 L 224 106.667 L 224 106.667 L 224 106.667 L 224 106.667 L 224 106.667 L 224 106.667 L 224 106.667 L 224 106.667 L 224 106.667 L 224 106.667 L 224 106.667 Z  M 234.667 181.333 C 234.667 187.307 229.973 192 224 192 L 181.333 192 C 175.36 192 170.667 187.307 170.667 181.333 C 170.667 175.36 175.36 170.667 181.333 170.667 L 224 170.667 C 229.973 170.667 234.667 175.36 234.667 181.333 L 234.667 181.333 L 234.667 181.333 L 234.667 181.333 L 234.667 181.333 L 234.667 181.333 L 234.667 181.333 L 234.667 181.333 L 234.667 181.333 L 234.667 181.333 Z  M 224 234.667 C 229.973 234.667 234.667 239.36 234.667 245.333 C 234.667 251.307 229.973 256 224 256 L 181.333 256 C 175.36 256 170.667 251.307 170.667 245.333 C 170.667 239.36 175.36 234.667 181.333 234.667 L 224 234.667 L 224 234.667 L 224 234.667 L 224 234.667 L 224 234.667 L 224 234.667 L 224 234.667 L 224 234.667 L 224 234.667 Z  M 224 298.667 C 229.973 298.667 234.667 303.36 234.667 309.333 C 234.667 315.307 229.973 320 224 320 L 181.333 320 C 175.36 320 170.667 315.307 170.667 309.333 C 170.667 303.36 175.36 298.667 181.333 298.667 L 224 298.667 L 224 298.667 L 224 298.667 L 224 298.667 L 224 298.667 L 224 298.667 L 224 298.667 L 224 298.667 Z  M 128 309.333 C 128 315.307 123.307 320 117.333 320 L 74.667 320 C 68.693 320 64 315.307 64 309.333 C 64 303.36 68.693 298.667 74.667 298.667 L 117.333 298.667 C 123.307 298.667 128 303.36 128 309.333 L 128 309.333 L 128 309.333 L 128 309.333 L 128 309.333 L 128 309.333 L 128 309.333 Z  M 117.333 106.667 C 123.307 106.667 128 111.36 128 117.333 C 128 123.307 123.307 128 117.333 128 L 74.667 128 C 68.693 128 64 123.307 64 117.333 C 64 111.36 68.693 106.667 74.667 106.667 L 117.333 106.667 L 117.333 106.667 L 117.333 106.667 L 117.333 106.667 L 117.333 106.667 L 117.333 106.667 Z  M 117.333 170.667 C 123.307 170.667 128 175.36 128 181.333 C 128 187.307 123.307 192 117.333 192 L 74.667 192 C 68.693 192 64 187.307 64 181.333 C 64 175.36 68.693 170.667 74.667 170.667 L 117.333 170.667 L 117.333 170.667 L 117.333 170.667 L 117.333 170.667 L 117.333 170.667 Z  M 117.333 234.667 C 123.307 234.667 128 239.36 128 245.333 C 128 251.307 123.307 256 117.333 256 L 74.667 256 C 68.693 256 64 251.307 64 245.333 C 64 239.36 68.693 234.667 74.667 234.667 L 117.333 234.667 L 117.333 234.667 L 117.333 234.667 L 117.333 234.667 Z " fill-rule="evenodd" fill="rgb(0,0,0)"/></g></svg>