<?xml version="1.0" encoding="UTF-8" standalone="no"?><!-- Generator: Gravit.io --><svg xmlns="http://www.w3.org/2000/svg" xmlns:xlink="http://www.w3.org/1999/xlink" style="isolation:isolate" viewBox="0 0 512 512" width="512pt" height="512pt"><defs><clipPath id="_clipPath_t0vGsly9i8TlY0MrTu0BlX0SUDcPcniK"><rect width="512" height="512"/></clipPath></defs><g clip-path="url(#_clipPath_t0vGsly9i8TlY0MrTu0BlX0SUDcPcniK)"><path d=" M 218.453 438.613 C 216.555 438.613 214.635 438.123 212.907 437.056 C 162.965 406.592 0 294.293 0 128.64 C 0 57.707 57.707 0 128.64 0 C 172.245 0 211.349 20.16 234.667 53.653 C 257.984 20.16 297.088 0 340.693 0 C 411.627 0 469.333 57.707 469.333 128.64 C 469.333 146.347 467.477 164.288 463.787 182.016 C 462.571 187.776 456.917 191.403 451.157 190.293 C 445.397 189.077 441.685 183.445 442.88 177.664 C 446.272 161.365 448 144.875 448 128.64 C 448 69.461 399.872 21.333 340.693 21.333 C 298.603 21.333 261.653 43.563 244.245 79.339 C 240.661 86.677 228.651 86.677 225.067 79.339 C 207.68 43.563 170.709 21.333 128.64 21.333 C 69.461 21.333 21.333 69.461 21.333 128.64 C 21.333 283.2 176.469 389.845 224 418.859 C 229.035 421.931 230.635 428.48 227.563 433.515 C 225.557 436.8 222.037 438.613 218.453 438.613 L 218.453 438.613 Z  M 277.333 271.275 L 277.333 352.768 C 277.333 433.515 363.84 479.872 384 489.6 C 404.139 479.851 490.667 433.323 490.667 352.768 L 490.667 271.275 L 384 235.264 L 277.333 271.275 L 277.333 271.275 L 277.333 271.275 Z  M 384 512 C 382.592 512 381.184 511.723 379.861 511.147 C 374.784 509.035 256 457.685 256 352.768 L 256 263.616 C 256 259.051 258.923 254.976 263.253 253.504 L 380.587 213.888 C 382.805 213.141 385.195 213.141 387.413 213.888 L 504.747 253.504 C 509.077 254.955 512 259.029 512 263.616 L 512 352.768 C 512 457.685 393.216 509.035 388.139 511.168 C 386.816 511.723 385.408 512 384 512 L 384 512 L 384 512 Z  M 373.333 405.333 C 373.141 405.333 372.928 405.333 372.736 405.312 C 369.707 405.141 366.891 403.691 364.992 401.323 L 322.325 347.989 C 318.656 343.381 319.403 336.683 323.989 332.992 C 328.597 329.301 335.317 330.069 338.987 334.656 L 374.208 378.688 L 440.448 312.448 C 444.608 308.288 451.371 308.288 455.531 312.448 C 459.691 316.608 459.691 323.371 455.531 327.531 L 380.864 402.197 C 378.88 404.224 376.149 405.333 373.333 405.333 Z " fill-rule="evenodd" fill="rgb(0,0,0)"/></g></svg>