<svg width="16" height="17" viewBox="0 0 16 17" fill="none" xmlns="http://www.w3.org/2000/svg">
<path fill-rule="evenodd" clip-rule="evenodd" d="M1.84125 2.41118C1.84282 2.41118 1.80379 2.45213 1.75462 2.50097C1.56575 2.68606 1.17473 3.07121 1.17079 3.87696C1.16459 5.00406 1.89901 7.0968 5.43531 10.6648C8.95522 14.2154 11.0258 14.9652 12.145 14.9652H12.1614C12.9598 14.9613 13.3407 14.5659 13.5249 14.3761C13.5811 14.3178 13.6263 14.2753 13.6583 14.2485C14.4357 13.4593 14.8337 12.8717 14.8298 12.4952C14.8243 12.1109 14.3506 11.6564 13.6958 11.0279C13.4874 10.8278 13.2611 10.6104 13.0222 10.3694C12.4033 9.74639 12.0966 9.85272 11.4223 10.0922C10.4896 10.4222 9.20965 10.8711 7.22102 8.86345C5.22926 6.85499 5.67491 5.56485 6.00115 4.62363C6.23685 3.94312 6.34455 3.63279 5.72486 3.00741C5.48214 2.76325 5.26439 2.53169 5.06381 2.31903C4.44489 1.66214 3.99847 1.1872 3.61994 1.18169H3.6137C3.23985 1.18169 2.65918 1.58495 1.83735 2.41433C1.83969 2.41197 1.84047 2.41118 1.84125 2.41118ZM12.1458 16.1467C10.2008 16.1467 7.6651 14.584 4.60801 11.5004C1.53921 8.40427 -0.0115762 5.83737 6.50539e-05 3.87066C0.00715505 2.57107 0.68226 1.90552 0.935912 1.65584C0.94918 1.6393 0.994447 1.5944 1.01006 1.57865C2.12925 0.448401 2.88396 -0.0084257 3.63477 0.000117465C4.50655 0.0120527 5.12702 0.670512 5.91217 1.50461C6.10651 1.71097 6.31724 1.93545 6.55216 2.17174C7.69164 3.32168 7.36697 4.25975 7.10629 5.01272C6.8222 5.83422 6.57635 6.54309 8.04832 8.02856C9.52184 9.51404 10.2243 9.26593 11.0352 8.97687C11.7821 8.7138 12.7093 8.38457 13.8503 9.53452C14.0813 9.76765 14.3006 9.97795 14.5028 10.1725C15.3332 10.9688 15.9888 11.5981 15.9999 12.4803C16.0091 13.2324 15.5564 13.9988 14.4388 15.1275L13.944 14.7888L14.3623 15.2015C14.1149 15.4575 13.4562 16.1396 12.1676 16.1467H12.1458Z" fill="white"/>
</svg>
