<svg width="29" height="29" viewBox="0 0 29 29" fill="none" xmlns="http://www.w3.org/2000/svg">
<path d="M28.4 14.5C28.4 22.1768 22.1768 28.4 14.5 28.4C6.82324 28.4 0.6 22.1768 0.6 14.5C0.6 6.82324 6.82324 0.6 14.5 0.6C22.1768 0.6 28.4 6.82324 28.4 14.5Z" stroke="white" stroke-width="1.2"/>
<g clip-path="url(#clip0_543_37)">
<path d="M14.1208 21.25C17.0142 21.25 15.9825 19.4183 16.2058 18.8917C16.2025 18.4983 16.1992 18.12 16.2125 17.89C16.3958 17.9417 16.8283 18.1608 17.7217 19.0292C19.1008 20.4208 19.4533 21.25 20.5675 21.25H22.6183C23.2683 21.25 23.6067 20.9808 23.7758 20.755C23.9392 20.5367 24.0992 20.1533 23.9242 19.5567C23.4667 18.12 20.7983 15.6392 20.6325 15.3775C20.6575 15.3292 20.6975 15.265 20.7183 15.2317H20.7167C21.2433 14.5358 23.2533 11.5242 23.5492 10.3192C23.55 10.3175 23.5508 10.315 23.5508 10.3125C23.7108 9.7625 23.5642 9.40583 23.4125 9.20417C23.1842 8.9025 22.8208 8.75 22.33 8.75H20.2792C19.5925 8.75 19.0717 9.09583 18.8083 9.72667C18.3675 10.8475 17.1292 13.1525 16.2008 13.9683C16.1725 12.8125 16.1917 11.93 16.2067 11.2742C16.2367 9.995 16.3333 8.75 15.0058 8.75H11.7825C10.9508 8.75 10.155 9.65833 11.0167 10.7367C11.77 11.6817 11.2875 12.2083 11.45 14.83C10.8167 14.1508 9.69 12.3167 8.89333 9.9725C8.67 9.33833 8.33166 8.75083 7.37916 8.75083H5.32833C4.49667 8.75083 4 9.20417 4 9.96333C4 11.6683 7.77417 21.25 14.1208 21.25ZM7.37916 10.0008C7.56 10.0008 7.57833 10.0008 7.7125 10.3817C8.52833 12.7842 10.3583 16.3392 11.695 16.3392C12.6992 16.3392 12.6992 15.31 12.6992 14.9225L12.6983 11.8375C12.6433 10.8167 12.2717 10.3083 12.0275 10L14.9508 10.0033C14.9525 10.0175 14.9342 13.4158 14.9592 14.2392C14.9592 15.4083 15.8875 16.0783 17.3367 14.6117C18.8658 12.8858 19.9233 10.3058 19.9658 10.2008C20.0283 10.0508 20.0825 10 20.2792 10H22.33H22.3383C22.3375 10.0025 22.3375 10.005 22.3367 10.0075C22.1492 10.8825 20.2983 13.6708 19.6792 14.5367C19.6692 14.55 19.66 14.5642 19.6508 14.5783C19.3783 15.0233 19.1567 15.515 19.6883 16.2067H19.6892C19.7375 16.265 19.8633 16.4017 20.0467 16.5917C20.6167 17.18 22.5717 19.1917 22.745 19.9917C22.63 20.01 22.505 19.9967 20.5675 20.0008C20.155 20.0008 19.8325 19.3842 18.6017 18.1425C17.495 17.0658 16.7767 16.6258 16.1225 16.6258C14.8525 16.6258 14.945 17.6567 14.9567 18.9033C14.9608 20.255 14.9525 19.8275 14.9617 19.9125C14.8875 19.9417 14.675 20 14.1208 20C8.83333 20 5.39 11.6075 5.2575 10.0033C5.30333 9.99917 5.93417 10.0017 7.37916 10.0008Z" fill="white"/>
</g>
<defs>
<clipPath id="clip0_543_37">
<rect width="20" height="20" fill="white" transform="translate(4 5)"/>
</clipPath>
</defs>
</svg>
